<svg xmlns="http://www.w3.org/2000/svg" width="30.476" height="33.524" viewBox="0 0 30.476 33.524">
  <path id="Down_Arrow_9_" d="M36.762,54.476a1.519,1.519,0,0,1-1.077-.446L20.446,38.791A1.524,1.524,0,1,1,22.6,36.637L36.762,50.8,50.922,36.637a1.524,1.524,0,1,1,2.155,2.155L37.839,54.029a1.519,1.519,0,0,1-1.077.446Zm1.077-12.637L53.077,26.6a1.524,1.524,0,1,0-2.155-2.155L36.762,38.607,22.6,24.446A1.524,1.524,0,1,0,20.446,26.6L35.684,41.839a1.523,1.523,0,0,0,2.155,0Z" transform="translate(-24 53.523) rotate(-90)"/>
</svg>
