<svg xmlns="http://www.w3.org/2000/svg" width="104" height="104" viewBox="0 0 104 104">
  <g id="グループ_40089" data-name="グループ 40089" transform="translate(-1141 -4405)">
    <g id="楕円形_206" data-name="楕円形 206" transform="translate(1141 4405)" fill="#fafafa" stroke="#ebebeb" stroke-width="1">
      <circle cx="52" cy="52" r="52" stroke="none"/>
      <circle cx="52" cy="52" r="51.5" fill="none"/>
    </g>
    <g id="license" transform="translate(1141.701 4429.564)">
      <path id="パス_34165" data-name="パス 34165" d="M75.462,1.053A1.053,1.053,0,0,0,74.409,0H38.349A1.053,1.053,0,0,0,37.3,1.053V19.108a3,3,0,0,0-1.937,2.005.952.952,0,0,1-1.332.566,3.05,3.05,0,0,0-4.078,4.152.952.952,0,0,1-.542,1.342,3.05,3.05,0,0,0,.052,5.819.951.951,0,0,1,.566,1.332,3.057,3.057,0,0,0,3.057,4.423v8.4a1.063,1.063,0,0,0,1.622.886L37.3,46.373V52.86a1.053,1.053,0,0,0,1.053,1.053h36.06a1.053,1.053,0,0,0,1.053-1.053V41.031a1.053,1.053,0,1,0-2.106,0V51.807H39.4V46.258l2.772,1.779A1.063,1.063,0,0,0,43.8,47.15v-8.5a3.1,3.1,0,0,0,3.082-4.2,1.462,1.462,0,0,1-.218-.923.953.953,0,0,1,.631-.7,3.159,3.159,0,0,0,.675-.31,3.078,3.078,0,0,0-.26-5.326,3.211,3.211,0,0,0-.468-.184.953.953,0,0,1-.647-.7,1.3,1.3,0,0,1,.173-.834,3.038,3.038,0,0,0-4-3.992,1.188,1.188,0,0,1-1.128.115.985.985,0,0,1-.469-.579A3.034,3.034,0,0,0,39.4,19.16V2.106H73.356V31.658a1.053,1.053,0,0,0,2.106,0ZM32.081,36.384a.915.915,0,0,1-.18-1.1,3.05,3.05,0,0,0-1.828-4.3.948.948,0,0,1-.016-1.8,3.05,3.05,0,0,0,1.75-4.335.948.948,0,0,1,1.263-1.285,3.05,3.05,0,0,0,4.3-1.828.926.926,0,0,1,.839-.667.944.944,0,0,1,.973.68,3.081,3.081,0,0,0,4.325,1.721A.95.95,0,0,1,44.8,24.723a3.022,3.022,0,0,0-.3.95,3.079,3.079,0,0,0,2.13,3.354.94.94,0,0,1,.662,1.021c-.063.53-.463.692-.9.876a3.08,3.08,0,0,0-1.5,4.24.95.95,0,0,1-1.263,1.285,3.079,3.079,0,0,0-4.3,1.829.929.929,0,0,1-.922.668.943.943,0,0,1-.887-.674,3.079,3.079,0,0,0-4.328-1.728A.916.916,0,0,1,32.081,36.384Zm3.107,2.1a.947.947,0,0,1,.331.464,3,3,0,0,0,2.9,2.108,3.049,3.049,0,0,0,2.92-2.161.946.946,0,0,1,.351-.491v6.822L39.008,43.5a1.067,1.067,0,0,0-1.137,0l-2.683,1.722V38.48Z"/>
      <path id="パス_34166" data-name="パス 34166" d="M85.951,243.15A5.447,5.447,0,1,0,80.5,237.7,5.454,5.454,0,0,0,85.951,243.15Zm0-8.789A3.342,3.342,0,1,1,82.61,237.7,3.345,3.345,0,0,1,85.951,234.361Z" transform="translate(-47.603 -207.799)"/>
      <path id="パス_34167" data-name="パス 34167" d="M274.772,203.228H258.145a1.053,1.053,0,0,0,0,2.106h16.627a1.053,1.053,0,1,0,0-2.106Z" transform="translate(-205.597 -181.828)"/>
      <path id="パス_34168" data-name="パス 34168" d="M274.772,246.91H258.145a1.053,1.053,0,0,0,0,2.106h16.627a1.053,1.053,0,1,0,0-2.106Z" transform="translate(-205.597 -220.911)"/>
      <path id="パス_34169" data-name="パス 34169" d="M274.772,290.593H258.145a1.053,1.053,0,0,0,0,2.106h16.627a1.053,1.053,0,1,0,0-2.106Z" transform="translate(-205.597 -259.994)"/>
      <path id="パス_34170" data-name="パス 34170" d="M274.772,334.275H258.145a1.053,1.053,0,0,0,0,2.106h16.627a1.053,1.053,0,1,0,0-2.106Z" transform="translate(-205.597 -299.076)"/>
      <path id="パス_34171" data-name="パス 34171" d="M323.467,404.22h-10.9a1.053,1.053,0,1,0,0,2.106h10.9a1.053,1.053,0,0,0,0-2.106Z" transform="translate(-254.292 -361.656)"/>
      <path id="パス_34172" data-name="パス 34172" d="M466.667,334.777a1.053,1.053,0,1,0-.292,1.461A1.066,1.066,0,0,0,466.667,334.777Z" transform="translate(-391.382 -299.11)"/>
      <path id="パス_34173" data-name="パス 34173" d="M176.784,96.832a2.406,2.406,0,0,0,2.044,1.149h2.811a2.406,2.406,0,0,0,2.044-1.149l.706-1.161a2.392,2.392,0,0,0-1.111-3.446l-.766-.324a5.875,5.875,0,0,0-4.557,0l-.766.324a2.392,2.392,0,0,0-1.111,3.446Zm1.066-2.492a.279.279,0,0,1,.161-.176l.766-.324a3.756,3.756,0,0,1,2.914,0l.766.324a.288.288,0,0,1,.133.412l-.706,1.161a.288.288,0,0,1-.244.138h-2.811a.288.288,0,0,1-.245-.138l-.706-1.161A.279.279,0,0,1,177.85,94.34Z" transform="translate(-132.802 -81.813)"/>
      <path id="パス_34174" data-name="パス 34174" d="M208.718,54.3a1.053,1.053,0,1,0,.2-1.391A1.061,1.061,0,0,0,208.718,54.3Z" transform="translate(-162.161 -47.12)"/>
      <path id="パス_34175" data-name="パス 34175" d="M243,64.9a1.053,1.053,0,1,0,.291-1.459A1.064,1.064,0,0,0,243,64.9Z" transform="translate(-192.829 -56.604)"/>
      <path id="パス_34176" data-name="パス 34176" d="M174.988,65.19a1.053,1.053,0,1,0-.291-1.46A1.064,1.064,0,0,0,174.988,65.19Z" transform="translate(-131.722 -56.604)"/>
      <path id="パス_34177" data-name="パス 34177" d="M312.258,49.32a1.053,1.053,0,0,0-1.053-1.053H298.866a1.053,1.053,0,0,0-1.053,1.053v4.24a1.053,1.053,0,0,0,1.053,1.053H311.2a1.053,1.053,0,0,0,1.053-1.053Zm-2.106,3.187H299.919V50.373h10.233Z" transform="translate(-242.03 -43.185)"/>
      <path id="パス_34178" data-name="パス 34178" d="M311.2,129.864H298.866a1.053,1.053,0,0,0,0,2.106H311.2a1.053,1.053,0,0,0,0-2.106Z" transform="translate(-242.03 -116.19)"/>
    </g>
  </g>
</svg>
