<svg xmlns="http://www.w3.org/2000/svg" width="104" height="104" viewBox="0 0 104 104">
  <g id="グループ_40088" data-name="グループ 40088" transform="translate(-869 -4405)">
    <g id="楕円形_205" data-name="楕円形 205" transform="translate(869 4405)" fill="#fafafa" stroke="#ebebeb" stroke-width="1">
      <circle cx="52" cy="52" r="52" stroke="none"/>
      <circle cx="52" cy="52" r="51.5" fill="none"/>
    </g>
    <g id="meeting" transform="translate(894.326 4431.564)">
      <g id="グループ_140" data-name="グループ 140" transform="translate(0 8.891)">
        <g id="グループ_139" data-name="グループ 139">
          <path id="パス_34163" data-name="パス 34163" d="M50.534,92.767a7.113,7.113,0,1,0-8.987-.319H36.823L30.86,86.485a.888.888,0,0,0-1.257,0l-3.557,3.557a.888.888,0,0,0,0,1.257l8,8a.885.885,0,0,0,.629.261H41.79v6.224H26.557l4.414-6.62-1.48-.986-5.071,7.606H22.229v-4.446a.888.888,0,0,0-.889-.889H14.226V96.894a4.446,4.446,0,0,0-2.815-4.127,7.113,7.113,0,1,0-8.6,0A4.446,4.446,0,0,0,0,96.894v12.448a4.451,4.451,0,0,0,4.446,4.446v10.67H6.224v-10.67h6.224v9.781a.888.888,0,0,0,.889.889h6.224a.888.888,0,0,0,.889-.889V110.231a4.422,4.422,0,0,0-.891-2.667h6.226v15.115H22.229v1.778H31.12v-1.778H27.563V107.563h6.247a4.4,4.4,0,0,0-.912,2.667v13.337a.888.888,0,0,0,.889.889h6.224a.888.888,0,0,0,.889-.889v-9.781h6.224v10.67H48.9v-10.67a4.451,4.451,0,0,0,4.446-4.446V96.894A4.446,4.446,0,0,0,50.534,92.767ZM1.778,87.113a5.335,5.335,0,1,1,5.335,5.335A5.34,5.34,0,0,1,1.778,87.113ZM20.45,105.785H8.891V98.672H7.113v8a.888.888,0,0,0,.889.889h8a2.671,2.671,0,0,1,2.667,2.667v12.448H14.226V112.9a.888.888,0,0,0-.889-.889H4.446a2.671,2.671,0,0,1-2.667-2.667V96.894a2.671,2.671,0,0,1,2.667-2.667H9.781a2.671,2.671,0,0,1,2.667,2.667v4.446a.888.888,0,0,0,.889.889H20.45ZM40.9,87.113a5.335,5.335,0,1,1,5.335,5.335A5.34,5.34,0,0,1,40.9,87.113Zm10.67,22.229a2.671,2.671,0,0,1-2.667,2.667H40.011a.888.888,0,0,0-.889.889v9.781H34.677V110.231a2.671,2.671,0,0,1,2.667-2.667h5.335a.888.888,0,0,0,.889-.889v-8a.888.888,0,0,0-.889-.889H35.045L27.932,90.67l2.3-2.3,5.6,5.6a.885.885,0,0,0,.629.261H48.9a2.671,2.671,0,0,1,2.667,2.667Z" transform="translate(0 -80)"/>
        </g>
      </g>
      <g id="グループ_142" data-name="グループ 142" transform="translate(15.115)">
        <g id="グループ_141" data-name="グループ 141">
          <path id="パス_34164" data-name="パス 34164" d="M156.45,0H138.667A2.671,2.671,0,0,0,136,2.667V9.781a2.671,2.671,0,0,0,2.667,2.667h.889v5.335a.888.888,0,0,0,.549.822.878.878,0,0,0,.341.068.889.889,0,0,0,.629-.261l5.963-5.963h9.412a2.671,2.671,0,0,0,2.667-2.667V2.667A2.671,2.671,0,0,0,156.45,0Zm.889,9.781a.889.889,0,0,1-.889.889H146.67a.885.885,0,0,0-.629.261l-4.706,4.706V11.559a.888.888,0,0,0-.889-.889h-1.778a.889.889,0,0,1-.889-.889V2.667a.889.889,0,0,1,.889-.889H156.45a.889.889,0,0,1,.889.889Z" transform="translate(-136)"/>
        </g>
      </g>
      <g id="グループ_144" data-name="グループ 144" transform="translate(18.672 3.557)">
        <g id="グループ_143" data-name="グループ 143">
          <rect id="長方形_405" data-name="長方形 405" width="5" height="1" transform="translate(0.328 0.443)"/>
        </g>
      </g>
      <g id="グループ_146" data-name="グループ 146" transform="translate(18.672 7.113)">
        <g id="グループ_145" data-name="グループ 145">
          <rect id="長方形_406" data-name="長方形 406" width="16" height="2" transform="translate(0.328 -0.113)"/>
        </g>
      </g>
      <g id="グループ_148" data-name="グループ 148" transform="translate(25.785 3.557)">
        <g id="グループ_147" data-name="グループ 147">
          <rect id="長方形_407" data-name="長方形 407" width="9" height="1" transform="translate(0.215 0.443)"/>
        </g>
      </g>
    </g>
  </g>
</svg>
