<svg xmlns="http://www.w3.org/2000/svg" width="104" height="104" viewBox="0 0 104 104">
  <g id="グループ_40087" data-name="グループ 40087" transform="translate(-578 -4405)">
    <g id="楕円形_204" data-name="楕円形 204" transform="translate(578 4405)" fill="#fafafa" stroke="#ebebeb" stroke-width="1">
      <circle cx="52" cy="52" r="52" stroke="none"/>
      <circle cx="52" cy="52" r="51.5" fill="none"/>
    </g>
    <g id="teaching" transform="translate(602 4429)">
      <path id="パス_34153" data-name="パス 34153" d="M53.076,2H27.105a.865.865,0,0,0-.866.866V16.974L23.605,13.9a4.326,4.326,0,0,0-3.287-1.511H17.1a5.2,5.2,0,0,0,1.273-2.6h.938a.867.867,0,0,0,.775-1.254l-1.64-3.279V4.6a2.6,2.6,0,0,0-2.6-2.6H10.657a2.6,2.6,0,0,0-2.6,2.6V8.739a5.5,5.5,0,0,0,1.389,3.649H8.06a4.333,4.333,0,0,0-4.328,4.328v7.791a4.284,4.284,0,0,0,.888,2.6H2.866A.865.865,0,0,0,2,27.971v3.463a.865.865,0,0,0,.866.866h.866v3.463H5.463V32.3H31.433v1.731h1.731V32.3H53.076a.865.865,0,0,0,.866-.866V2.866A.865.865,0,0,0,53.076,2ZM9.791,4.6a.867.867,0,0,1,.866-.866h5.194a.867.867,0,0,1,.866.866v.866a.868.868,0,0,0,.091.387l1.105,2.21h-.331a.865.865,0,0,0-.866.866,3.464,3.464,0,0,1-3.806,3.447,3.594,3.594,0,0,1-3.12-3.633ZM14.45,14.12l-1.2,2.393-1.2-2.393ZM5.463,24.508V16.717a2.6,2.6,0,0,1,2.6-2.6h2.062l2.358,4.715a.866.866,0,0,0,1.549,0l2.357-4.715h3.932a2.6,2.6,0,0,1,1.972.906l4.158,4.851a.864.864,0,0,0,.624.3.842.842,0,0,0,.646-.253L32.3,15.344l2.239,2.239-5.6,5.6a2.6,2.6,0,0,1-3.673,0l-2.745-2.746a.866.866,0,0,0-1.479.612v6.06H16.717v-2.6a2.6,2.6,0,0,0-2.6-2.6H10.657V20.179H8.926v2.6a.865.865,0,0,0,.866.866H14.12a.867.867,0,0,1,.866.866v2.6H8.06a2.6,2.6,0,0,1-2.6-2.6Zm17.314,2.6v-3.97L24.044,24.4a4.3,4.3,0,0,0,2.2,1.175v1.527Zm10.388,3.463H3.731V28.836H33.165Zm19.045,0H34.9v-2.6a.865.865,0,0,0-.866-.866h-6.06V25.578a4.3,4.3,0,0,0,2.2-1.175l6.208-6.209a.865.865,0,0,0,0-1.224l-1.985-1.985L38.971,10.4,37.747,9.179l-4.582,4.582-.254-.254a.865.865,0,0,0-1.224,0l-3.716,3.716V3.731H52.21Z"/>
      <path id="パス_34154" data-name="パス 34154" d="M43.134,7.834l4.807,2.4a.856.856,0,0,0,.387.092.867.867,0,0,0,.387-.091l5.194-2.6-.775-1.549-4.806,2.4-4.807-2.4a.865.865,0,0,0-.775,0l-5.194,2.6.775,1.549Z" transform="translate(-4.775 -0.537)"/>
      <path id="パス_34155" data-name="パス 34155" d="M45,17H55.388v1.731H45Z" transform="translate(-5.775 -2.015)"/>
      <path id="パス_34156" data-name="パス 34156" d="M45,21H55.388v1.731H45Z" transform="translate(-5.775 -2.552)"/>
      <path id="パス_34157" data-name="パス 34157" d="M45,25H55.388v1.731H45Z" transform="translate(-5.775 -3.089)"/>
      <path id="パス_34158" data-name="パス 34158" d="M45,29H55.388v1.731H45Z" transform="translate(-5.775 -3.626)"/>
      <path id="パス_34159" data-name="パス 34159" d="M5,53.12v5.194a.865.865,0,0,0,.866.866h8.657a.865.865,0,0,0,.866-.866V53.12a5.188,5.188,0,0,0-2.5-4.431,4.329,4.329,0,1,0-5.39,0A5.188,5.188,0,0,0,5,53.12Zm2.6-7.791a2.6,2.6,0,1,1,2.6,2.6A2.6,2.6,0,0,1,7.6,45.328ZM6.731,53.12a3.463,3.463,0,1,1,6.926,0v4.328H6.731Z" transform="translate(-0.403 -5.238)"/>
      <path id="パス_34160" data-name="パス 34160" d="M19,53.12v5.194a.865.865,0,0,0,.866.866h8.657a.865.865,0,0,0,.866-.866V53.12a5.188,5.188,0,0,0-2.5-4.431,4.329,4.329,0,1,0-5.39,0A5.188,5.188,0,0,0,19,53.12Zm2.6-7.791a2.6,2.6,0,1,1,2.6,2.6A2.6,2.6,0,0,1,21.6,45.328Zm-.866,7.791a3.463,3.463,0,1,1,6.926,0v4.328H20.731Z" transform="translate(-2.283 -5.238)"/>
      <path id="パス_34161" data-name="パス 34161" d="M33,53.12v5.194a.865.865,0,0,0,.866.866h8.657a.865.865,0,0,0,.866-.866V53.12a5.188,5.188,0,0,0-2.5-4.431,4.329,4.329,0,1,0-5.39,0A5.188,5.188,0,0,0,33,53.12Zm2.6-7.791a2.6,2.6,0,1,1,2.6,2.6A2.6,2.6,0,0,1,35.6,45.328Zm-.866,7.791a3.463,3.463,0,1,1,6.926,0v4.328H34.731Z" transform="translate(-4.164 -5.238)"/>
      <path id="パス_34162" data-name="パス 34162" d="M47,53.12v5.194a.865.865,0,0,0,.866.866h8.657a.865.865,0,0,0,.866-.866V53.12a5.188,5.188,0,0,0-2.5-4.431,4.329,4.329,0,1,0-5.39,0A5.188,5.188,0,0,0,47,53.12Zm2.6-7.791a2.6,2.6,0,1,1,2.6,2.6A2.6,2.6,0,0,1,49.6,45.328Zm-.866,7.791a3.463,3.463,0,0,1,6.926,0v4.328H48.731Z" transform="translate(-6.044 -5.238)"/>
    </g>
  </g>
</svg>
