<svg xmlns="http://www.w3.org/2000/svg" width="104" height="104" viewBox="0 0 104 104">
  <g id="グループ_138" data-name="グループ 138" transform="translate(-212 -4405)">
    <g id="楕円形_204" data-name="楕円形 204" transform="translate(212 4405)" fill="#fafafa" stroke="#ebebeb" stroke-width="1">
      <circle cx="52" cy="52" r="52" stroke="none"/>
      <circle cx="52" cy="52" r="51.5" fill="none"/>
    </g>
    <g id="press-pass" transform="translate(222.125 4427.003)">
      <path id="パス_34147" data-name="パス 34147" d="M59.035,7.336h-12.1V5.116a5.118,5.118,0,1,0-10.237,0v2.22H24.6a2.725,2.725,0,0,0-2.722,2.722v47.81A2.725,2.725,0,0,0,24.6,60.59H59.035a2.725,2.725,0,0,0,2.722-2.722V10.058A2.725,2.725,0,0,0,59.035,7.336ZM37.526,8.992a.829.829,0,0,0,.828-.828V5.116a3.462,3.462,0,1,1,6.923,0V8.164a.828.828,0,0,0,.828.828h3.58V12.75H33.946V8.992ZM60.1,57.867a1.066,1.066,0,0,1-1.065,1.065H24.6a1.066,1.066,0,0,1-1.065-1.065V10.056A1.066,1.066,0,0,1,24.6,8.992h7.692v4.586a.829.829,0,0,0,.828.828h17.4a.829.829,0,0,0,.828-.828V8.992h7.692A1.066,1.066,0,0,1,60.1,10.058Z" transform="translate(0)"/>
      <path id="パス_34148" data-name="パス 34148" d="M61.687,34.938H36.953a.828.828,0,0,0-.828.828V55.8a.829.829,0,0,0,.828.828H61.687a.829.829,0,0,0,.828-.828V35.766a.828.828,0,0,0-.828-.828ZM42.131,54.967V54.11A2.942,2.942,0,0,1,43.52,51.6L47.8,48.924a.828.828,0,0,0-.44-1.531,1.54,1.54,0,0,1-1.538-1.538V43.5a3.5,3.5,0,0,1,7,0v2.359a1.54,1.54,0,0,1-1.538,1.538.828.828,0,0,0-.44,1.531L55.12,51.6a2.942,2.942,0,0,1,1.39,2.509v.857Zm18.727,0H58.167V54.11A4.592,4.592,0,0,0,56,50.2L53.172,48.43a3.194,3.194,0,0,0,1.3-2.575V43.5a5.155,5.155,0,0,0-10.311,0v2.359a3.194,3.194,0,0,0,1.3,2.573L42.641,50.2a4.589,4.589,0,0,0-2.167,3.912v.857H37.782V36.595H60.859Z" transform="translate(-7.504 -18.401)"/>
      <path id="パス_34149" data-name="パス 34149" d="M61.687,87.061H36.953a.828.828,0,1,0,0,1.657H61.687a.828.828,0,1,0,0-1.657Z" transform="translate(-7.504 -45.85)"/>
      <path id="パス_34150" data-name="パス 34150" d="M62.042,98.53a.828.828,0,0,0,0-1.657H43.61a.828.828,0,1,0,0,1.657Z" transform="translate(-11.01 -51.018)"/>
      <path id="パス_34151" data-name="パス 34151" d="M61.687,106.685H36.953a.828.828,0,0,0,0,1.657H61.687a.828.828,0,1,0,0-1.657Z" transform="translate(-7.504 -56.185)"/>
      <path id="パス_34152" data-name="パス 34152" d="M62.042,116.5H43.61a.828.828,0,0,0,0,1.657H62.042a.828.828,0,0,0,0-1.657Z" transform="translate(-11.01 -61.354)"/>
    </g>
  </g>
</svg>
