<svg xmlns="http://www.w3.org/2000/svg" width="777.304" height="77.396" viewBox="0 0 777.304 77.396">
  <path id="パス_35102" data-name="パス 35102" d="M-364.76-52.536c2.464,11.088,4.664,16.368,8.888,21.912,3.168,4.136,5.984,6.248,8.1,6.248a3.343,3.343,0,0,0,3.08-3.52c0-1.672-.616-2.64-2.64-4.048-5.808-4.048-8.976-8.36-11.616-15.488-1.232-3.52-2.288-7.656-2.288-9.768a5.916,5.916,0,0,1,.264-1.584,4.04,4.04,0,0,0,.088-.88c0-.968-.7-1.848-1.848-2.728a9.037,9.037,0,0,0-4.488-1.76,3.472,3.472,0,0,0-2.2.88,3.041,3.041,0,0,0-.968,1.672c0,.44.264.616.968.88,1.232.44,1.584,1.144,1.936,4.576a124.445,124.445,0,0,1,1.32,16.808c0,22.44-8.184,35.024-22.88,35.024-10.824,0-16.984-7.04-16.984-19.184a34.367,34.367,0,0,1,3.344-14.872,82.491,82.491,0,0,1,5.9-10.648,9.565,9.565,0,0,0,1.936-3.784c.968-4.136,3.52-7.04,7.392-8.008,3.872-1.056,4.664-1.584,4.664-3.256,0-2.2-2.376-4.136-5.192-4.136-1.056,0-1.5.176-3.08,1.056-2.992,1.408-6.864,2.728-8.536,2.728-.88,0-1.584-.616-2.376-2.112-.088-.176-.264-.264-.352-.088a3.954,3.954,0,0,0-.352,1.936c0,2.9,2.288,4.928,5.456,4.928a17.441,17.441,0,0,0,4.928-.792,72.074,72.074,0,0,0-9.944,12.76c-6.072,9.68-8.8,17.864-8.8,26.4,0,14.432,8.624,23.584,22.176,23.584A24.463,24.463,0,0,0-371.8-4.576c5.808-5.456,8.8-13.816,8.8-25.7a103,103,0,0,0-.88-12.5c-.352-3.08-.7-6.072-1.232-9.68ZM-286.44-71.1a7.592,7.592,0,0,0,.176,2.464c.44,1.76,1.408,2.816,3.7,4.4,1.5,1.144,2.376,1.76,2.816,2.728a9.954,9.954,0,0,1,.528,4.136c0,2.288-.176,4.312-.616,9.064-.264,3.344-.352,5.9-.352,7.392,0,4.84,1.232,7.216,4.664,9.064-10.912,6.864-15.664,12.936-15.664,20.328,0,9.24,7.128,14.432,19.976,14.432,9.416,0,16.544-2.376,16.544-5.632,0-1.672-1.672-2.816-3.872-2.816a13.331,13.331,0,0,0-3.608.616c-6.424,1.5-8.8,1.848-12.584,1.848-8.448,0-13.112-3.168-13.112-8.888,0-2.992,1.232-5.632,3.784-8.184,2.816-2.992,7.04-5.72,12.76-8.1a32.714,32.714,0,0,1,6.072-2.024,45.56,45.56,0,0,0,5.1-1.32c2.288-.7,3.168-1.76,3.168-3.256,0-2.024-2.112-3.872-4.488-3.872-1.144,0-1.936.352-3.7,1.5-2.552,1.672-4.488,2.376-5.984,2.376-2.728,0-3.52-2.024-3.52-9.064,0-1.672,0-4.576.176-8.1.088-2.288.176-4.312.176-5.016,0-6.336-1.584-8.624-7.744-11.352-2.992-1.32-3.168-1.408-4.136-2.728Q-286.308-71.368-286.44-71.1Zm87.56,29.744a4.637,4.637,0,0,0-.352,2.024,6.708,6.708,0,0,0,6.688,6.512c2.728,0,5.016-1.232,10.384-5.28a119.032,119.032,0,0,1,15.752-10.12c5.368-2.9,9.592-3.96,14.256-3.96,8.448,0,14.432,7.656,14.432,18.656,0,15.312-12.672,25.872-34.144,28.336-.44.088-.352.616.088.616A33.407,33.407,0,0,0-167.9-4.4c21.648,0,37.224-11.616,37.224-27.808a24.568,24.568,0,0,0-6.688-17.336,20.485,20.485,0,0,0-14.96-5.984c-8.888,0-18.392,3.344-34.5,12.408-5.368,2.992-7.128,3.784-8.624,3.784-1.232,0-2.024-.44-3.168-2.024Q-198.748-41.624-198.88-41.36ZM-92.4-15.224a.858.858,0,0,0-.968.88,1.184,1.184,0,0,0,.44,1.056A29.52,29.52,0,0,1-79.9,2.376c.968,2.112,1.936,3.784,4.312,3.784a4.557,4.557,0,0,0,4.576-4.84c0-3.256-1.584-6.424-5.72-9.856A34.358,34.358,0,0,0-92.4-15.224ZM71.72-52.536c2.464,11.088,4.664,16.368,8.888,21.912,3.168,4.136,5.984,6.248,8.1,6.248a3.343,3.343,0,0,0,3.08-3.52c0-1.672-.616-2.64-2.64-4.048-5.808-4.048-8.976-8.36-11.616-15.488C76.3-50.952,75.24-55.088,75.24-57.2a5.916,5.916,0,0,1,.264-1.584,4.041,4.041,0,0,0,.088-.88c0-.968-.7-1.848-1.848-2.728a9.037,9.037,0,0,0-4.488-1.76,3.472,3.472,0,0,0-2.2.88,3.041,3.041,0,0,0-.968,1.672c0,.44.264.616.968.88,1.232.44,1.584,1.144,1.936,4.576a124.444,124.444,0,0,1,1.32,16.808c0,22.44-8.184,35.024-22.88,35.024-10.824,0-16.984-7.04-16.984-19.184a34.367,34.367,0,0,1,3.344-14.872,82.491,82.491,0,0,1,5.9-10.648A9.566,9.566,0,0,0,41.624-52.8c.968-4.136,3.52-7.04,7.392-8.008,3.872-1.056,4.664-1.584,4.664-3.256,0-2.2-2.376-4.136-5.192-4.136-1.056,0-1.5.176-3.08,1.056-2.992,1.408-6.864,2.728-8.536,2.728-.88,0-1.584-.616-2.376-2.112-.088-.176-.264-.264-.352-.088a3.954,3.954,0,0,0-.352,1.936c0,2.9,2.288,4.928,5.456,4.928a17.44,17.44,0,0,0,4.928-.792,72.074,72.074,0,0,0-9.944,12.76c-6.072,9.68-8.8,17.864-8.8,26.4C25.432-6.952,34.056,2.2,47.608,2.2A24.463,24.463,0,0,0,64.68-4.576c5.808-5.456,8.8-13.816,8.8-25.7a103,103,0,0,0-.88-12.5c-.352-3.08-.7-6.072-1.232-9.68ZM150.04-71.1a7.592,7.592,0,0,0,.176,2.464c.44,1.76,1.408,2.816,3.7,4.4,1.5,1.144,2.376,1.76,2.816,2.728a9.954,9.954,0,0,1,.528,4.136c0,2.288-.176,4.312-.616,9.064-.264,3.344-.352,5.9-.352,7.392,0,4.84,1.232,7.216,4.664,9.064-10.912,6.864-15.664,12.936-15.664,20.328,0,9.24,7.128,14.432,19.976,14.432,9.416,0,16.544-2.376,16.544-5.632,0-1.672-1.672-2.816-3.872-2.816a13.331,13.331,0,0,0-3.608.616c-6.424,1.5-8.8,1.848-12.584,1.848-8.448,0-13.112-3.168-13.112-8.888,0-2.992,1.232-5.632,3.784-8.184,2.816-2.992,7.04-5.72,12.76-8.1a32.714,32.714,0,0,1,6.072-2.024,45.558,45.558,0,0,0,5.1-1.32c2.288-.7,3.168-1.76,3.168-3.256,0-2.024-2.112-3.872-4.488-3.872-1.144,0-1.936.352-3.7,1.5-2.552,1.672-4.488,2.376-5.984,2.376-2.728,0-3.52-2.024-3.52-9.064,0-1.672,0-4.576.176-8.1.088-2.288.176-4.312.176-5.016,0-6.336-1.584-8.624-7.744-11.352-2.992-1.32-3.168-1.408-4.136-2.728Q150.172-71.368,150.04-71.1ZM237.6-41.36a4.637,4.637,0,0,0-.352,2.024,6.708,6.708,0,0,0,6.688,6.512c2.728,0,5.016-1.232,10.384-5.28a119.034,119.034,0,0,1,15.752-10.12c5.368-2.9,9.592-3.96,14.256-3.96,8.448,0,14.432,7.656,14.432,18.656,0,15.312-12.672,25.872-34.144,28.336-.44.088-.352.616.088.616a33.407,33.407,0,0,0,3.872.176c21.648,0,37.224-11.616,37.224-27.808a24.568,24.568,0,0,0-6.688-17.336,20.485,20.485,0,0,0-14.96-5.984c-8.888,0-18.392,3.344-34.5,12.408-5.368,2.992-7.128,3.784-8.624,3.784-1.232,0-2.024-.44-3.168-2.024Q237.732-41.624,237.6-41.36ZM354.64-17.072A11.837,11.837,0,0,0,343.024-5.456,11.837,11.837,0,0,0,354.64,6.16,11.837,11.837,0,0,0,366.256-5.456,11.837,11.837,0,0,0,354.64-17.072Zm0,3.08a8.72,8.72,0,0,1,8.536,8.536A8.72,8.72,0,0,1,354.64,3.08,8.72,8.72,0,0,1,346.1-5.456,8.72,8.72,0,0,1,354.64-13.992Z" transform="translate(411.048 71.236)" fill="#fff"/>
</svg>
