<svg xmlns="http://www.w3.org/2000/svg" width="216.888" height="137.252" viewBox="0 0 216.888 137.252">
  <path id="パス_35102" data-name="パス 35102" d="M-93.24-33.432c1.568,7.056,2.968,10.416,5.656,13.944,2.016,2.632,3.808,3.976,5.152,3.976a2.127,2.127,0,0,0,1.96-2.24c0-1.064-.392-1.68-1.68-2.576a18.657,18.657,0,0,1-7.392-9.856A24.042,24.042,0,0,1-91-36.4a3.765,3.765,0,0,1,.168-1.008,2.571,2.571,0,0,0,.056-.56A2.4,2.4,0,0,0-91.952-39.7a5.751,5.751,0,0,0-2.856-1.12,2.21,2.21,0,0,0-1.4.56,1.935,1.935,0,0,0-.616,1.064c0,.28.168.392.616.56.784.28,1.008.728,1.232,2.912a79.191,79.191,0,0,1,.84,10.7c0,14.28-5.208,22.288-14.56,22.288-6.888,0-10.808-4.48-10.808-12.208a21.87,21.87,0,0,1,2.128-9.464,52.5,52.5,0,0,1,3.752-6.776,6.087,6.087,0,0,0,1.232-2.408,6.391,6.391,0,0,1,4.7-5.1c2.464-.672,2.968-1.008,2.968-2.072,0-1.4-1.512-2.632-3.3-2.632a3.374,3.374,0,0,0-1.96.672,17.89,17.89,0,0,1-5.432,1.736c-.56,0-1.008-.392-1.512-1.344-.056-.112-.168-.168-.224-.056a2.516,2.516,0,0,0-.224,1.232,3.187,3.187,0,0,0,3.472,3.136,11.1,11.1,0,0,0,3.136-.5,45.865,45.865,0,0,0-6.328,8.12c-3.864,6.16-5.6,11.368-5.6,16.8,0,9.184,5.488,15.008,14.112,15.008A15.567,15.567,0,0,0-97.72-2.912c3.7-3.472,5.6-8.792,5.6-16.352a65.544,65.544,0,0,0-.56-7.952c-.224-1.96-.448-3.864-.784-6.16ZM-43.4-45.248a4.831,4.831,0,0,0,.112,1.568c.28,1.12.9,1.792,2.352,2.8.952.728,1.512,1.12,1.792,1.736a6.334,6.334,0,0,1,.336,2.632c0,1.456-.112,2.744-.392,5.768-.168,2.128-.224,3.752-.224,4.7,0,3.08.784,4.592,2.968,5.768C-43.4-15.9-46.424-12.04-46.424-7.336c0,5.88,4.536,9.184,12.712,9.184,5.992,0,10.528-1.512,10.528-3.584,0-1.064-1.064-1.792-2.464-1.792a8.483,8.483,0,0,0-2.3.392A30.561,30.561,0,0,1-35.952-1.96c-5.376,0-8.344-2.016-8.344-5.656a7.174,7.174,0,0,1,2.408-5.208,23.329,23.329,0,0,1,8.12-5.152A20.818,20.818,0,0,1-29.9-19.264a28.992,28.992,0,0,0,3.248-.84c1.456-.448,2.016-1.12,2.016-2.072A2.778,2.778,0,0,0-27.5-24.64a4.029,4.029,0,0,0-2.352.952,7.439,7.439,0,0,1-3.808,1.512c-1.736,0-2.24-1.288-2.24-5.768,0-1.064,0-2.912.112-5.152.056-1.456.112-2.744.112-3.192,0-4.032-1.008-5.488-4.928-7.224-1.9-.84-2.016-.9-2.632-1.736Q-43.316-45.416-43.4-45.248ZM12.32-26.32a2.951,2.951,0,0,0-.224,1.288,4.269,4.269,0,0,0,4.256,4.144c1.736,0,3.192-.784,6.608-3.36a75.748,75.748,0,0,1,10.024-6.44,18.012,18.012,0,0,1,9.072-2.52c5.376,0,9.184,4.872,9.184,11.872,0,9.744-8.064,16.464-21.728,18.032-.28.056-.224.392.056.392a21.259,21.259,0,0,0,2.464.112c13.776,0,23.688-7.392,23.688-17.7a15.634,15.634,0,0,0-4.256-11.032,13.036,13.036,0,0,0-9.52-3.808c-5.656,0-11.7,2.128-21.952,7.9-3.416,1.9-4.536,2.408-5.488,2.408-.784,0-1.288-.28-2.016-1.288Q12.4-26.488,12.32-26.32ZM80.08-9.688a.546.546,0,0,0-.616.56.754.754,0,0,0,.28.672,18.785,18.785,0,0,1,8.288,9.968c.616,1.344,1.232,2.408,2.744,2.408A2.9,2.9,0,0,0,93.688.84c0-2.072-1.008-4.088-3.64-6.272A21.864,21.864,0,0,0,80.08-9.688ZM-93.24,54.568c1.568,7.056,2.968,10.416,5.656,13.944,2.016,2.632,3.808,3.976,5.152,3.976a2.127,2.127,0,0,0,1.96-2.24c0-1.064-.392-1.68-1.68-2.576a18.657,18.657,0,0,1-7.392-9.856A24.042,24.042,0,0,1-91,51.6a3.765,3.765,0,0,1,.168-1.008,2.571,2.571,0,0,0,.056-.56A2.4,2.4,0,0,0-91.952,48.3a5.751,5.751,0,0,0-2.856-1.12,2.21,2.21,0,0,0-1.4.56,1.935,1.935,0,0,0-.616,1.064c0,.28.168.392.616.56.784.28,1.008.728,1.232,2.912a79.191,79.191,0,0,1,.84,10.7c0,14.28-5.208,22.288-14.56,22.288-6.888,0-10.808-4.48-10.808-12.208a21.87,21.87,0,0,1,2.128-9.464,52.5,52.5,0,0,1,3.752-6.776,6.087,6.087,0,0,0,1.232-2.408,6.391,6.391,0,0,1,4.7-5.1c2.464-.672,2.968-1.008,2.968-2.072,0-1.4-1.512-2.632-3.3-2.632a3.374,3.374,0,0,0-1.96.672,17.89,17.89,0,0,1-5.432,1.736c-.56,0-1.008-.392-1.512-1.344-.056-.112-.168-.168-.224-.056a2.516,2.516,0,0,0-.224,1.232,3.187,3.187,0,0,0,3.472,3.136,11.1,11.1,0,0,0,3.136-.5,45.865,45.865,0,0,0-6.328,8.12c-3.864,6.16-5.6,11.368-5.6,16.8,0,9.184,5.488,15.008,14.112,15.008A15.567,15.567,0,0,0-97.72,85.088c3.7-3.472,5.6-8.792,5.6-16.352a65.545,65.545,0,0,0-.56-7.952c-.224-1.96-.448-3.864-.784-6.16ZM-43.4,42.752a4.831,4.831,0,0,0,.112,1.568c.28,1.12.9,1.792,2.352,2.8.952.728,1.512,1.12,1.792,1.736a6.334,6.334,0,0,1,.336,2.632c0,1.456-.112,2.744-.392,5.768-.168,2.128-.224,3.752-.224,4.7,0,3.08.784,4.592,2.968,5.768C-43.4,72.1-46.424,75.96-46.424,80.664c0,5.88,4.536,9.184,12.712,9.184,5.992,0,10.528-1.512,10.528-3.584,0-1.064-1.064-1.792-2.464-1.792a8.483,8.483,0,0,0-2.3.392,30.561,30.561,0,0,1-8.008,1.176c-5.376,0-8.344-2.016-8.344-5.656a7.174,7.174,0,0,1,2.408-5.208,23.329,23.329,0,0,1,8.12-5.152A20.818,20.818,0,0,1-29.9,68.736a28.991,28.991,0,0,0,3.248-.84c1.456-.448,2.016-1.12,2.016-2.072A2.778,2.778,0,0,0-27.5,63.36a4.029,4.029,0,0,0-2.352.952,7.439,7.439,0,0,1-3.808,1.512c-1.736,0-2.24-1.288-2.24-5.768,0-1.064,0-2.912.112-5.152.056-1.456.112-2.744.112-3.192,0-4.032-1.008-5.488-4.928-7.224-1.9-.84-2.016-.9-2.632-1.736Q-43.316,42.584-43.4,42.752ZM12.32,61.68a2.951,2.951,0,0,0-.224,1.288,4.269,4.269,0,0,0,4.256,4.144c1.736,0,3.192-.784,6.608-3.36a75.748,75.748,0,0,1,10.024-6.44,18.012,18.012,0,0,1,9.072-2.52c5.376,0,9.184,4.872,9.184,11.872,0,9.744-8.064,16.464-21.728,18.032-.28.056-.224.392.056.392a21.259,21.259,0,0,0,2.464.112c13.776,0,23.688-7.392,23.688-17.7a15.634,15.634,0,0,0-4.256-11.032,13.036,13.036,0,0,0-9.52-3.808c-5.656,0-11.7,2.128-21.952,7.9-3.416,1.9-4.536,2.408-5.488,2.408-.784,0-1.288-.28-2.016-1.288Q12.4,61.512,12.32,61.68ZM86.8,77.136a7.392,7.392,0,1,0,7.392,7.392A7.533,7.533,0,0,0,86.8,77.136Zm0,1.96a5.432,5.432,0,1,1-5.432,5.432A5.549,5.549,0,0,1,86.8,79.1Z" transform="translate(122.696 45.332)" fill="#fff"/>
</svg>
