<svg id="グループ_329" data-name="グループ 329" xmlns="http://www.w3.org/2000/svg" xmlns:xlink="http://www.w3.org/1999/xlink" width="226.281" height="44.491" viewBox="0 0 226.281 44.491">
  <defs>
    <clipPath id="clip-path">
      <rect id="長方形_448" data-name="長方形 448" width="226.281" height="42.99" fill="#fff"/>
    </clipPath>
  </defs>
  <path id="パス_34184" data-name="パス 34184" d="M18.71,36.016l2.078,1.059-9.008,4.59-9.008-4.59,2.079-1.059,6.93,3.531Zm-4.852-2.471,2.08,1.058L11.78,36.723,7.622,34.6,9.7,33.545,11.78,34.6ZM2.772,32.131l2.079-1.059L6.93,32.131l-2.079,1.06Zm13.859,0,2.079-1.059,2.078,1.059-2.078,1.06Zm-9.009-2.47L9.7,28.6l2.078,1.06L9.7,30.718Zm6.236-1.06,2.08,1.06-2.08,1.057L11.78,29.661ZM2.772,27.188,4.851,26.13,6.93,27.188,4.851,28.248Zm13.859,0L18.71,26.13l2.078,1.057L18.71,28.248ZM7.622,24.718,9.7,23.657l2.078,1.061L9.7,25.775Zm6.236-1.061,2.08,1.061-2.08,1.056L11.78,24.718ZM2.772,22.245l2.079-1.059L6.93,22.245l-2.079,1.06Zm13.859,0,2.079-1.059,2.078,1.059-2.078,1.06ZM7.622,19.775,9.7,18.716l2.078,1.059L9.7,20.834Zm6.236-1.059,2.08,1.059-2.08,1.059L11.78,19.775ZM2.772,17.3l2.079-1.061L6.93,17.3,4.851,18.362Zm13.859,0,2.079-1.061L20.789,17.3,18.71,18.362ZM7.622,14.832,9.7,13.772l2.078,1.059L9.7,15.89Zm6.236-1.059,2.08,1.059-2.08,1.058L11.78,14.832ZM2.772,12.359,4.851,11.3,6.93,12.359,4.851,13.418Zm13.859,0L18.71,11.3l2.078,1.059L18.71,13.418ZM7.622,9.888,11.78,7.77l4.158,2.118-2.08,1.059L11.78,9.888,9.7,10.947ZM2.772,7.415l9.008-4.59,9.008,4.59L18.71,8.476,11.78,4.944,4.851,8.476ZM11.78,0,0,6V8.829L2.079,9.888,0,10.947v2.826l2.079,1.059L0,15.89v2.826l2.079,1.059L0,20.834v2.823l2.079,1.061L0,25.775V28.6l2.079,1.06L0,30.718v2.827L2.079,34.6,0,35.662v2.826l11.78,6,11.78-6V35.662L21.482,34.6l2.078-1.058V30.718l-2.078-1.057L23.56,28.6V25.775l-2.078-1.056,2.078-1.061V20.834l-2.078-1.059,2.078-1.059V15.89l-2.078-1.058,2.078-1.059V10.947L21.482,9.888,23.56,8.829V6Z" transform="translate(5.018)" fill="#fff"/>
  <g id="グループ_323" data-name="グループ 323">
    <g id="グループ_322" data-name="グループ 322" clip-path="url(#clip-path)">
      <path id="パス_34185" data-name="パス 34185" d="M92.629,18.513a.655.655,0,0,0,.611.318,3.045,3.045,0,0,0,1.476-.326.522.522,0,0,1,.273-.13.559.559,0,0,1,.346.146.415.415,0,0,1,.172.293.207.207,0,0,1-.138.205,3.237,3.237,0,0,0-1.128.917,4.107,4.107,0,0,0-.985,2.613,1.515,1.515,0,0,0,1.526,1.669,2.01,2.01,0,0,0,1.88-1.139,4.352,4.352,0,0,0,.412-2.047,10.066,10.066,0,0,0-.188-2.288,1.073,1.073,0,0,1-.034-.207c0-.111.1-.2.258-.2a.4.4,0,0,1,.276.079.933.933,0,0,1,.128.461,5,5,0,0,0,.534,1.5A5.14,5.14,0,0,0,99,21.634a1.1,1.1,0,0,1,.338.683c0,.258-.122.4-.318.4-.138,0-.329-.147-.556-.517a10.024,10.024,0,0,1-.575-1.093,10.909,10.909,0,0,1-.534-1.492l-.052.018a16.357,16.357,0,0,1,.146,1.987,3.637,3.637,0,0,1-.766,2.492,2.357,2.357,0,0,1-1.887.776,2.026,2.026,0,0,1-2.035-2.273,5.148,5.148,0,0,1,1.525-3.454,3.743,3.743,0,0,1-.912.128.889.889,0,0,1-.983-.633Z" transform="translate(-57.155 -11.388)" fill="#fff"/>
      <path id="パス_34186" data-name="パス 34186" d="M125.293,19.62c-.051-.411-.051-1-.061-1.42a1.708,1.708,0,0,0-.034-.43.461.461,0,0,0-.191-.24,3.37,3.37,0,0,0-.325-.188.052.052,0,0,1-.027-.051c0-.095.112-.146.291-.146a1.955,1.955,0,0,1,.675.128c.283.094.387.2.387.359a2.438,2.438,0,0,1-.061.242,5.7,5.7,0,0,0-.085,1.121c0,.177.006.369.015.548.027.508.062.625.279.625.086,0,.136-.018.352-.128.249-.119.7-.318.948-.436a.837.837,0,0,1,.344-.085.394.394,0,0,1,.423.333.356.356,0,0,1-.268.343,7.024,7.024,0,0,1-.811.258c-1.739.472-2.851,1.259-2.851,2.03,0,.532.464.8,1.721.8a12.856,12.856,0,0,0,2.072-.2,1.4,1.4,0,0,1,.241-.019.4.4,0,0,1,.379.4c0,.215-.095.3-.4.37a14.274,14.274,0,0,1-1.82.11,3.92,3.92,0,0,1-2.059-.37,1.12,1.12,0,0,1-.62-1.009c0-.736.57-1.4,1.908-2.108-.312-.119-.373-.387-.424-.833" transform="translate(-76.593 -10.645)" fill="#fff"/>
      <path id="パス_34187" data-name="パス 34187" d="M263.858,30.86c1.275.285,2.284.943,2.284,1.662a.449.449,0,0,1-.431.5c-.208,0-.31-.07-.449-.342a3.9,3.9,0,0,0-1.515-1.62Z" transform="translate(-163.163 -19.16)" fill="#fff"/>
      <path id="パス_34188" data-name="パス 34188" d="M282.381,18.191c.327.289.543.323,1.266.323.416,0,.981-.042,1.439-.084v-.744c0-.481-.077-.576-.352-.679-.12-.041-.173-.077-.173-.1,0-.1.162-.189.465-.189a1.614,1.614,0,0,1,.535.127c.249.1.336.181.336.31,0,.062-.018.11-.112.24a2.038,2.038,0,0,0-.147.976c.32-.041.648-.093,1.01-.163a2.3,2.3,0,0,0,.5-.165.8.8,0,0,1,.368-.093c.328,0,.45.136.45.292a.289.289,0,0,1-.172.28,2.739,2.739,0,0,1-.674.156c-.576.095-1.016.157-1.5.205v.37c0,.318,0,.659.008.917a5.661,5.661,0,0,0,1.318-.3.566.566,0,0,1,.32-.083c.223,0,.387.128.387.3s-.1.24-.422.326a13.167,13.167,0,0,1-1.584.259c.015.538.04.992.067,1.438a6.225,6.225,0,0,1,1.809.727c.38.225.516.385.516.584a.316.316,0,0,1-.327.333.905.905,0,0,1-.474-.231,5.4,5.4,0,0,0-1.515-.874,1.168,1.168,0,0,1-.157.671,1.4,1.4,0,0,1-1.344.605c-.913,0-1.524-.411-1.524-.976,0-.6.748-.985,1.672-.985.233,0,.542.025.792.051-.008-.358-.016-.825-.027-1.286-.37.035-.8.06-1.171.06-.715,0-1.016-.18-1.035-.563a2.194,2.194,0,0,1,.138-.577l.276.045a1.179,1.179,0,0,0-.043.272c0,.231.156.353.69.353.31,0,.8-.054,1.129-.093-.008-.43-.015-.893-.026-1.288-.541.042-1.148.086-1.5.086a1.347,1.347,0,0,1-1.379-.668Zm1.9,4.2c-.784,0-1.207.161-1.207.523,0,.29.3.505.957.505a1.417,1.417,0,0,0,.931-.239.855.855,0,0,0,.2-.66,4.925,4.925,0,0,0-.88-.13" transform="translate(-174.59 -10.379)" fill="#fff"/>
      <path id="パス_34189" data-name="パス 34189" d="M310.942,18.614a1.259,1.259,0,0,0,1.03.275,4.179,4.179,0,0,0,.681-.076,7.518,7.518,0,0,0,.139-1.271c0-.187-.079-.264-.32-.385-.076-.044-.128-.067-.128-.1A.084.084,0,0,1,312.38,17a.5.5,0,0,1,.327-.078c.4,0,.965.3.965.53a.228.228,0,0,1-.085.206.434.434,0,0,0-.174.26c-.042.169-.121.494-.188.813.4-.1.714-.191.965-.274a1.768,1.768,0,0,0,.381-.181.692.692,0,0,1,.377-.13.68.68,0,0,1,.311.067.267.267,0,0,1,.122.243c0,.143-.086.229-.5.377a11.743,11.743,0,0,1-1.768.436c-.162.813-.3,1.465-.475,2.312a4.281,4.281,0,0,1,2.64-1.106c1.087,0,1.8.619,1.8,1.484,0,1.772-2.785,2.126-4.31,2.126l-.035-.25c1.56-.2,3.594-.684,3.594-1.994,0-.609-.4-.969-1.138-.969a2.833,2.833,0,0,0-1.672.658,2.874,2.874,0,0,0-.749.73.41.41,0,0,1-.319.268.724.724,0,0,1-.466-.7c0-.13.121-.312.217-.687.127-.522.257-1.116.36-1.789-.285.025-.516.04-.707.04a1.153,1.153,0,0,1-1.1-.605Z" transform="translate(-192.242 -10.503)" fill="#fff"/>
      <path id="パス_34190" data-name="パス 34190" d="M340.525,18.449a1.118,1.118,0,0,0,.7.2,6.444,6.444,0,0,0,1.381-.168,5.032,5.032,0,0,0,.293-.6,1.39,1.39,0,0,0,.12-.394.119.119,0,0,0-.043-.094,1.311,1.311,0,0,0-.361-.206c-.06-.028-.087-.043-.087-.08,0-.066.1-.119.224-.119.527,0,1.06.232,1.06.454,0,.078-.026.111-.1.2a3.782,3.782,0,0,0-.241.319c-.093.127-.173.236-.3.436a7.16,7.16,0,0,0,1.32-.455.745.745,0,0,1,.32-.085c.255,0,.395.144.395.315,0,.19-.182.276-.871.438-.715.172-1.146.267-1.491.326a11.151,11.151,0,0,1-1.043,1.3,2.889,2.889,0,0,1,1.217-.439,1.048,1.048,0,0,1,1.007,1.08c.587-.251,1.035-.428,1.681-.695.225-.093.3-.155.3-.257,0-.074-.076-.212-.265-.349a.109.109,0,0,1-.059-.1c0-.035.048-.051.127-.051a1.233,1.233,0,0,1,.749.351,1,1,0,0,1,.363.53c0,.173-.136.24-.317.24a2.514,2.514,0,0,0-.725.155c-.612.205-1.25.438-1.808.658,0,.267.008.6.008.892,0,.352-.095.5-.318.5-.2,0-.286-.1-.286-.37,0-.213.01-.581.01-.815-.914.423-1.311.9-1.311,1.269,0,.505.466.678,1.371.678a9.088,9.088,0,0,0,1.25-.111,1.963,1.963,0,0,0,.508-.1.833.833,0,0,1,.233-.042c.329,0,.586.179.586.412s-.13.328-.56.389c-.232.03-.9.082-1.342.082-1.673,0-2.476-.343-2.476-1.217a1.516,1.516,0,0,1,.405-.933,5.414,5.414,0,0,1,1.337-.926c-.01-.7-.173-.91-.544-.91a2.318,2.318,0,0,0-1.156.525,7.348,7.348,0,0,0-.714.581c-.214.213-.294.281-.432.281a.291.291,0,0,1-.293-.3.652.652,0,0,1,.249-.5c.156-.124.373-.259.58-.447a9.1,9.1,0,0,0,1.136-1.3,4.469,4.469,0,0,1-.9.1,1.188,1.188,0,0,1-1-.455Z" transform="translate(-210.544 -10.545)" fill="#fff"/>
      <path id="パス_34191" data-name="パス 34191" d="M371.45,25.416c2.489-.507,3.651-1.465,3.651-2.768a1.4,1.4,0,0,0-1.533-1.515,5.354,5.354,0,0,0-2.318.717c-.354.2-.785.413-1.042.59-.206.148-.371.29-.5.29a.954.954,0,0,1-.613-.339.774.774,0,0,1-.321-.609c0-.1.028-.153.078-.153a.2.2,0,0,1,.087.041.82.82,0,0,0,.532.239,3.885,3.885,0,0,0,.934-.325,7.555,7.555,0,0,1,3.171-.89,2.059,2.059,0,0,1,2.3,2.036,2.5,2.5,0,0,1-1.776,2.384,9.02,9.02,0,0,1-2.612.556Z" transform="translate(-228.138 -12.849)" fill="#fff"/>
      <path id="パス_34192" data-name="パス 34192" d="M398.762,18.544a1.1,1.1,0,0,0,.708.259,6.422,6.422,0,0,0,1.189-.184,3.284,3.284,0,0,0,.283-1.137c0-.12-.076-.23-.385-.387-.05-.024-.088-.031-.088-.067,0-.1.19-.154.353-.154a1.979,1.979,0,0,1,.733.221c.138.087.208.165.208.252a.288.288,0,0,1-.078.194,2.29,2.29,0,0,0-.277.5c-.067.155-.127.316-.2.469a4.828,4.828,0,0,0,.474-.178,3.021,3.021,0,0,0,.3-.163.541.541,0,0,1,.223-.052c.208,0,.365.122.365.276s-.088.255-.329.352a10.552,10.552,0,0,1-1.225.306c-.421.994-.861,2.014-1.292,2.93-.292.626-.423.735-.629.735a.312.312,0,0,1-.3-.323,1.47,1.47,0,0,1,.309-.66,15.2,15.2,0,0,0,1.338-2.562,6.116,6.116,0,0,1-.976.1,1.011,1.011,0,0,1-.861-.558Zm4.448.146a3.932,3.932,0,0,1,1.5.35c.5.249.758.577.758.814a.28.28,0,0,1-.276.318.544.544,0,0,1-.276-.1,1.269,1.269,0,0,0-.681-.118c-.741,0-.982.231-.982.573a11.344,11.344,0,0,0,.275,1.705,5.625,5.625,0,0,1,1.355.635.567.567,0,0,1,.337.514.283.283,0,0,1-.3.29c-.1,0-.2-.024-.388-.188a4.365,4.365,0,0,0-.955-.651c0,.942-.639,1.218-1.441,1.218-.767,0-1.311-.413-1.311-.934,0-.6.614-1.019,1.37-1.019a6.156,6.156,0,0,1,.752.043c-.036-.334-.1-.831-.1-1.157a2.14,2.14,0,0,1,.068-.574c.166-.48.6-.744,1.4-.831.079-.009.121-.019.121-.069s-.042-.085-.085-.12a2.981,2.981,0,0,0-1.207-.46Zm-1.139,3.846c-.569,0-.887.248-.887.516,0,.313.318.5.887.5a.958.958,0,0,0,.751-.265.694.694,0,0,0,.155-.471,1.143,1.143,0,0,0-.008-.154,3.1,3.1,0,0,0-.9-.13" transform="translate(-246.594 -10.476)" fill="#fff"/>
      <path id="パス_34193" data-name="パス 34193" d="M433.234,17.778c0,.11-.043.188-.191.307-.748.583-1.4,1.112-2.11,1.748-.466.413-.5.49-.5.609s.042.214.25.387c.921.76,1.612,1.379,1.87,1.627.6.592.818.942.818,1.362,0,.25-.138.42-.343.42-.167,0-.261-.077-.46-.454a7.6,7.6,0,0,0-.947-1.285,10.532,10.532,0,0,0-1.2-1.225c-.421-.361-.524-.53-.524-.8,0-.291.085-.385.482-.781.561-.556,1.216-1.2,1.749-1.779a.543.543,0,0,0,.173-.344c0-.085-.085-.171-.25-.284-.112-.067-.155-.111-.155-.155s.1-.1.232-.1c.509,0,1.1.4,1.1.746m.413.419a3.832,3.832,0,0,1,1.32.755.76.76,0,0,1,.239.472c0,.16-.067.4-.267.4-.172,0-.251-.147-.336-.276a3.79,3.79,0,0,0-1.094-1.18Zm.741-.635a4.4,4.4,0,0,1,1.3.584.634.634,0,0,1,.328.5c0,.148-.045.38-.234.38a.327.327,0,0,1-.258-.146,4.4,4.4,0,0,0-1.259-1.125Z" transform="translate(-265.951 -10.574)" fill="#fff"/>
      <path id="パス_34194" data-name="パス 34194" d="M150.675,18.449a1.122,1.122,0,0,0,.7.2,6.45,6.45,0,0,0,1.378-.168,5.166,5.166,0,0,0,.293-.6,1.355,1.355,0,0,0,.122-.394.121.121,0,0,0-.044-.094,1.334,1.334,0,0,0-.363-.206c-.06-.028-.084-.043-.084-.08,0-.066.092-.119.221-.119.527,0,1.059.232,1.059.454,0,.078-.027.111-.1.2a3.806,3.806,0,0,0-.239.319c-.1.127-.176.236-.305.436a7.321,7.321,0,0,0,1.323-.455.722.722,0,0,1,.315-.085c.26,0,.4.144.4.315,0,.19-.181.276-.871.438-.712.172-1.146.267-1.49.326a11.17,11.17,0,0,1-1.044,1.3,2.886,2.886,0,0,1,1.217-.439,1.048,1.048,0,0,1,1.009,1.08c.585-.251,1.032-.428,1.678-.695.224-.093.3-.155.3-.257,0-.074-.08-.212-.27-.349a.115.115,0,0,1-.06-.1c0-.035.053-.051.129-.051a1.237,1.237,0,0,1,.75.351,1.007,1.007,0,0,1,.362.53c0,.173-.135.24-.317.24a2.5,2.5,0,0,0-.723.155c-.613.205-1.25.438-1.811.658,0,.267.008.6.008.892,0,.352-.095.5-.32.5-.2,0-.282-.1-.282-.37,0-.213.008-.581.008-.815-.915.423-1.312.9-1.312,1.269,0,.505.467.678,1.372.678a9.114,9.114,0,0,0,1.248-.111,1.967,1.967,0,0,0,.509-.1.842.842,0,0,1,.233-.042c.328,0,.585.179.585.412s-.129.328-.56.389c-.232.03-.9.082-1.345.082-1.669,0-2.474-.343-2.474-1.217a1.512,1.512,0,0,1,.406-.933,5.38,5.38,0,0,1,1.337-.926c-.008-.7-.176-.91-.545-.91a2.315,2.315,0,0,0-1.155.525,7.355,7.355,0,0,0-.714.581c-.218.213-.294.281-.43.281a.29.29,0,0,1-.294-.3.644.644,0,0,1,.25-.5c.155-.124.368-.259.577-.447a9.2,9.2,0,0,0,1.139-1.3,4.488,4.488,0,0,1-.907.1,1.185,1.185,0,0,1-1-.455Z" transform="translate(-93.096 -10.545)" fill="#fff"/>
      <path id="パス_34195" data-name="パス 34195" d="M181.6,25.416c2.493-.507,3.655-1.465,3.655-2.768a1.405,1.405,0,0,0-1.533-1.515,5.366,5.366,0,0,0-2.319.717c-.354.2-.784.413-1.04.59-.21.148-.373.29-.5.29a.966.966,0,0,1-.614-.339.778.778,0,0,1-.317-.609c0-.1.025-.153.077-.153a.2.2,0,0,1,.085.041.824.824,0,0,0,.534.239,3.872,3.872,0,0,0,.93-.325,7.576,7.576,0,0,1,3.174-.89,2.06,2.06,0,0,1,2.3,2.036,2.505,2.505,0,0,1-1.777,2.384,9.045,9.045,0,0,1-2.611.556Z" transform="translate(-110.692 -12.849)" fill="#fff"/>
      <path id="パス_34196" data-name="パス 34196" d="M208.908,18.544a1.1,1.1,0,0,0,.709.259,6.407,6.407,0,0,0,1.188-.184,3.322,3.322,0,0,0,.284-1.137c0-.12-.076-.23-.387-.387-.051-.024-.086-.031-.086-.067,0-.1.189-.154.352-.154a1.994,1.994,0,0,1,.735.221c.137.087.207.165.207.252a.281.281,0,0,1-.079.194,2.288,2.288,0,0,0-.274.5c-.07.155-.129.316-.2.469a4.483,4.483,0,0,0,.473-.178,3.01,3.01,0,0,0,.3-.163.532.532,0,0,1,.223-.052c.208,0,.364.122.364.276s-.086.255-.329.352a10.529,10.529,0,0,1-1.223.306c-.425.994-.863,2.014-1.295,2.93-.294.626-.422.735-.628.735a.314.314,0,0,1-.3-.323,1.446,1.446,0,0,1,.313-.66,15.024,15.024,0,0,0,1.335-2.562,6.086,6.086,0,0,1-.972.1,1.013,1.013,0,0,1-.864-.558Zm4.448.146a3.928,3.928,0,0,1,1.5.35c.5.249.76.577.76.814a.28.28,0,0,1-.276.318.527.527,0,0,1-.275-.1,1.273,1.273,0,0,0-.68-.118c-.743,0-.984.231-.984.573a11.752,11.752,0,0,0,.275,1.705,5.6,5.6,0,0,1,1.355.635.567.567,0,0,1,.334.514.282.282,0,0,1-.3.29c-.1,0-.2-.024-.388-.188a4.3,4.3,0,0,0-.955-.651c0,.942-.638,1.218-1.442,1.218-.766,0-1.31-.413-1.31-.934,0-.6.614-1.019,1.369-1.019a6.172,6.172,0,0,1,.753.043c-.035-.334-.1-.831-.1-1.157a2.155,2.155,0,0,1,.068-.574c.164-.48.6-.744,1.4-.831.079-.009.121-.019.121-.069s-.042-.085-.085-.12a2.978,2.978,0,0,0-1.207-.46Zm-1.138,3.846c-.568,0-.888.248-.888.516,0,.313.32.5.888.5a.959.959,0,0,0,.75-.265.68.68,0,0,0,.156-.471.958.958,0,0,0-.009-.154,3.083,3.083,0,0,0-.9-.13" transform="translate(-129.142 -10.476)" fill="#fff"/>
      <path id="パス_34197" data-name="パス 34197" d="M243.381,17.778c0,.11-.042.188-.189.307-.75.583-1.405,1.112-2.11,1.748-.464.413-.5.49-.5.609s.043.214.251.387c.92.76,1.609,1.379,1.869,1.627.6.592.818.942.818,1.362,0,.25-.139.42-.346.42-.161,0-.259-.077-.455-.454a7.692,7.692,0,0,0-.95-1.285,10.5,10.5,0,0,0-1.2-1.225c-.424-.361-.528-.53-.528-.8,0-.291.087-.385.484-.781.56-.556,1.214-1.2,1.749-1.779a.542.542,0,0,0,.172-.344c0-.085-.087-.171-.251-.284-.111-.067-.153-.111-.153-.155s.093-.1.232-.1c.508,0,1.1.4,1.1.746m.416.419a3.75,3.75,0,0,1,1.315.755.743.743,0,0,1,.244.472c0,.16-.07.4-.268.4-.173,0-.25-.147-.336-.276a3.74,3.74,0,0,0-1.1-1.18Zm.741-.635a4.48,4.48,0,0,1,1.3.584.639.639,0,0,1,.325.5c0,.148-.042.38-.231.38a.327.327,0,0,1-.258-.146,4.409,4.409,0,0,0-1.258-1.125Z" transform="translate(-148.501 -10.574)" fill="#fff"/>
      <path id="パス_34198" data-name="パス 34198" d="M255.12,73.175c0-.314-.656-.752-1.118-1.164-.13-.115-.26-.1-.35.084-.033.067-.109.267-.182.406s-.2.184-.566.187-3.927,0-4.028,0a.985.985,0,0,1-.451-.088c-.2-.094-.71-.442-.952-.59-.1-.064-.288-.167-.274.1.019.343.153,3,.158,3.637s-.064,2.4-.075,3.165c-.007.427.042.7.366.7a1.075,1.075,0,0,0,.879-.783c.043-.13.1-.148.258-.15.251,0,4.1,0,4.271,0s.339.008.341.189c0,.1.037.726.414.723.456,0,.745-.459.8-.971s-.053-3.364-.021-4.463c.009-.326.534-.554.53-.98m-1.993,3.764a.227.227,0,0,1,.258.233c0,.1,0,.635.006.776s-.05.267-.254.268-4.211,0-4.42,0-.257-.114-.257-.233,0-.649-.006-.776a.238.238,0,0,1,.254-.268c.2,0,4.22,0,4.42,0m-.014-1.983c.209,0,.257.125.257.232s.007.9.008,1.027-.069.262-.181.264-4.438,0-4.565,0-.184-.074-.185-.227-.006-.915-.008-1.027a.242.242,0,0,1,.254-.268c.2,0,4.211,0,4.421,0m-4.424-.443c-.209,0-.256-.1-.257-.232s-.006-.789-.007-.895a.246.246,0,0,1,.251-.269c.2,0,4.242,0,4.425,0a.227.227,0,0,1,.255.233c0,.114.006.776.006.894a.245.245,0,0,1-.254.269c-.194,0-4.213,0-4.42,0" transform="translate(-152.926 -44.662)" fill="#fff"/>
      <path id="パス_34199" data-name="パス 34199" d="M272.194,70.13c3.748-.967,6.2-3.463,7.758-7.517a.379.379,0,0,1,.424-.207c.108,0,.11,0,.5,0,.229,0,.321.032.322.214.014,1.991-.5,5.349-1.56,5.4a4.976,4.976,0,0,1-1.6-.312c-.1-.029-.172.06-.1.123a2.166,2.166,0,0,1,1,1.795c0,.252.027.378.338.376,2.585-.019,3.1-5.8,3.141-6.888,0-.1.013-.135.066-.174.119-.087.37-.239.424-.292a.259.259,0,0,0,.034-.39c-.263-.282-1.2-1.034-1.281-1.092s-.135-.068-.185.033c-.23.472-.269.753-.643.756,0,0-5.572,0-5.7,0s-.224-.03-.144-.185c.135-.26.9-1.948,1-2.157s.182-.314.345-.318h2.885a.222.222,0,0,1,.252.233c-.037.411.034.8.482.8a.889.889,0,0,0,.81-.959c-.009-.3-.1-.758-.112-2.462-.006-.8,0-1.752.015-2.2.009-.325.566-.356.563-.781,0-.314-.661-.717-1.113-1.168a.241.241,0,0,0-.41.061c-.047.094-.206.43-.324.634a.474.474,0,0,1-.436.2c-.1,0-3.909,0-4.077,0a.863.863,0,0,1-.448-.107c-.211-.141-1.213-.935-1.315-1.018s-.208.014-.146.18a13.376,13.376,0,0,1,.367,3.691,22.92,22.92,0,0,1-.113,3.084c-.089.482.08.748.4.745a1.039,1.039,0,0,0,.955-.77.151.151,0,0,1,.129-.127c.159,0,.209.107.114.369a16.844,16.844,0,0,1-3.745,5.718c-.076.078-.032.142.046.1a11.689,11.689,0,0,0,3.346-3.012.213.213,0,0,1,.183-.1c.063,0,.576,0,.828,0,.158,0,.312.025.25.185a11.615,11.615,0,0,1-4.754,5.489c-.109.06-.055.136.058.113,2.658-.513,4.967-3.065,6.022-5.564a.4.4,0,0,1,.4-.224c.12,0,.509,0,.816,0,.188,0,.344.016.272.214a12.851,12.851,0,0,1-6.424,7.344c-.137.068-.055.2.069.166m7.108-16c.125,0,.18.042.181.229s.01,1.464.012,1.653a.254.254,0,0,1-.249.272c-.108,0-4.46,0-4.578,0a.22.22,0,0,1-.253-.235c0-.191-.011-1.509-.013-1.653s.073-.265.178-.266,4.6,0,4.724,0m-4.617,4.665c-.14,0-.252-.044-.253-.235s-.01-1.305-.011-1.495a.242.242,0,0,1,.25-.273h4.578c.113,0,.251.03.254.235s.009,1.282.011,1.493a.254.254,0,0,1-.254.273h-4.574" transform="translate(-167.599 -32.591)" fill="#fff"/>
      <path id="パス_34200" data-name="パス 34200" d="M310.121,63.831c-.007-1.506-.02-2.886-.036-3.432-.032-1.082-.733-.949-.736-1.451,0-.207.2-.424.546-.426.668-.005,1.622,1.209,1.628,1.879,0,.6-.212.534-.341,1.3a12.4,12.4,0,0,0-.141,1.824c.017.314.253.193.345.165s2.355-.966,3.051-1.227c.537-.2.638-.507.966-.509.421,0,.7.353,1.023.764.686.875.639,1.4.422,1.615s-.628.035-.92.415a29.683,29.683,0,0,1-2.976,3.208c-.515.389-.738.04-.438-.368a31.6,31.6,0,0,0,2.331-3.775c.05-.14.074-.242-.181-.165-.514.158-3.07,1.3-3.394,1.448s-.273.341-.27.693.018,3.34.043,3.811c.035.656.132,1.313,1.7,1.3a17.892,17.892,0,0,0,3.169-.6,1.034,1.034,0,0,1,.861.807c.041.656-.112.883-.869,1.026a13.275,13.275,0,0,1-2.675.218c-2.283.016-3.2-1.023-3.121-4.01.011-.436.016-2.091.013-2.393,0-.256-.177-.287-.306-.23s-.61.276-.826.37c-1.265.557-1.4,1.145-1.863,1.148a3.253,3.253,0,0,1-1.462-1.817c0-.551.267-.622.571-.191s.738.347,1.236.153,2.242-.942,2.379-1.012.273-.158.27-.544" transform="translate(-189.095 -36.333)" fill="#fff"/>
      <path id="パス_34201" data-name="パス 34201" d="M338.459,63.715c.914,1.07,1.091,1.972,1.576,1.969.517,0,.706-.659.7-1.129-.011-1.506-1.927-2.656-3.871-2.844-.316-.03-.364.18-.174.347a11.691,11.691,0,0,1,1.767,1.657" transform="translate(-208.221 -38.312)" fill="#fff"/>
      <path id="パス_34202" data-name="パス 34202" d="M347.792,66.116c-1.976,2.76-7.455,8.444-8.515,8.452a1.594,1.594,0,0,1-.865-.378c-.288-.213-.344.019-.342.237,0,.412.371.784.725,1.353.364.587.718,1.163,1.1,1.161.292,0,.261-.483.515-.718a32.337,32.337,0,0,0,7.629-9.957c.149-.311.038-.543-.243-.149" transform="translate(-209.142 -40.919)" fill="#fff"/>
      <path id="パス_34203" data-name="パス 34203" d="M534.585,63.715c.915,1.07,1.091,1.972,1.576,1.969.517,0,.706-.659.7-1.129-.011-1.506-1.928-2.656-3.871-2.844-.316-.03-.364.18-.174.347a11.7,11.7,0,0,1,1.767,1.657" transform="translate(-329.551 -38.312)" fill="#fff"/>
      <path id="パス_34204" data-name="パス 34204" d="M543.917,66.116c-1.976,2.76-7.455,8.444-8.515,8.452a1.592,1.592,0,0,1-.864-.378c-.288-.213-.345.019-.342.237,0,.412.372.784.725,1.353.364.587.719,1.163,1.1,1.161.293,0,.261-.483.515-.718a32.35,32.35,0,0,0,7.63-9.957c.148-.311.038-.543-.244-.149" transform="translate(-330.472 -40.919)" fill="#fff"/>
      <path id="パス_34205" data-name="パス 34205" d="M371.85,58.715c0-.417-.706-1.76-1.148-1.757s-.4.482-1.374.594c-.344.04-1.411.272-1.207-.122a1.26,1.26,0,0,0,.27-.65c0-.37-1.1-1.628-1.594-1.624a.68.68,0,0,0-.587.483c0,.262.546.413.551,1.061.007.834-2.256,4.443-4.114,6.513-.292.327.036.587.407.322a12.351,12.351,0,0,0,1.828-1.63c.27-.256.475-.147.576-.055a11.9,11.9,0,0,1,1.79,2.328c.151.315-.084.747-.264,1.064a27.968,27.968,0,0,1-4.569,5.931c-.2.182-.2.718.622.156,1.932-1.314,5.454-5.118,7.932-11.418.1-.267.886-.78.882-1.2m-2.039.536a37.33,37.33,0,0,1-1.528,3.575c-.085.162-.183.228-.326.118a6.19,6.19,0,0,0-2.058-1.762c-.214-.11-.142-.279-.016-.455.387-.5.89-1.269,1.128-1.631s.434-.088,1-.091,1.264-.138,1.63-.141.228.231.173.387" transform="translate(-224.134 -34.244)" fill="#fff"/>
      <path id="パス_34206" data-name="パス 34206" d="M395.787,73.153a63.773,63.773,0,0,1-9.229.509.838.838,0,0,1-.6-.228c-.127-.11-.627-.657-.707-.73s-.273-.1-.271.234c.008,1.1.159.786.538,1.685s.609,1.02.883,1.018c.513,0,.547-.422,1.292-.458s5.938-.167,8.631-.059c.491.019.734-.366.729-.9a1.1,1.1,0,0,0-1.27-1.071" transform="translate(-238.164 -45.109)" fill="#fff"/>
      <path id="パス_34207" data-name="パス 34207" d="M425.91,70.335c-.5,0-1.006.818-3.88.839-1.39.009-1.565-.578-1.612-1.46-.034-.632-.046-2.757-.029-4.187a.18.18,0,0,1,.183-.2,20.879,20.879,0,0,0,4.179-.74c1.179-.209,1.332-.6,1.329-.968a.832.832,0,0,0-.574-.791c-.979-.449-1.235.078-1.583.324a6.966,6.966,0,0,1-3.306,1.056c-.126.009-.191-.047-.185-.185.05-1.071.135-2.165.151-2.6.032-.9.439-.984.436-1.4,0-.445-.355-.723-.752-1.114-.337-.333-.521-.69-1.147-.684s-.832.318-.83.531c0,.308.4.321.763.774a1.31,1.31,0,0,1,.4,1.046c0,.44.027,2.856.039,4.359s-.376,6.045.831,7.058,4.042.616,5.877.284a1.156,1.156,0,0,0,.973-1.247c0-.374-.577-.694-1.265-.689" transform="translate(-258.77 -36.146)" fill="#fff"/>
      <path id="パス_34208" data-name="パス 34208" d="M441.46,60.74c-.006-.755-.829-1.591-2.263-1.581-.239,0-.357.138-.139.33.808.715,1.422,1.953,1.965,1.948.267,0,.439-.392.437-.7" transform="translate(-271.546 -36.729)" fill="#fff"/>
      <path id="パス_34209" data-name="パス 34209" d="M436.882,63.07c-.239,0-.357.138-.139.329.807.715,1.148,2.2,1.813,2.194.267,0,.439-.393.437-.7a2.205,2.205,0,0,0-2.111-1.825" transform="translate(-270.114 -39.157)" fill="#fff"/>
      <path id="パス_34210" data-name="パス 34210" d="M586.884,51.965c-.358,0-.391.209-.233.334.86.682,1.709,1.974,2.117,1.972.267,0,.383-.392.381-.7-.006-.755-.83-1.618-2.265-1.608" transform="translate(-362.868 -32.263)" fill="#fff"/>
      <path id="パス_34211" data-name="パス 34211" d="M584.015,55.493c-.239-.02-.226.212-.021.418.792.8,1.489,2.247,1.958,2.243.267,0,.456-.295.454-.6-.007-1-1.393-1.98-2.391-2.063" transform="translate(-361.183 -34.452)" fill="#fff"/>
      <path id="パス_34212" data-name="パス 34212" d="M507.071,56.016c1.054.74,1.544,1.942,2.131,1.938.267,0,.439-.392.437-.7-.006-.755-.993-1.58-2.429-1.57-.239,0-.377.163-.139.329" transform="translate(-313.616 -34.573)" fill="#fff"/>
      <path id="パス_34213" data-name="パス 34213" d="M504.307,59.611c.979.842,1.154,2.227,1.931,2.221.267,0,.466-.334.463-.777,0-.789-1.229-1.585-2.3-1.769-.235-.04-.314.137-.095.325" transform="translate(-311.903 -36.804)" fill="#fff"/>
      <path id="パス_34214" data-name="パス 34214" d="M447.408,63.163a.47.47,0,0,0-.488.4c0,.429.637.425.644,1.383.03,4.066-.411,6.829-2.242,10.055-.109.193-.117.394-.031.44.1.054.257.006.583-.413,1.545-1.988,2.6-4.434,2.89-9.088.025-.41.36-.784.358-1.081a2.234,2.234,0,0,0-1.714-1.7" transform="translate(-275.437 -39.215)" fill="#fff"/>
      <path id="パス_34215" data-name="パス 34215" d="M464.97,64.825a28.265,28.265,0,0,1-5.416,5.6c-.224.154-.257.028-.262-.094-.059-1.271.081-6.142.137-6.808s.4-.678.4-1.1-.351-.682-.649-1.07a1.717,1.717,0,0,0-1-.711.53.53,0,0,0-.494.446c0,.343.681.328.7,1.617.019,1.2-.091,6.781-.111,7.633a11.6,11.6,0,0,1-.2,1.249,3.315,3.315,0,0,0,.3,1.036c.171.441.368.886.725.883.48,0,.315-.617.811-1.135a27.726,27.726,0,0,0,5.37-7.231c.22-.482-.2-.5-.309-.319" transform="translate(-283.142 -37.652)" fill="#fff"/>
      <path id="パス_34216" data-name="パス 34216" d="M487.237,57.12a35.77,35.77,0,0,1,4.664-.794.831.831,0,0,0,.826-.687c0-.577-1.054-.983-1.457-.98-.357,0-.375.291-.935.43a31.139,31.139,0,0,1-3.523.756c-.833.006-.935-.535-1.313-.532a.257.257,0,0,0-.246.284c0,.375.862,1.73,1.983,1.523" transform="translate(-300.196 -33.935)" fill="#fff"/>
      <path id="パス_34217" data-name="パス 34217" d="M491.751,66.763a1.5,1.5,0,0,0-1.388-1.273c-.4,0-.491.48-1.286.525a34.736,34.736,0,0,0-6.454,1.04,1.206,1.206,0,0,1-1.14-.143c-.284-.23-.5-.759-.679-.67-.114.054-.146.287-.142.7,0,.5.227.6.526,1.028.281.4.525.863.955.86.379,0,.667-.384,1.449-.6.54-.149,1.669-.381,1.87-.408a.271.271,0,0,1,.344.188,1.8,1.8,0,0,1,.257.973,22.455,22.455,0,0,1-3.562,9.4c-.159.2-.132.548.328.205,2.385-1.773,4.244-7.145,4.632-9.165.081-.425-.535-1.306-.691-1.516-.124-.167.026-.276.3-.31a19.588,19.588,0,0,1,3.091-.118c.405.022.519.135.912.132s.681-.32.676-.847" transform="translate(-297.354 -40.66)" fill="#fff"/>
      <path id="パス_34218" data-name="パス 34218" d="M514.412,61.892c-.21,0-.321.1-.32.251,0,.229.291.308.294.659.006.95-3.687,7.465-5.414,9.061-.067.062-.167.2-.117.262.059.082.167.039.288-.035a13.441,13.441,0,0,0,3.746-3.738c.117-.186.259-.091.29.243a29.38,29.38,0,0,1,.113,3.085,17.925,17.925,0,0,1-.139,2.91c-.1.621.139,1.889.668,1.885.247,0,.419-.236.416-.622,0-.543-.024-3.223-.031-4.23s.089-1.753.083-2.573a2.292,2.292,0,0,0-.662-1.47c-.114-.13-.059-.254.04-.431.161-.288.937-1.678,1.314-2.441.2-.4.838-.269.834-.8,0-.563-.867-2.023-1.4-2.019" transform="translate(-314.787 -38.426)" fill="#fff"/>
      <path id="パス_34219" data-name="パス 34219" d="M570.248,55.808c-.3,0-.326.253-.715.378a8.085,8.085,0,0,1-1.618.391c-.431,0-.546-.081-.441-.363a1.964,1.964,0,0,0,.227-.737c0-.7-1.078-1.926-1.627-1.922a.522.522,0,0,0-.581.472c0,.421.6.433.606,1.244s-2.139,4.736-3.86,6.472c-.453.456-.079.673.3.4a18.774,18.774,0,0,0,3.97-4.6c.4-.551.7.216,1.633.209a5.739,5.739,0,0,0,1.054-.085c.137-.042.388-.1.264.247-1.581,4.456-4.443,9.328-7.343,12.053-.63.59-.044.757.267.539,3.892-2.715,6.582-7.7,8.081-11.569.18-.467.207-.365.681-.64s.39-1.04.122-1.426-.723-1.072-1.02-1.07" transform="translate(-347.573 -33.249)" fill="#fff"/>
      <path id="パス_34220" data-name="パス 34220" d="M156.652,69.3c.289,0,.374-.4.372-.638,0-.517-.2-.726-.751-1.076-.335-.214-.482-.234-.375-.449s.483-.864.667-1.222c.114-.221.185-.14.365-.228s.183-.273.061-.459a3.927,3.927,0,0,0-.6-.612c-.182-.161-.246-.013-.274.066-.015.042-.05.158-.106.295s-.126.193-.23.194-.151-.071-.152-.251a10.012,10.012,0,0,1,0-1.152c.028-.119.182-.207.332-.386s.013-.325-.139-.387-.634-.137-.788-.215c-.113-.056-.354-.112-.351.237a4.511,4.511,0,0,1,.146,1.093c0,.368.013.724.014.854s-.055.213-.2.215-.424,0-.674-.017c-.211-.014-.24.073-.221.141a1.5,1.5,0,0,0,.184.306c.074.113.175-.074.386-.075l1.194-.007c.289,0,.256.11.176.31a22.724,22.724,0,0,1-2.193,3.973c-.214.26-.088.4.184.166a12.007,12.007,0,0,0,1.118-1.2c.085-.124.154-.059.155.053,0,.2.032,1.492.025,2.014s-.047,1.613-.123,2.418c-.071.748.915.445.911-.053,0-.465-.075-2.256-.081-3.069-.005-.708,0-2.1,0-2.189,0-.166.091-.12.185.006.277.371.485,1.349.775,1.347" transform="translate(-94.894 -38.954)" fill="#fff"/>
      <path id="パス_34221" data-name="パス 34221" d="M140.606,66.615a6.236,6.236,0,0,1-3.711-3.293c-.034-.1.035-.129.086-.166.127-.095.132-.274-.053-.387s-.719-.408-.924-.538c-.246-.157-.257-.014-.3.346a13.127,13.127,0,0,1-3.374,5.485c-.219.221-.027.2.133.088a16.251,16.251,0,0,0,4.008-4.639c.1-.155.172-.09.278.2a9.386,9.386,0,0,0,2.771,3.9c.085.06.167.025.277-.078a8.062,8.062,0,0,1,.778-.674c.11-.071.2-.19.03-.242" transform="translate(-81.804 -38.597)" fill="#fff"/>
      <path id="パス_34222" data-name="パス 34222" d="M137.628,74.133a4.851,4.851,0,0,1,1.006-.065c.46,0,2.012,0,2.409,0a.21.21,0,0,0,.232-.221c0-.148-.358-.529-.6-.827-.086-.105-.17-.1-.269.045-.14.2-.222.665-.512.667-.156,0-2.09,0-2.345,0s-.618-.262-.538.013.159.463.619.389" transform="translate(-84.752 -45.29)" fill="#fff"/>
      <path id="パス_34223" data-name="パス 34223" d="M139.322,79.957a.141.141,0,0,0-.17.225,3.271,3.271,0,0,1,.7,1.055c.04.089,0,.144-.059.155-.506.084-1.631.164-2.451.2-.1.005-.167-.021-.116-.113a26.767,26.767,0,0,0,1.2-2.4.3.3,0,0,1,.289-.189c.909-.007,1.8,0,2,0,.149,0,.233-.064.232-.2s-.451-.644-.694-.941c-.086-.106-.171-.1-.269.044-.139.2-.223.786-.514.787-.156,0-3.683,0-3.938,0s-.618-.255-.538.019.153.292.619.289c.5,0,1.268,0,1.5,0a.164.164,0,0,1,.176.191,8.306,8.306,0,0,1-.5,2.349c-.074.2-.191.194-.376.182a7.45,7.45,0,0,1-1.225-.193c-.149-.047-.212.019-.115.279.064.17.395,1.046.453,1.151.072.132.159.185.319-.017a.718.718,0,0,1,.45-.228c.177-.05,2.678-.632,3.623-.875.087-.023.166-.01.219.124.1.264.285,1.008.648,1.006.312,0,.471-.36.462-.7-.011-.41-.5-1.395-1.933-2.209" transform="translate(-83.51 -48.232)" fill="#fff"/>
      <path id="パス_34224" data-name="パス 34224" d="M127.157,64.246c.189.273.275.584.552.583.156,0,.368-.215.366-.561s-.357-.786-1.087-.819c-.276-.013-.334.112-.218.3.064.1.236.28.387.5" transform="translate(-78.389 -39.392)" fill="#fff"/>
      <path id="パス_34225" data-name="パス 34225" d="M120.723,69.839c0-.168-.119-.111-.151.011a11.07,11.07,0,0,1-.508,1.346c-.167.305-.31.119-.367.025a14.9,14.9,0,0,1-1.69-5.506c0-.176.071-.173.259-.175.153,0,1.666,0,1.99,0,.3,0,.427-.263.27-.46a4.7,4.7,0,0,1-.551-.666c-.1-.161-.3-.229-.374.057s-.127.694-.469.7c-.093,0-.817,0-.953,0-.156,0-.19-.1-.2-.247a9.24,9.24,0,0,1-.018-1.407c.075-.34.286-.319.285-.513s-.173-.224-.3-.245-.543-.107-.707-.162c-.191-.062-.328.062-.24.321a14.687,14.687,0,0,1,.194,2.022c.011.242-.093.229-.293.231-1.132.007-2.152,0-2.152,0a9.995,9.995,0,0,1-1.034-.029c-.416-.031-.438.018-.379.178.037.1.119.312.329.311.321,0,.6-.083,1.367-.088.223,0,1.749,0,1.906,0,.193,0,.327-.019.339.224.144,2.8,1.782,7.58,3.2,7.57a.451.451,0,0,0,.4-.478c0-.286-.234-.462-.238-1s.081-1.844.079-2.013" transform="translate(-70.099 -38.853)" fill="#fff"/>
      <path id="パス_34226" data-name="パス 34226" d="M242.482,59.58c.095.36.39.215.489-.033a1.056,1.056,0,0,1,.441-.563c.46-.286,1.734-.875,2.279-1.219.17-.108.457-.169.459.13,0,.546.19.86.521.857.291,0,.5-.475.494-.918-.007-.922-1.082-1.823-1.354-2s-.3-.044-.188.142a4.534,4.534,0,0,1,.3.772c.05.166.064.4-.152.5a4.391,4.391,0,0,1-1.162.265c-.284.035-.293-.045-.293-.178,0,0-.009-2.111-.018-2.342-.008-.214.065-.324.262-.362.625-.121,2.182-.184,2.378-.2s.46-.166.237-.421-.6-.723-.875-1.051-.2-.011-.331.137a4.952,4.952,0,0,1-1.529,1.135c-.351.167-.865-.253-1.015-.334,0,0-.369-.215-.286.093a10.484,10.484,0,0,1,.189,1.84c0,.582-.02,1.453-.019,1.662a.271.271,0,0,1-.3.275,2.628,2.628,0,0,1-.751-.041c-.374-.118-.371.036-.282.282s.458,1.412.5,1.572" transform="translate(-149.668 -32.791)" fill="#fff"/>
      <path id="パス_34227" data-name="パス 34227" d="M254.074,61.418c-.169.124-.122.294.117.2,2.475-.932,3.066-1.949,3.558-4.478.04-.206.121-.193.279-.194s1.011,0,1.209,0,.258.082.242.344a6.519,6.519,0,0,1-.6,2.245c-.243.432-.638.3-1.27.107-.169-.052-.416-.041-.223.16A2.5,2.5,0,0,1,258,60.818c.107.337.095.785.4.783,1.529-.01,1.978-3.1,2.056-3.49s.116-.471.312-.641c.274-.24.313-.577.137-.737a9.206,9.206,0,0,1-.826-.921c-.129-.163-.192-.125-.27-.017a3.118,3.118,0,0,0-.228.287.376.376,0,0,1-.367.193c-.256,0-2.267,0-2.6,0a2.036,2.036,0,0,1-.749-.094c-.285-.086-.339,0-.284.161a4.227,4.227,0,0,0,.172.462c.081.176.17.147.286.145h.365c.08,0,.214.02.2.321-.1,1.842-.887,2.942-2.524,4.148" transform="translate(-157.117 -34.582)" fill="#fff"/>
      <path id="パス_34228" data-name="パス 34228" d="M246.378,90.276c-.2-.264-.279-.166-.336.067a3.643,3.643,0,0,1-1.447,1.694c-.781.565-1.141.821-1.787,1.214-.233.141-.284.364.1.307a12.405,12.405,0,0,0,3.751-1.377,1.021,1.021,0,0,1,.551-.135.355.355,0,0,0,.248-.587,10.783,10.783,0,0,1-1.085-1.183" transform="translate(-150.097 -55.95)" fill="#fff"/>
      <path id="パス_34229" data-name="パス 34229" d="M262.584,92.431a16.4,16.4,0,0,0-2.727-.98c-.281-.109-.358.147-.123.295a11.949,11.949,0,0,1,3.007,2.936c.439.6.97.49,1.074-.324s-.808-1.677-1.23-1.927" transform="translate(-160.595 -56.761)" fill="#fff"/>
      <path id="パス_34230" data-name="パス 34230" d="M92.913,67.458c.077,0,.793,0,1.011,0s.293.074.252.26a15.914,15.914,0,0,1-1.945,4.222c-.2.267.061.19.2.076a10.638,10.638,0,0,0,2.116-2.891c.039-.1.135-.094.14.078,0,.138.021,2.178-.052,3.1-.061.772.016.992.365.985a.565.565,0,0,0,.524-.65c-.047-.82-.114-3.61-.115-3.749s.074-.179.128-.021A11.368,11.368,0,0,0,97.173,71.7a.141.141,0,0,0,.215,0,7.168,7.168,0,0,1,.829-.621c.137-.08.06-.212-.028-.257a6.253,6.253,0,0,1-2.614-3.164c-.056-.169.127-.193.329-.194.251,0,1.438,0,1.631,0s.379-.051.378-.195c0-.217-.534-.648-.679-.79s-.226-.042-.287.082c-.1.194-.228.541-.531.543s-.662,0-.807,0-.209-.082-.215-.255c0-.145-.022-1.3-.024-1.416s.061-.195.161-.2,1.278,0,1.416,0c.327,0,.372-.2.254-.353s-.323-.44-.472-.617-.219-.1-.3.033c-.2.352-.262.6-.494.6l-.329,0c-.185,0-.241-.051-.242-.218s-.024-1.387-.026-1.6c0-.334.378-.331.378-.564s-.487-.3-.909-.483c-.093-.041-.337-.1-.276.176s.143,2.353.144,2.5-.038.195-.253.2-.223.006-.405.008c-.068,0-.1-.037-.064-.131.124-.333.237-.681.278-.751.054-.093.193-.211-.018-.31a5.028,5.028,0,0,0-.633-.259c-.221-.067-.3-.041-.3.241a6.746,6.746,0,0,1-.108,1.241,7.382,7.382,0,0,1-.492,2.028.07.07,0,0,1-.125.023,2.743,2.743,0,0,0-.711-.535.079.079,0,0,1-.054-.083c0-.16.013-.6.012-.695,0-.119.038-.254.238-.256h.319c.268,0,.618.01.676-.182.049-.164-.291-.512-.549-.765-.105-.1-.209-.152-.283,0-.113.232-.24.586-.349.587-.014,0-.048,0-.048-.064s-.013-1.6-.016-1.944.272-.374.271-.542c0-.22-.487-.246-.909-.429-.093-.04-.384-.088-.276.176a17.857,17.857,0,0,1,.145,2.57c0,.11-.008.241-.2.242H90.3a.523.523,0,0,1-.235-.042c-.18-.076-.263-.021-.21.165.047.164,0,.3.376.258.119-.013.338-.02.593-.025.135,0,.207.06.209.2a21.35,21.35,0,0,1-1.373,5.059c-.077.177.008.259.144.089.085-.107.977-1.745,1.089-2.007.048-.11.163-.164.164.028,0,.256.012,1.637.013,1.808,0,.495-.141,1.76-.138,2.182,0,.306.093.486.338.484a.557.557,0,0,0,.535-.434c.09-.448-.024-2.132-.032-3.267,0-.464.018-2.342.018-2.456s.051-.179.127-.085c.213.261.278,1.26.562,1.257.225,0,.368-.356.366-.661a.972.972,0,0,0-.013-.115c0-.02.007-.058.084-.058m1.75-.614c0,.2-.081.253-.254.254H92.993c-.127,0-.131-.039-.08-.136.166-.315.674-1.265.831-1.628.023-.055.06-.1.106-.1.241,0,.529,0,.657,0s.168.1.169.234-.012,1.217-.013,1.379" transform="translate(-55.446 -38.49)" fill="#fff"/>
      <path id="パス_34231" data-name="パス 34231" d="M117.131,78.05c-.134.036-1.316.381-1.438.417-.158.045-.217-.031-.221-.235s-.017-2.477-.018-2.6.036-.252.207-.253l1.106-.008c.29,0,.4-.155.25-.37a5.916,5.916,0,0,0-.642-.724c-.138-.119-.192-.063-.23.01-.116.219-.261.709-.573.711-.279,0-1.484,0-1.686,0a1.281,1.281,0,0,1-.623-.083c-.138-.068-.178-.011-.177.085,0,.113.039.163.2.374.1.134.268.029.69.027.1,0,.287-.009.486-.011a.233.233,0,0,1,.258.253c0,.121.01,1.428.01,1.428s.01,1.334.011,1.448a.241.241,0,0,1-.2.26c-.149.041-.578.153-.781.2-.088.019-.369.124-.531.044-.268-.135-.455-.22-.377.183a7.449,7.449,0,0,0,.484,1.166c.093.207.171.167.348-.029A1.152,1.152,0,0,1,114.1,80c.829-.376,3.01-1.624,3.157-1.724.049-.033.124-.093.092-.181-.018-.049-.078-.078-.215-.041" transform="translate(-69.802 -46.075)" fill="#fff"/>
      <path id="パス_34232" data-name="パス 34232" d="M224.86,63.507c-3.126-.3-5.629-2.272-5.64-3.67,0-.093.05-.126.167-.127h1.836c.12,0,.235.009.236.175s0,.261,0,.338c0,.366.017.765.374.762.391,0,.867-.4.861-1.225s-.1-1.186-.1-2.052-.011-1.564-.015-2.029.365-.535.52-.646.277-.246.175-.412a12.107,12.107,0,0,0-.989-1.046c-.363-.377-.4-.115-.447-.008-.13.332-.307.545-.652.547-.156,0-5.287,0-5.409,0a.589.589,0,0,1-.263-.047c-.31-.178-.758-.43-1.054-.593-.137-.074-.252-.059-.23.175a28.4,28.4,0,0,1,.125,3.23,30.443,30.443,0,0,1-.091,3.376c-.026.46.235.516.452.514.2,0,.617.032.834-.875.016-.069.038-.183.175-.184h1.413c.13,0,.264.054.264.188.006.793-3.174,4.6-5.124,5.757-.132.078-.248.263.038.173a13.506,13.506,0,0,0,3.7-2.11.163.163,0,0,1,.293.077,6.838,6.838,0,0,1,.065,1.656c-.127,2-.522,3.812-2.712,4.688-.266.106-.36.32.05.281,1.988-.195,3.856-1.773,3.974-5.632a.711.711,0,0,1,.175-.477c.147-.187.263-.529-.087-.667-.278-.11-.831-.328-.947-.383s-.132-.141-.041-.261a14.336,14.336,0,0,0,1.819-2.331c.075-.119.215-.245.4.154a10.12,10.12,0,0,0,1.892,2.65c.1.094.051.166-.08.126s-.857-.285-1.1-.384-.313.072-.3.243a8.411,8.411,0,0,1,.2,1.261c0,.493.044,1.608.051,2.563a21.99,21.99,0,0,1-.06,2.891c-.076.586.142.785.508.783a.788.788,0,0,0,.781-.8c.066-1.073-.1-2.3-.108-3.558,0-.417.014-1.316.026-1.837,0-.209.058-.259.291-.433.124-.093.221-.2.181-.359s.089-.093.17.006a7.558,7.558,0,0,0,2.066,1.159c.284.092.318-.064.421-.221a2.62,2.62,0,0,1,1.064-1.078c.332-.18.114-.309-.149-.334m-9.348-8.591c0-.174.092-.253.214-.254s1.851-.027,1.955-.027c.154,0,.241.088.242.263,0,.192.009,1.189.01,1.36s-.076.244-.2.244h-1.964a.22.22,0,0,1-.246-.225c0-.143-.008-1.186-.01-1.36m.287,4.231c-.142,0-.256-.044-.257-.233s-.011-1.453-.012-1.639a.261.261,0,0,1,.254-.277h1.962a.194.194,0,0,1,.2.212c0,.147.011,1.611.012,1.734,0,.17-.1.2-.23.2-.1,0-1.784,0-1.927,0m3.4-4.257c0-.187.084-.253.214-.254s1.7,0,1.821,0c.145,0,.241.049.242.237s.008,1.189.01,1.36-.091.269-.209.269c-.086,0-1.767,0-1.84,0-.127,0-.227-.064-.228-.253s-.009-1.174-.01-1.36m.012,2.353c0-.158.08-.245.2-.245h1.829c.129,0,.256.019.257.234s-.014,1.38-.012,1.613-.143.3-.23.3h-1.781a.233.233,0,0,1-.247-.255c0-.171-.011-1.492-.011-1.649" transform="translate(-131.234 -33.14)" fill="#fff"/>
      <path id="パス_34233" data-name="パス 34233" d="M194.287,59.869a10.791,10.791,0,0,0-.9-1.109c-.18-.182-.287-.194-.415.044-.213.4-.3,1.161-.82,1.165-.045,0-.675,0-.833,0s-.251-.056-.252-.23c0-.2.055-2.929.052-3.381-.005-.728.537-.731.535-1.04,0-.385-.536-.348-1.026-.546a6.185,6.185,0,0,0-.682-.234c-.32-.08-.429-.006-.343.391a20.773,20.773,0,0,1,.2,3.146c0,.639.008,1.462.009,1.622a.236.236,0,0,1-.251.273c-.18,0-1.074,0-1.253,0s-.254-.066-.253-.218.017-3.189.016-3.252c0-.18-.008-.3.323-.654s.117-.528-.058-.625-.907-.436-1.157-.524-.527-.158-.468.245c.127.866.164,4.668.164,4.777a.239.239,0,0,1-.252.251c-.187,0-1.3,0-1.494,0s-.254-.04-.255-.236.014-3.245.014-3.31a.708.708,0,0,1,.253-.62c.325-.362.117-.529-.058-.625s-.837-.394-1.088-.483-.471-.162-.468.245c0,0,.125,1.17.132,2.072,0,.443.015,2.591.016,2.728s-.047.226-.251.228-.755,0-1.055,0a3.752,3.752,0,0,1-.748-.045c-.109-.035-.407-.21-.347.134a1.72,1.72,0,0,0,.181.524c.1.213.3,0,.633,0,.036,0,1.213,0,1.378,0s.216.141.217.268.01,1.732.01,1.732-.039,7.616-.044,7.961.061.8.554.8a.818.818,0,0,0,.887-.811c.008-.1.071-.153.192-.154,1.7-.013,7.734,0,7.93,0,.4,0,.751-.281.474-.686a9.16,9.16,0,0,0-1-1.152c-.158-.181-.3-.107-.35,0-.087.174-.386.709-.513.949s-.189.329-.409.33-4.809-.011-6.175,0c-.241,0-.259-.239-.26-.556,0-.556-.08-3.66-.1-6.719,0-.639,0-1.543,0-1.691s.045-.268.214-.27,1.334,0,1.53,0,.252.122.253.2,0,1.621,0,1.8c.01,1.372-.074,3.722-.064,5.07.01,1.3,1.411,1.151,1.4-.153,0-.187-.019-.724-.02-.82a.171.171,0,0,1,.171-.192h1.345c.109,0,.157.108.158.206s0,.3,0,.445c0,.472.169.721.479.718.24,0,.861-.231.858-.651,0-.232-.14-6.362-.14-6.456s.048-.168.25-.169,1.871.022,2.536,0c.432-.015.735-.271.428-.709m-6.118,5.818c0-.1-.1-2.659-.1-3.147,0-.586-.006-1.658-.007-1.754s.068-.206.254-.207,1.158,0,1.3,0,.216.067.216.173.028,4.787.034,4.909-.061.232-.168.232h-1.374c-.126,0-.154-.107-.154-.206" transform="translate(-112.142 -33.843)" fill="#fff"/>
      <path id="パス_34234" data-name="パス 34234" d="M166.076,73.135a6.026,6.026,0,0,0-.645-.7c-.141-.138-.2-.184-.342.047-.328.536-.282.656-.591.659h-.461c-.163,0-.224-.11-.225-.257s-.035-4.637-.035-4.763a.19.19,0,0,1,.182-.214c.108,0,1,0,1.225,0,.327,0,.419-.13.294-.36a5.9,5.9,0,0,0-.645-.7c-.141-.138-.223-.234-.317.019-.2.54-.2.646-.5.649-.176,0-.243-.041-.244-.259s-.018-2.181-.02-2.565a.781.781,0,0,1,.311-.633c.205-.2.1-.378-.114-.433-.338-.092-.751-.193-.887-.247-.235-.095-.27.035-.242.173a4.1,4.1,0,0,1,.109.894c.005.755.019,2.69.019,2.819a.22.22,0,0,1-.246.253c-.2,0-.428,0-.49,0a.927.927,0,0,1-.386-.056c-.211-.1-.344,0-.205.3.116.254.314.149.571.147h.579a.2.2,0,0,1,.185.224c0,.153.033,4.635.034,4.759s-.051.249-.222.251H161.48a.938.938,0,0,1-.386-.049c-.211-.1-.344-.038-.206.268.116.255.314.153.571.151s3.751,0,4.322,0c.327,0,.419-.144.294-.374" transform="translate(-99.496 -39.326)" fill="#fff"/>
    </g>
  </g>
</svg>
