<svg xmlns="http://www.w3.org/2000/svg" xmlns:xlink="http://www.w3.org/1999/xlink" width="25" height="144" viewBox="0 0 25 144">
  <defs>
    <clipPath id="clip-path">
      <rect width="2" height="131" fill="none"/>
    </clipPath>
  </defs>
  <g id="グループ_40143" data-name="グループ 40143" transform="translate(-762 -11382)">
    <g id="リピートグリッド_2" data-name="リピートグリッド 2" transform="translate(774 11382)" clip-path="url(#clip-path)">
      <g transform="translate(-680 -11382)">
        <g id="長方形_601" data-name="長方形 601" transform="translate(680 11382)" fill="#fff" stroke="#000" stroke-width="1">
          <rect width="2" height="5" stroke="none"/>
          <rect x="0.5" y="0.5" width="1" height="4" fill="none"/>
        </g>
      </g>
      <g transform="translate(-680 -11374)">
        <g id="長方形_601-2" data-name="長方形 601" transform="translate(680 11382)" fill="#fff" stroke="#000" stroke-width="1">
          <rect width="2" height="5" stroke="none"/>
          <rect x="0.5" y="0.5" width="1" height="4" fill="none"/>
        </g>
      </g>
      <g transform="translate(-680 -11366)">
        <g id="長方形_601-3" data-name="長方形 601" transform="translate(680 11382)" fill="#fff" stroke="#000" stroke-width="1">
          <rect width="2" height="5" stroke="none"/>
          <rect x="0.5" y="0.5" width="1" height="4" fill="none"/>
        </g>
      </g>
      <g transform="translate(-680 -11358)">
        <g id="長方形_601-4" data-name="長方形 601" transform="translate(680 11382)" fill="#fff" stroke="#000" stroke-width="1">
          <rect width="2" height="5" stroke="none"/>
          <rect x="0.5" y="0.5" width="1" height="4" fill="none"/>
        </g>
      </g>
      <g transform="translate(-680 -11350)">
        <g id="長方形_601-5" data-name="長方形 601" transform="translate(680 11382)" fill="#fff" stroke="#000" stroke-width="1">
          <rect width="2" height="5" stroke="none"/>
          <rect x="0.5" y="0.5" width="1" height="4" fill="none"/>
        </g>
      </g>
      <g transform="translate(-680 -11342)">
        <g id="長方形_601-6" data-name="長方形 601" transform="translate(680 11382)" fill="#fff" stroke="#000" stroke-width="1">
          <rect width="2" height="5" stroke="none"/>
          <rect x="0.5" y="0.5" width="1" height="4" fill="none"/>
        </g>
      </g>
      <g transform="translate(-680 -11334)">
        <g id="長方形_601-7" data-name="長方形 601" transform="translate(680 11382)" fill="#fff" stroke="#000" stroke-width="1">
          <rect width="2" height="5" stroke="none"/>
          <rect x="0.5" y="0.5" width="1" height="4" fill="none"/>
        </g>
      </g>
      <g transform="translate(-680 -11326)">
        <g id="長方形_601-8" data-name="長方形 601" transform="translate(680 11382)" fill="#fff" stroke="#000" stroke-width="1">
          <rect width="2" height="5" stroke="none"/>
          <rect x="0.5" y="0.5" width="1" height="4" fill="none"/>
        </g>
      </g>
      <g transform="translate(-680 -11318)">
        <g id="長方形_601-9" data-name="長方形 601" transform="translate(680 11382)" fill="#fff" stroke="#000" stroke-width="1">
          <rect width="2" height="5" stroke="none"/>
          <rect x="0.5" y="0.5" width="1" height="4" fill="none"/>
        </g>
      </g>
      <g transform="translate(-680 -11310)">
        <g id="長方形_601-10" data-name="長方形 601" transform="translate(680 11382)" fill="#fff" stroke="#000" stroke-width="1">
          <rect width="2" height="5" stroke="none"/>
          <rect x="0.5" y="0.5" width="1" height="4" fill="none"/>
        </g>
      </g>
      <g transform="translate(-680 -11302)">
        <g id="長方形_601-11" data-name="長方形 601" transform="translate(680 11382)" fill="#fff" stroke="#000" stroke-width="1">
          <rect width="2" height="5" stroke="none"/>
          <rect x="0.5" y="0.5" width="1" height="4" fill="none"/>
        </g>
      </g>
      <g transform="translate(-680 -11294)">
        <g id="長方形_601-12" data-name="長方形 601" transform="translate(680 11382)" fill="#fff" stroke="#000" stroke-width="1">
          <rect width="2" height="5" stroke="none"/>
          <rect x="0.5" y="0.5" width="1" height="4" fill="none"/>
        </g>
      </g>
      <g transform="translate(-680 -11286)">
        <g id="長方形_601-13" data-name="長方形 601" transform="translate(680 11382)" fill="#fff" stroke="#000" stroke-width="1">
          <rect width="2" height="5" stroke="none"/>
          <rect x="0.5" y="0.5" width="1" height="4" fill="none"/>
        </g>
      </g>
      <g transform="translate(-680 -11278)">
        <g id="長方形_601-14" data-name="長方形 601" transform="translate(680 11382)" fill="#fff" stroke="#000" stroke-width="1">
          <rect width="2" height="5" stroke="none"/>
          <rect x="0.5" y="0.5" width="1" height="4" fill="none"/>
        </g>
      </g>
      <g transform="translate(-680 -11270)">
        <g id="長方形_601-15" data-name="長方形 601" transform="translate(680 11382)" fill="#fff" stroke="#000" stroke-width="1">
          <rect width="2" height="5" stroke="none"/>
          <rect x="0.5" y="0.5" width="1" height="4" fill="none"/>
        </g>
      </g>
      <g transform="translate(-680 -11262)">
        <g id="長方形_601-16" data-name="長方形 601" transform="translate(680 11382)" fill="#fff" stroke="#000" stroke-width="1">
          <rect width="2" height="5" stroke="none"/>
          <rect x="0.5" y="0.5" width="1" height="4" fill="none"/>
        </g>
      </g>
      <g transform="translate(-680 -11254)">
        <g id="長方形_601-17" data-name="長方形 601" transform="translate(680 11382)" fill="#fff" stroke="#000" stroke-width="1">
          <rect width="2" height="5" stroke="none"/>
          <rect x="0.5" y="0.5" width="1" height="4" fill="none"/>
        </g>
      </g>
    </g>
    <path id="多角形_6" data-name="多角形 6" d="M12.5,0,25,22H0Z" transform="translate(787 11526) rotate(180)" fill="#222"/>
  </g>
</svg>
