<svg xmlns="http://www.w3.org/2000/svg" xmlns:xlink="http://www.w3.org/1999/xlink" width="1006" height="231" viewBox="0 0 1006 231">
  <defs>
    <clipPath id="clip-path">
      <rect id="長方形_695" data-name="長方形 695" width="1006" height="231" transform="translate(194 2015)" fill="#fff" stroke="#707070" stroke-width="1"/>
    </clipPath>
    <filter id="長方形_660" x="-5" y="-7" width="393" height="249" filterUnits="userSpaceOnUse">
      <feOffset dx="5" dy="5" input="SourceAlpha"/>
      <feGaussianBlur stdDeviation="8" result="blur"/>
      <feFlood flood-opacity="0.2"/>
      <feComposite operator="in" in2="blur"/>
      <feComposite in="SourceGraphic"/>
    </filter>
    <clipPath id="clip-path-2">
      <rect id="長方形_448" data-name="長方形 448" width="247.286" height="46.981" fill="none"/>
    </clipPath>
    <filter id="長方形_661" x="617" y="-7" width="256" height="249" filterUnits="userSpaceOnUse">
      <feOffset dx="5" dy="5" input="SourceAlpha"/>
      <feGaussianBlur stdDeviation="8" result="blur-2"/>
      <feFlood flood-opacity="0.2"/>
      <feComposite operator="in" in2="blur-2"/>
      <feComposite in="SourceGraphic"/>
    </filter>
  </defs>
  <g id="マスクグループ_364" data-name="マスクグループ 364" transform="translate(-194 -2015)" clip-path="url(#clip-path)">
    <g id="グループ_40433" data-name="グループ 40433">
      <g id="グループ_40428" data-name="グループ 40428">
        <g id="グループ_40427" data-name="グループ 40427">
          <g transform="matrix(1, 0, 0, 1, 194, 2015)" filter="url(#長方形_660)">
            <g id="長方形_660-2" data-name="長方形 660" transform="translate(14 12)" fill="#fff" stroke="#222" stroke-width="2">
              <rect width="345" height="201" rx="8" stroke="none"/>
              <rect x="1" y="1" width="343" height="199" rx="7" fill="none"/>
            </g>
          </g>
          <text id="_立地動向調査_テナント誘致_契約" data-name="・立地動向調査
・テナント誘致/契約" transform="translate(244 2170)" fill="#222" font-size="14" font-family="YuGo-Medium, YuGothic" font-weight="500" letter-spacing="0.12em"><tspan x="0" y="0">・立地動向調査</tspan><tspan x="0" y="24">・テナント誘致/契約</tspan></text>
          <g id="グループ_40287" data-name="グループ 40287" transform="translate(256.527 2055)">
            <path id="パス_34184" data-name="パス 34184" d="M20.447,39.36l2.271,1.157-9.845,5.016L3.029,40.517,5.3,39.36l7.573,3.858Zm-5.3-2.7,2.273,1.156-4.544,2.316L8.33,37.815,10.6,36.659l2.271,1.156ZM3.029,35.114,5.3,33.957l2.272,1.157L5.3,36.272Zm15.146,0,2.272-1.157,2.271,1.157-2.271,1.158Zm-9.845-2.7L10.6,31.255l2.271,1.159L10.6,33.57Zm6.815-1.159,2.273,1.159L15.145,33.57l-2.271-1.156ZM3.029,29.711,5.3,28.556l2.272,1.156L5.3,30.87Zm15.146,0,2.272-1.156,2.271,1.156L20.447,30.87Zm-9.845-2.7,2.273-1.16,2.271,1.16L10.6,28.167Zm6.815-1.16,2.273,1.16-2.273,1.154-2.271-1.154ZM3.029,24.31,5.3,23.153,7.573,24.31,5.3,25.469Zm15.146,0,2.272-1.157,2.271,1.157-2.271,1.158ZM8.33,21.61,10.6,20.453l2.271,1.157L10.6,22.768Zm6.815-1.157,2.273,1.157-2.273,1.158L12.874,21.61ZM3.029,18.909,5.3,17.75l2.272,1.159L5.3,20.067Zm15.146,0,2.272-1.159,2.271,1.159-2.271,1.157Zm-9.845-2.7L10.6,15.051l2.271,1.158L10.6,17.365Zm6.815-1.158,2.273,1.158-2.273,1.156-2.271-1.156ZM3.029,13.507,5.3,12.349l2.272,1.157L5.3,14.664Zm15.146,0,2.272-1.157,2.271,1.157-2.271,1.157Zm-9.845-2.7,4.544-2.315,4.544,2.315-2.273,1.157-2.271-1.157L10.6,11.963Zm-5.3-2.7,9.845-5.016L22.718,8.1,20.447,9.263,12.874,5.4,5.3,9.263ZM12.874,0,0,6.56V9.648l2.272,1.157L0,11.963v3.088l2.272,1.158L0,17.365v3.089L2.272,21.61,0,22.768v3.085l2.272,1.16L0,28.167v3.088l2.272,1.159L0,33.57v3.09l2.272,1.156L0,38.973v3.088l12.874,6.56,12.874-6.56V38.973l-2.271-1.157,2.271-1.156V33.57l-2.271-1.156,2.271-1.159V28.167l-2.271-1.154,2.271-1.16V22.768L23.476,21.61l2.271-1.157V17.365l-2.271-1.156,2.271-1.158V11.963l-2.271-1.157,2.271-1.157V6.56Z" transform="translate(5.484)" fill="#4054a0"/>
            <g id="グループ_323" data-name="グループ 323">
              <g id="グループ_322" data-name="グループ 322" clip-path="url(#clip-path-2)">
                <path id="パス_34185" data-name="パス 34185" d="M92.651,18.529a.715.715,0,0,0,.668.347,3.327,3.327,0,0,0,1.613-.356.571.571,0,0,1,.3-.142.611.611,0,0,1,.378.159.454.454,0,0,1,.188.321.226.226,0,0,1-.15.224,3.537,3.537,0,0,0-1.233,1,4.488,4.488,0,0,0-1.076,2.856,1.656,1.656,0,0,0,1.668,1.824A2.2,2.2,0,0,0,97.06,23.52a4.756,4.756,0,0,0,.45-2.237,11,11,0,0,0-.205-2.5,1.173,1.173,0,0,1-.037-.227c0-.121.11-.214.282-.214a.434.434,0,0,1,.3.087,1.019,1.019,0,0,1,.14.5,5.458,5.458,0,0,0,.583,1.639,5.618,5.618,0,0,0,1.037,1.369,1.2,1.2,0,0,1,.369.746c0,.282-.134.443-.348.443-.151,0-.36-.16-.607-.565a10.953,10.953,0,0,1-.628-1.194,11.921,11.921,0,0,1-.583-1.631l-.057.019a17.875,17.875,0,0,1,.159,2.172,3.975,3.975,0,0,1-.837,2.723,2.576,2.576,0,0,1-2.063.848,2.214,2.214,0,0,1-2.223-2.484,5.626,5.626,0,0,1,1.667-3.775,4.091,4.091,0,0,1-1,.14.971.971,0,0,1-1.074-.692Z" transform="translate(-53.884 -10.742)" fill="#8c7a70"/>
                <path id="パス_34186" data-name="パス 34186" d="M125.431,19.849c-.056-.449-.056-1.1-.066-1.552a1.867,1.867,0,0,0-.038-.469.5.5,0,0,0-.209-.262,3.683,3.683,0,0,0-.355-.206.057.057,0,0,1-.029-.056c0-.1.122-.16.318-.16a2.136,2.136,0,0,1,.738.14c.31.1.423.216.423.392a2.666,2.666,0,0,1-.066.264,6.233,6.233,0,0,0-.093,1.225c0,.194.007.4.016.6.03.555.068.683.3.683.094,0,.149-.019.385-.14.273-.13.765-.347,1.036-.477a.915.915,0,0,1,.376-.092.43.43,0,0,1,.462.364.389.389,0,0,1-.293.375,7.677,7.677,0,0,1-.886.282c-1.9.516-3.116,1.376-3.116,2.218,0,.582.508.871,1.881.871a14.049,14.049,0,0,0,2.264-.215,1.524,1.524,0,0,1,.263-.02.435.435,0,0,1,.414.432c0,.235-.1.329-.434.4a15.6,15.6,0,0,1-1.989.121,4.284,4.284,0,0,1-2.251-.4,1.224,1.224,0,0,1-.677-1.1c0-.8.623-1.529,2.085-2.3-.341-.13-.408-.423-.464-.91" transform="translate(-72.21 -10.041)" fill="#8c7a70"/>
                <path id="パス_34187" data-name="パス 34187" d="M263.868,30.86c1.393.312,2.5,1.031,2.5,1.816a.49.49,0,0,1-.471.544c-.227,0-.339-.076-.491-.374a4.264,4.264,0,0,0-1.655-1.77Z" transform="translate(-153.826 -18.073)" fill="#8c7a70"/>
                <path id="パス_34188" data-name="パス 34188" d="M282.4,18.328c.358.316.593.353,1.384.353.454,0,1.072-.046,1.572-.092v-.813c0-.525-.084-.63-.384-.742-.131-.045-.189-.084-.189-.11,0-.1.178-.206.508-.206a1.763,1.763,0,0,1,.585.138c.272.112.368.2.368.339,0,.068-.02.121-.123.262a2.227,2.227,0,0,0-.161,1.067c.35-.045.709-.1,1.1-.178a2.509,2.509,0,0,0,.546-.18.879.879,0,0,1,.4-.1c.358,0,.491.148.491.319a.316.316,0,0,1-.188.306,2.994,2.994,0,0,1-.736.17c-.629.1-1.11.171-1.637.225v.4c0,.347,0,.721.009,1a6.187,6.187,0,0,0,1.441-.33.618.618,0,0,1,.35-.091c.244,0,.423.14.423.326s-.114.262-.461.356a14.387,14.387,0,0,1-1.731.283c.016.588.044,1.084.073,1.571a6.8,6.8,0,0,1,1.977.795c.416.246.564.421.564.639a.345.345,0,0,1-.357.364.989.989,0,0,1-.518-.252,5.9,5.9,0,0,0-1.656-.955,1.277,1.277,0,0,1-.171.733,1.533,1.533,0,0,1-1.469.662c-1,0-1.665-.449-1.665-1.067,0-.656.817-1.077,1.827-1.077.255,0,.592.027.865.056-.008-.392-.018-.9-.029-1.405-.4.038-.876.065-1.279.065-.781,0-1.11-.2-1.131-.616a2.4,2.4,0,0,1,.15-.631l.3.049a1.289,1.289,0,0,0-.047.3c0,.252.17.385.753.385.339,0,.876-.059,1.234-.1-.009-.469-.017-.976-.028-1.408-.591.046-1.254.094-1.638.094a1.472,1.472,0,0,1-1.507-.73Zm2.071,4.588c-.857,0-1.319.176-1.319.572,0,.317.33.552,1.046.552a1.549,1.549,0,0,0,1.017-.261.935.935,0,0,0,.218-.721,5.381,5.381,0,0,0-.962-.142" transform="translate(-164.599 -9.791)" fill="#8c7a70"/>
                <path id="パス_34189" data-name="パス 34189" d="M310.96,18.771a1.376,1.376,0,0,0,1.126.3,4.566,4.566,0,0,0,.744-.083,8.213,8.213,0,0,0,.152-1.388c0-.2-.086-.289-.35-.421-.083-.048-.14-.074-.14-.113a.092.092,0,0,1,.037-.065.545.545,0,0,1,.357-.085c.441,0,1.054.327,1.054.58a.249.249,0,0,1-.093.225.475.475,0,0,0-.19.284c-.046.185-.133.54-.206.888.442-.1.781-.209,1.054-.3a1.932,1.932,0,0,0,.416-.2.756.756,0,0,1,.412-.142.743.743,0,0,1,.34.074.292.292,0,0,1,.133.266c0,.157-.094.25-.547.412a12.834,12.834,0,0,1-1.932.476c-.177.888-.329,1.6-.519,2.527A4.678,4.678,0,0,1,315.7,20.8c1.188,0,1.97.677,1.97,1.621,0,1.937-3.044,2.323-4.71,2.323l-.039-.273c1.705-.213,3.928-.747,3.928-2.179,0-.665-.434-1.059-1.244-1.059a3.1,3.1,0,0,0-1.827.719,3.14,3.14,0,0,0-.819.8.448.448,0,0,1-.349.293.791.791,0,0,1-.51-.76c0-.143.132-.341.237-.75.139-.57.281-1.219.394-1.955-.311.027-.564.044-.772.044a1.26,1.26,0,0,1-1.2-.662Z" transform="translate(-181.241 -9.908)" fill="#8c7a70"/>
                <path id="パス_34190" data-name="パス 34190" d="M340.543,18.585a1.222,1.222,0,0,0,.761.215,7.043,7.043,0,0,0,1.509-.184,5.5,5.5,0,0,0,.32-.657,1.519,1.519,0,0,0,.131-.431.13.13,0,0,0-.047-.1,1.433,1.433,0,0,0-.395-.225c-.065-.03-.095-.047-.095-.087,0-.072.1-.13.245-.13.576,0,1.158.254,1.158.5,0,.086-.028.122-.113.216a4.139,4.139,0,0,0-.264.349c-.1.138-.189.258-.33.476a7.824,7.824,0,0,0,1.442-.5.815.815,0,0,1,.35-.093c.279,0,.431.158.431.345,0,.207-.2.3-.952.478-.781.188-1.252.292-1.63.356a12.188,12.188,0,0,1-1.14,1.415,3.157,3.157,0,0,1,1.329-.48,1.145,1.145,0,0,1,1.1,1.18c.642-.274,1.132-.468,1.837-.759.246-.1.329-.169.329-.281,0-.081-.083-.232-.29-.382a.119.119,0,0,1-.064-.1c0-.039.052-.056.138-.056a1.348,1.348,0,0,1,.818.383,1.092,1.092,0,0,1,.4.58c0,.189-.149.262-.346.262a2.747,2.747,0,0,0-.793.169c-.669.224-1.366.478-1.976.719,0,.291.009.655.009.975,0,.385-.1.544-.348.544-.217,0-.313-.112-.313-.4,0-.233.01-.635.01-.89-1,.462-1.432.986-1.432,1.387,0,.552.509.74,1.5.74a9.932,9.932,0,0,0,1.366-.122,2.145,2.145,0,0,0,.555-.114.91.91,0,0,1,.255-.046c.359,0,.64.2.64.45s-.142.358-.612.425c-.254.032-.979.089-1.467.089-1.829,0-2.706-.375-2.706-1.33a1.656,1.656,0,0,1,.443-1.019,5.916,5.916,0,0,1,1.461-1.012c-.01-.76-.19-.995-.595-.995a2.534,2.534,0,0,0-1.263.574,8.031,8.031,0,0,0-.78.635c-.234.232-.321.307-.472.307a.318.318,0,0,1-.32-.325.712.712,0,0,1,.273-.542c.171-.135.408-.283.633-.488a9.942,9.942,0,0,0,1.241-1.424,4.884,4.884,0,0,1-.985.113,1.3,1.3,0,0,1-1.1-.5Z" transform="translate(-198.495 -9.947)" fill="#8c7a70"/>
                <path id="パス_34191" data-name="パス 34191" d="M371.7,25.854c2.72-.554,3.99-1.6,3.99-3.025a1.534,1.534,0,0,0-1.675-1.656,5.851,5.851,0,0,0-2.533.784c-.387.218-.858.451-1.139.645-.225.162-.405.317-.545.317a1.042,1.042,0,0,1-.67-.371.846.846,0,0,1-.351-.665c0-.112.03-.167.085-.167a.22.22,0,0,1,.1.045.9.9,0,0,0,.582.261,4.246,4.246,0,0,0,1.02-.355,8.256,8.256,0,0,1,3.466-.972,2.25,2.25,0,0,1,2.514,2.225,2.736,2.736,0,0,1-1.941,2.606,9.858,9.858,0,0,1-2.854.608Z" transform="translate(-215.082 -12.12)" fill="#8c7a70"/>
                <path id="パス_34192" data-name="パス 34192" d="M398.777,18.7a1.2,1.2,0,0,0,.773.283,7.019,7.019,0,0,0,1.3-.2,3.589,3.589,0,0,0,.309-1.243c0-.131-.083-.252-.421-.423-.055-.026-.1-.034-.1-.073,0-.111.208-.168.386-.168a2.163,2.163,0,0,1,.8.241c.151.095.227.18.227.276a.315.315,0,0,1-.085.212,2.5,2.5,0,0,0-.3.544c-.073.169-.138.346-.215.513a5.278,5.278,0,0,0,.518-.194,3.3,3.3,0,0,0,.33-.179.591.591,0,0,1,.243-.057c.227,0,.4.133.4.3s-.1.278-.36.385a11.529,11.529,0,0,1-1.338.335c-.46,1.086-.941,2.2-1.412,3.2-.319.684-.462.8-.688.8a.341.341,0,0,1-.33-.353,1.606,1.606,0,0,1,.338-.721,16.618,16.618,0,0,0,1.462-2.8,6.683,6.683,0,0,1-1.066.113,1.1,1.1,0,0,1-.941-.609Zm4.861.16a4.3,4.3,0,0,1,1.639.382c.546.273.829.63.829.89a.306.306,0,0,1-.3.347.6.6,0,0,1-.3-.105,1.387,1.387,0,0,0-.744-.129c-.81,0-1.074.252-1.074.626a12.4,12.4,0,0,0,.3,1.863,6.146,6.146,0,0,1,1.481.694.62.62,0,0,1,.368.562.309.309,0,0,1-.332.317c-.113,0-.217-.026-.424-.206a4.769,4.769,0,0,0-1.043-.712c0,1.03-.7,1.331-1.575,1.331-.838,0-1.432-.452-1.432-1.021,0-.655.671-1.114,1.5-1.114a6.727,6.727,0,0,1,.821.047c-.039-.365-.114-.909-.114-1.265a2.338,2.338,0,0,1,.075-.628c.182-.525.661-.813,1.535-.909.086-.01.132-.021.132-.075s-.045-.093-.093-.131a3.258,3.258,0,0,0-1.32-.5Zm-1.244,4.2c-.622,0-.969.271-.969.564,0,.342.348.55.969.55a1.046,1.046,0,0,0,.821-.29.759.759,0,0,0,.169-.515,1.251,1.251,0,0,0-.008-.168,3.387,3.387,0,0,0-.982-.142" transform="translate(-232.483 -9.882)" fill="#8c7a70"/>
                <path id="パス_34193" data-name="パス 34193" d="M433.544,17.847c0,.12-.048.206-.208.336-.817.637-1.534,1.216-2.306,1.91-.51.452-.546.535-.546.665s.046.234.273.423c1.007.83,1.762,1.507,2.043,1.778.659.647.894,1.029.894,1.489,0,.273-.15.459-.375.459-.183,0-.285-.085-.5-.5a8.3,8.3,0,0,0-1.034-1.4,11.508,11.508,0,0,0-1.31-1.339c-.46-.394-.573-.58-.573-.871,0-.318.093-.421.527-.854.613-.607,1.329-1.316,1.911-1.945a.593.593,0,0,0,.189-.375c0-.092-.093-.187-.273-.31-.122-.074-.169-.122-.169-.17,0-.063.105-.11.254-.11.556,0,1.207.442,1.207.815M434,18.3a4.188,4.188,0,0,1,1.442.825.83.83,0,0,1,.262.516c0,.175-.074.439-.291.439-.188,0-.274-.16-.367-.3a4.142,4.142,0,0,0-1.2-1.29Zm.81-.694a4.807,4.807,0,0,1,1.423.638.693.693,0,0,1,.358.551c0,.162-.049.415-.255.415a.358.358,0,0,1-.282-.159,4.808,4.808,0,0,0-1.375-1.23Z" transform="translate(-250.732 -9.975)" fill="#8c7a70"/>
                <path id="パス_34194" data-name="パス 34194" d="M150.693,18.585a1.226,1.226,0,0,0,.763.215,7.048,7.048,0,0,0,1.506-.184,5.641,5.641,0,0,0,.321-.657,1.481,1.481,0,0,0,.134-.431.132.132,0,0,0-.048-.1,1.458,1.458,0,0,0-.4-.225c-.065-.03-.092-.047-.092-.087,0-.072.1-.13.242-.13.576,0,1.158.254,1.158.5,0,.086-.03.122-.111.216a4.162,4.162,0,0,0-.261.349c-.105.138-.192.258-.333.476a8,8,0,0,0,1.445-.5.789.789,0,0,1,.345-.093c.284,0,.434.158.434.345,0,.207-.2.3-.952.478-.779.188-1.252.292-1.628.356a12.206,12.206,0,0,1-1.141,1.415,3.154,3.154,0,0,1,1.33-.48,1.146,1.146,0,0,1,1.1,1.18c.639-.274,1.128-.468,1.834-.759.245-.1.332-.169.332-.281,0-.081-.087-.232-.295-.382a.125.125,0,0,1-.065-.1c0-.039.057-.056.141-.056a1.352,1.352,0,0,1,.819.383,1.1,1.1,0,0,1,.4.58c0,.189-.148.262-.347.262a2.736,2.736,0,0,0-.79.169c-.67.224-1.366.478-1.979.719,0,.291.009.655.009.975,0,.385-.1.544-.35.544-.215,0-.308-.112-.308-.4,0-.233.009-.635.009-.89-1,.462-1.433.986-1.433,1.387,0,.552.51.74,1.5.74a9.96,9.96,0,0,0,1.364-.122,2.15,2.15,0,0,0,.556-.114.921.921,0,0,1,.255-.046c.358,0,.639.2.639.45s-.141.358-.612.425c-.253.032-.981.089-1.47.089-1.824,0-2.7-.375-2.7-1.33a1.653,1.653,0,0,1,.444-1.019,5.879,5.879,0,0,1,1.461-1.012c-.009-.76-.192-.995-.6-.995a2.53,2.53,0,0,0-1.262.574,8.039,8.039,0,0,0-.78.635c-.238.232-.322.307-.47.307a.317.317,0,0,1-.321-.325.7.7,0,0,1,.273-.542c.17-.135.4-.283.631-.488a10.052,10.052,0,0,0,1.245-1.424,4.9,4.9,0,0,1-.991.113,1.3,1.3,0,0,1-1.092-.5Z" transform="translate(-87.769 -9.947)" fill="#8c7a70"/>
                <path id="パス_34195" data-name="パス 34195" d="M181.847,25.854c2.724-.554,3.994-1.6,3.994-3.025a1.536,1.536,0,0,0-1.676-1.656,5.864,5.864,0,0,0-2.534.784c-.387.218-.857.451-1.137.645-.229.162-.408.317-.548.317a1.056,1.056,0,0,1-.671-.371.85.85,0,0,1-.347-.665c0-.112.028-.167.085-.167a.221.221,0,0,1,.093.045.9.9,0,0,0,.583.261,4.232,4.232,0,0,0,1.016-.355,8.28,8.28,0,0,1,3.468-.972,2.251,2.251,0,0,1,2.516,2.225,2.738,2.738,0,0,1-1.942,2.606,9.885,9.885,0,0,1-2.854.608Z" transform="translate(-104.358 -12.12)" fill="#8c7a70"/>
                <path id="パス_34196" data-name="パス 34196" d="M208.923,18.7a1.2,1.2,0,0,0,.774.283,7,7,0,0,0,1.3-.2,3.63,3.63,0,0,0,.31-1.243c0-.131-.083-.252-.423-.423-.055-.026-.094-.034-.094-.073,0-.111.206-.168.385-.168a2.18,2.18,0,0,1,.8.241c.15.095.226.18.226.276a.307.307,0,0,1-.087.212,2.5,2.5,0,0,0-.3.544c-.077.169-.14.346-.218.513a4.9,4.9,0,0,0,.517-.194,3.292,3.292,0,0,0,.332-.179.582.582,0,0,1,.244-.057c.228,0,.4.133.4.3s-.094.278-.359.385a11.506,11.506,0,0,1-1.336.335c-.465,1.086-.943,2.2-1.415,3.2-.321.684-.461.8-.687.8a.343.343,0,0,1-.332-.353,1.58,1.58,0,0,1,.342-.721,16.42,16.42,0,0,0,1.459-2.8,6.651,6.651,0,0,1-1.063.113,1.107,1.107,0,0,1-.944-.609Zm4.861.16a4.292,4.292,0,0,1,1.638.382c.546.273.83.63.83.89a.306.306,0,0,1-.3.347.575.575,0,0,1-.3-.105,1.391,1.391,0,0,0-.743-.129c-.811,0-1.075.252-1.075.626a12.843,12.843,0,0,0,.3,1.863,6.124,6.124,0,0,1,1.481.694.62.62,0,0,1,.365.562.308.308,0,0,1-.329.317c-.113,0-.217-.026-.424-.206a4.7,4.7,0,0,0-1.044-.712c0,1.03-.7,1.331-1.576,1.331-.837,0-1.432-.452-1.432-1.021,0-.655.671-1.114,1.5-1.114a6.744,6.744,0,0,1,.823.047c-.039-.365-.113-.909-.113-1.265a2.355,2.355,0,0,1,.074-.628c.179-.525.659-.813,1.535-.909.087-.01.132-.021.132-.075s-.045-.093-.093-.131a3.255,3.255,0,0,0-1.319-.5Zm-1.243,4.2c-.621,0-.97.271-.97.564,0,.342.349.55.97.55a1.048,1.048,0,0,0,.819-.29.743.743,0,0,0,.17-.515,1.048,1.048,0,0,0-.01-.168,3.37,3.37,0,0,0-.979-.142" transform="translate(-121.752 -9.882)" fill="#8c7a70"/>
                <path id="パス_34197" data-name="パス 34197" d="M243.69,17.847c0,.12-.046.206-.207.336-.82.637-1.536,1.216-2.306,1.91-.508.452-.546.535-.546.665s.047.234.275.423c1.006.83,1.758,1.507,2.042,1.778.661.647.894,1.029.894,1.489,0,.273-.152.459-.378.459-.176,0-.283-.085-.5-.5a8.406,8.406,0,0,0-1.038-1.4,11.474,11.474,0,0,0-1.306-1.339c-.463-.394-.577-.58-.577-.871,0-.318.1-.421.528-.854.612-.607,1.326-1.316,1.911-1.945a.592.592,0,0,0,.188-.375c0-.092-.095-.187-.274-.31-.121-.074-.168-.122-.168-.17,0-.063.1-.11.253-.11.555,0,1.2.442,1.2.815m.454.458a4.1,4.1,0,0,1,1.437.825.812.812,0,0,1,.267.516c0,.175-.076.439-.293.439-.189,0-.273-.16-.367-.3a4.087,4.087,0,0,0-1.2-1.29Zm.81-.694a4.9,4.9,0,0,1,1.422.638.7.7,0,0,1,.355.551c0,.162-.046.415-.253.415a.358.358,0,0,1-.282-.159,4.819,4.819,0,0,0-1.375-1.23Z" transform="translate(-140.003 -9.975)" fill="#8c7a70"/>
                <path id="パス_34198" data-name="パス 34198" d="M255.856,73.29c0-.343-.716-.822-1.222-1.272-.142-.126-.284-.107-.383.092-.036.073-.119.292-.2.444s-.218.2-.618.2-4.292,0-4.4,0a1.077,1.077,0,0,1-.493-.1c-.218-.1-.776-.483-1.041-.645-.114-.07-.315-.183-.3.107.021.375.168,3.279.173,3.974s-.07,2.621-.082,3.459c-.007.466.045.766.4.764a1.175,1.175,0,0,0,.961-.855c.047-.142.114-.162.282-.164.275,0,4.48,0,4.668,0s.371.009.372.207c0,.108.04.793.453.791.5,0,.814-.5.874-1.061s-.058-3.676-.023-4.877c.01-.356.583-.605.579-1.071M253.678,77.4a.248.248,0,0,1,.282.254c0,.11.005.694.006.848s-.055.291-.278.293-4.6,0-4.83,0-.281-.125-.281-.254-.005-.709-.007-.848a.26.26,0,0,1,.278-.293c.219,0,4.612,0,4.83,0m-.015-2.167c.228,0,.281.137.281.253s.007.98.008,1.122-.075.287-.2.288-4.85,0-4.989,0-.2-.081-.2-.249-.007-1-.008-1.122a.264.264,0,0,1,.277-.293c.224,0,4.6,0,4.831,0m-4.834-.484c-.228,0-.28-.112-.281-.254s-.006-.862-.007-.978a.269.269,0,0,1,.275-.294c.216,0,4.635,0,4.836,0a.248.248,0,0,1,.279.254c0,.124.006.849.007.977a.268.268,0,0,1-.277.294c-.213,0-4.6,0-4.831,0" transform="translate(-144.175 -42.13)" fill="#8c7a70"/>
                <path id="パス_34199" data-name="パス 34199" d="M272.313,71.767c4.1-1.057,6.777-3.785,8.478-8.215a.414.414,0,0,1,.463-.227c.118,0,.12,0,.546,0,.25,0,.351.035.352.234.016,2.176-.544,5.846-1.7,5.9a5.437,5.437,0,0,1-1.746-.341c-.114-.032-.188.065-.1.134a2.367,2.367,0,0,1,1.1,1.961c0,.275.029.413.369.411,2.824-.021,3.389-6.337,3.432-7.528,0-.114.014-.147.072-.19.13-.1.4-.261.464-.319a.284.284,0,0,0,.038-.426c-.287-.308-1.31-1.13-1.4-1.193s-.148-.075-.2.036c-.252.516-.294.823-.7.826,0,0-6.089,0-6.232,0s-.245-.032-.157-.2c.147-.285.989-2.129,1.089-2.357s.2-.343.377-.348h3.153a.243.243,0,0,1,.275.255c-.041.449.037.873.527.869a.971.971,0,0,0,.885-1.048c-.01-.333-.109-.829-.122-2.691-.006-.876,0-1.915.017-2.405.01-.356.618-.389.615-.853,0-.343-.722-.784-1.217-1.277a.264.264,0,0,0-.448.067c-.051.1-.225.47-.354.693a.518.518,0,0,1-.476.217c-.107,0-4.272,0-4.455,0a.944.944,0,0,1-.49-.117c-.23-.154-1.326-1.022-1.437-1.113s-.228.015-.16.2a14.618,14.618,0,0,1,.4,4.034,25.043,25.043,0,0,1-.123,3.371c-.1.527.087.817.442.815a1.135,1.135,0,0,0,1.044-.842.165.165,0,0,1,.141-.138c.174,0,.228.117.124.4a18.407,18.407,0,0,1-4.092,6.249c-.083.085-.035.155.051.112a12.775,12.775,0,0,0,3.657-3.292.233.233,0,0,1,.2-.11c.069,0,.63,0,.9,0,.173,0,.341.028.273.2a12.693,12.693,0,0,1-5.195,6c-.119.065-.06.148.064.124,2.9-.56,5.428-3.35,6.581-6.081a.442.442,0,0,1,.441-.244c.132,0,.557,0,.892,0,.205,0,.376.018.3.234a14.044,14.044,0,0,1-7.02,8.025c-.15.075-.06.216.075.182m7.768-17.486c.136,0,.2.046.2.25s.011,1.6.013,1.807a.277.277,0,0,1-.273.3c-.118,0-4.874,0-5,0a.241.241,0,0,1-.277-.257c0-.209-.012-1.649-.014-1.807s.079-.289.194-.29,5.025,0,5.162,0m-5.046,5.1c-.153,0-.275-.048-.277-.256s-.01-1.427-.012-1.634a.265.265,0,0,1,.273-.3h5c.124,0,.275.033.277.257s.01,1.4.012,1.632a.278.278,0,0,1-.278.3h-5" transform="translate(-158.008 -30.743)" fill="#8c7a70"/>
                <path id="パス_34200" data-name="パス 34200" d="M310.534,64.323c-.008-1.645-.022-3.154-.04-3.751-.035-1.182-.8-1.038-.8-1.586,0-.226.224-.463.6-.465.73-.006,1.773,1.321,1.779,2.054.005.658-.231.583-.373,1.425a13.556,13.556,0,0,0-.154,1.994c.019.343.277.21.377.18s2.574-1.055,3.334-1.341c.586-.221.7-.554,1.055-.556.461,0,.765.386,1.118.835.749.956.7,1.527.461,1.765-.25.253-.687.038-1.006.453a32.441,32.441,0,0,1-3.252,3.506c-.563.425-.806.043-.479-.4a34.551,34.551,0,0,0,2.547-4.126c.055-.153.081-.265-.2-.18-.561.172-3.355,1.421-3.709,1.582s-.3.373-.3.757.02,3.65.047,4.165c.039.717.145,1.435,1.86,1.422a19.553,19.553,0,0,0,3.464-.655,1.13,1.13,0,0,1,.941.882c.045.717-.123.965-.949,1.122a14.507,14.507,0,0,1-2.923.239c-2.495.018-3.494-1.117-3.411-4.382.012-.476.017-2.285.015-2.615,0-.28-.193-.314-.335-.251s-.666.3-.9.4c-1.382.609-1.532,1.251-2.036,1.254a3.555,3.555,0,0,1-1.6-1.986c0-.6.292-.68.624-.209s.806.38,1.351.167,2.451-1.03,2.6-1.105.3-.173.3-.595" transform="translate(-178.274 -34.273)" fill="#8c7a70"/>
                <path id="パス_34201" data-name="パス 34201" d="M338.633,63.9c1,1.169,1.192,2.155,1.723,2.152.565,0,.771-.72.767-1.234-.012-1.646-2.106-2.9-4.231-3.108-.345-.033-.4.2-.19.379a12.775,12.775,0,0,1,1.931,1.811" transform="translate(-196.305 -36.14)" fill="#8c7a70"/>
                <path id="パス_34202" data-name="パス 34202" d="M348.694,66.135c-2.16,3.016-8.147,9.227-9.306,9.236a1.742,1.742,0,0,1-.945-.413c-.314-.233-.376.02-.373.259,0,.45.405.857.793,1.478.4.642.785,1.271,1.2,1.268.319,0,.285-.528.563-.785A35.339,35.339,0,0,0,348.96,66.3c.163-.339.041-.593-.266-.163" transform="translate(-197.174 -38.599)" fill="#8c7a70"/>
                <path id="パス_34203" data-name="パス 34203" d="M534.759,63.9c1,1.169,1.192,2.155,1.723,2.152.565,0,.771-.72.768-1.234-.013-1.646-2.107-2.9-4.231-3.108-.345-.033-.4.2-.19.379a12.78,12.78,0,0,1,1.931,1.811" transform="translate(-310.693 -36.14)" fill="#8c7a70"/>
                <path id="パス_34204" data-name="パス 34204" d="M544.819,66.135c-2.16,3.016-8.147,9.227-9.306,9.236a1.74,1.74,0,0,1-.944-.413c-.314-.233-.377.02-.374.259,0,.45.407.857.793,1.478.4.642.786,1.271,1.2,1.268.32,0,.285-.528.563-.785A35.352,35.352,0,0,0,545.085,66.3c.162-.339.041-.593-.266-.163" transform="translate(-311.561 -38.599)" fill="#8c7a70"/>
                <path id="パス_34205" data-name="パス 34205" d="M372.736,59.046c0-.456-.772-1.924-1.254-1.92s-.439.526-1.5.649c-.376.044-1.542.3-1.319-.133a1.376,1.376,0,0,0,.295-.711c0-.4-1.2-1.779-1.742-1.775a.743.743,0,0,0-.641.528c0,.286.6.451.6,1.159.007.911-2.466,4.855-4.5,7.118-.319.357.039.641.444.351a13.5,13.5,0,0,0,2-1.781c.295-.279.519-.16.629-.06a13,13,0,0,1,1.956,2.544c.165.345-.092.816-.288,1.162a30.567,30.567,0,0,1-4.993,6.482c-.218.2-.222.784.679.171,2.112-1.436,5.96-5.593,8.668-12.478.114-.291.968-.853.964-1.307m-2.228.586a40.8,40.8,0,0,1-1.67,3.906c-.093.177-.2.249-.356.129a6.764,6.764,0,0,0-2.249-1.926c-.233-.12-.155-.305-.018-.5.423-.547.973-1.387,1.232-1.782s.475-.1,1.09-.1,1.381-.151,1.781-.154.249.252.19.423" transform="translate(-211.308 -32.303)" fill="#8c7a70"/>
                <path id="パス_34206" data-name="パス 34206" d="M396.79,73.2a69.694,69.694,0,0,1-10.086.556.916.916,0,0,1-.653-.249c-.138-.121-.685-.718-.772-.8s-.3-.114-.3.255c.009,1.2.173.859.589,1.842s.665,1.115.965,1.113c.561,0,.6-.461,1.412-.5s6.489-.182,9.433-.064c.536.021.8-.4.8-.983A1.2,1.2,0,0,0,396.79,73.2" transform="translate(-224.535 -42.552)" fill="#8c7a70"/>
                <path id="パス_34207" data-name="パス 34207" d="M426.617,71.459c-.548,0-1.1.894-4.24.917-1.519.01-1.71-.631-1.761-1.6-.037-.691-.05-3.013-.031-4.576a.2.2,0,0,1,.2-.222,22.817,22.817,0,0,0,4.567-.809c1.289-.228,1.455-.652,1.453-1.058a.91.91,0,0,0-.627-.864c-1.069-.49-1.349.085-1.73.354a7.613,7.613,0,0,1-3.612,1.154c-.138.01-.209-.052-.2-.2.055-1.17.148-2.366.165-2.845.035-.979.479-1.075.476-1.526,0-.486-.388-.791-.822-1.218-.368-.363-.57-.754-1.254-.748s-.909.348-.907.58c0,.337.433.351.834.846a1.431,1.431,0,0,1,.439,1.143c0,.481.03,3.121.043,4.763s-.411,6.606.908,7.713,4.418.673,6.423.31A1.263,1.263,0,0,0,428,72.212c0-.409-.631-.758-1.383-.752" transform="translate(-243.962 -34.097)" fill="#8c7a70"/>
                <path id="パス_34208" data-name="パス 34208" d="M441.693,60.887c-.007-.825-.906-1.739-2.474-1.728-.262,0-.39.15-.152.361.883.782,1.555,2.134,2.148,2.129.291,0,.48-.429.478-.762" transform="translate(-256.007 -34.647)" fill="#8c7a70"/>
                <path id="パス_34209" data-name="パス 34209" d="M436.906,63.07c-.261,0-.39.15-.152.36.882.781,1.254,2.4,1.981,2.4.291,0,.48-.43.478-.763a2.41,2.41,0,0,0-2.307-1.995" transform="translate(-254.657 -36.937)" fill="#8c7a70"/>
                <path id="パス_34210" data-name="パス 34210" d="M586.914,51.965c-.391,0-.427.228-.255.365.939.745,1.868,2.157,2.313,2.155.291,0,.419-.429.417-.763-.007-.825-.907-1.768-2.476-1.757" transform="translate(-342.103 -30.434)" fill="#8c7a70"/>
                <path id="パス_34211" data-name="パス 34211" d="M584.031,55.493c-.261-.022-.247.232-.023.457.866.875,1.627,2.456,2.139,2.452.291,0,.5-.322.5-.655-.008-1.1-1.523-2.164-2.613-2.254" transform="translate(-340.515 -32.499)" fill="#8c7a70"/>
                <path id="パス_34212" data-name="パス 34212" d="M507.082,56.047c1.152.808,1.687,2.123,2.329,2.118.291,0,.48-.429.478-.762-.006-.825-1.086-1.727-2.654-1.715-.261,0-.412.178-.152.36" transform="translate(-295.669 -32.613)" fill="#8c7a70"/>
                <path id="パス_34213" data-name="パス 34213" d="M504.319,59.641c1.069.92,1.261,2.434,2.11,2.428.292,0,.51-.365.506-.849-.005-.863-1.344-1.732-2.513-1.933-.257-.044-.343.15-.1.355" transform="translate(-294.054 -34.718)" fill="#8c7a70"/>
                <path id="パス_34214" data-name="パス 34214" d="M447.61,63.163a.514.514,0,0,0-.533.44c0,.469.7.464.7,1.512.033,4.443-.449,7.463-2.45,10.989-.12.21-.128.431-.034.481.111.059.281.007.637-.451,1.688-2.173,2.844-4.846,3.158-9.931.028-.448.394-.857.391-1.182a2.442,2.442,0,0,0-1.873-1.858" transform="translate(-259.675 -36.992)" fill="#8c7a70"/>
                <path id="パス_34215" data-name="パス 34215" d="M465.646,65.213a30.891,30.891,0,0,1-5.919,6.124c-.245.168-.281.03-.287-.1-.065-1.388.089-6.712.149-7.44s.439-.74.435-1.2-.383-.745-.71-1.169a1.876,1.876,0,0,0-1.088-.777.579.579,0,0,0-.54.488c0,.375.744.358.767,1.768.021,1.308-.1,7.411-.121,8.342a12.678,12.678,0,0,1-.22,1.364,3.623,3.623,0,0,0,.324,1.132c.187.482.4.969.793.965.524,0,.345-.674.886-1.241a30.3,30.3,0,0,0,5.868-7.9c.24-.527-.222-.549-.338-.349" transform="translate(-266.939 -35.518)" fill="#8c7a70"/>
                <path id="パス_34216" data-name="パス 34216" d="M487.421,57.348a39.09,39.09,0,0,1,5.1-.868.909.909,0,0,0,.9-.751c0-.631-1.152-1.074-1.592-1.071-.391,0-.41.318-1.021.47a34.031,34.031,0,0,1-3.85.826c-.91.007-1.022-.584-1.435-.581a.281.281,0,0,0-.268.31c0,.41.941,1.891,2.167,1.665" transform="translate(-283.017 -32.011)" fill="#8c7a70"/>
                <path id="パス_34217" data-name="パス 34217" d="M492.78,66.881a1.641,1.641,0,0,0-1.517-1.391c-.442,0-.536.524-1.406.573A37.961,37.961,0,0,0,482.8,67.2a1.317,1.317,0,0,1-1.245-.156c-.31-.251-.541-.83-.742-.733-.125.059-.16.313-.155.767,0,.55.248.655.575,1.123.307.436.574.943,1.044.939.414,0,.729-.419,1.584-.657.59-.162,1.824-.417,2.043-.446a.3.3,0,0,1,.376.206,1.962,1.962,0,0,1,.281,1.063,24.54,24.54,0,0,1-3.893,10.271c-.174.223-.145.6.359.224,2.606-1.937,4.638-7.809,5.062-10.015.089-.464-.584-1.427-.756-1.657-.136-.182.028-.3.331-.339a21.406,21.406,0,0,1,3.377-.128c.443.024.567.147,1,.144s.744-.349.739-.926" transform="translate(-280.338 -38.355)" fill="#8c7a70"/>
                <path id="パス_34218" data-name="パス 34218" d="M514.929,61.892c-.23,0-.351.1-.35.274,0,.25.318.337.321.72.007,1.038-4.029,8.158-5.916,9.9-.074.068-.182.213-.128.286.065.09.183.042.315-.038a14.689,14.689,0,0,0,4.093-4.085c.128-.2.283-.1.317.266a32.122,32.122,0,0,1,.123,3.372,19.585,19.585,0,0,1-.152,3.18c-.114.678.152,2.065.73,2.06.27,0,.458-.258.455-.68,0-.593-.026-3.522-.034-4.622s.1-1.916.09-2.812a2.5,2.5,0,0,0-.723-1.606c-.124-.143-.064-.278.044-.471.176-.315,1.024-1.834,1.436-2.667.218-.442.916-.294.912-.871,0-.616-.948-2.211-1.533-2.207" transform="translate(-296.773 -36.248)" fill="#8c7a70"/>
                <path id="パス_34219" data-name="パス 34219" d="M571.028,56.017c-.327,0-.356.277-.781.413a8.835,8.835,0,0,1-1.768.427c-.47,0-.6-.088-.482-.4a2.146,2.146,0,0,0,.248-.806c-.005-.767-1.178-2.105-1.778-2.1a.57.57,0,0,0-.634.516c0,.46.655.473.662,1.359s-2.338,5.175-4.218,7.073c-.495.5-.086.735.329.441a20.517,20.517,0,0,0,4.339-5.022c.44-.6.765.236,1.785.229a6.272,6.272,0,0,0,1.152-.093c.15-.046.424-.114.288.27-1.728,4.87-4.855,10.194-8.025,13.172-.688.644-.048.827.292.589,4.253-2.968,7.193-8.414,8.831-12.643.2-.51.226-.4.744-.7s.426-1.137.133-1.559-.79-1.172-1.115-1.169" transform="translate(-327.683 -31.364)" fill="#8c7a70"/>
                <path id="パス_34220" data-name="パス 34220" d="M156.955,69.912c.316,0,.409-.442.407-.7,0-.565-.22-.793-.821-1.176-.366-.234-.526-.256-.41-.49s.528-.944.729-1.335c.125-.241.2-.153.4-.249s.2-.3.067-.5a4.291,4.291,0,0,0-.657-.669c-.2-.176-.268-.014-.3.072-.016.046-.054.173-.116.322s-.138.211-.252.212-.165-.077-.166-.274a10.945,10.945,0,0,1,0-1.259c.03-.13.2-.226.363-.421s.015-.355-.152-.423-.693-.15-.861-.235c-.123-.062-.386-.122-.383.259a4.93,4.93,0,0,1,.16,1.194c0,.4.015.791.016.933s-.06.233-.214.235c-.139,0-.463,0-.737-.019-.231-.015-.262.08-.242.155a1.64,1.64,0,0,0,.2.334c.081.123.192-.08.421-.082.1,0,.961-.005,1.3-.008.315,0,.28.121.193.339a24.835,24.835,0,0,1-2.4,4.342c-.234.285-.1.435.2.181a13.12,13.12,0,0,0,1.222-1.316c.093-.136.168-.065.169.058,0,.215.035,1.63.027,2.2s-.051,1.762-.135,2.642c-.078.818,1,.487,1-.058,0-.508-.082-2.465-.089-3.354-.006-.774,0-2.292,0-2.392,0-.181.1-.131.2.007.3.406.531,1.475.847,1.472" transform="translate(-89.464 -36.746)" fill="#8c7a70"/>
                <path id="パス_34221" data-name="パス 34221" d="M141.384,67.028a6.815,6.815,0,0,1-4.056-3.6c-.038-.1.039-.14.094-.182.138-.1.145-.3-.058-.423s-.786-.446-1.009-.588c-.269-.172-.281-.015-.326.378-.118,1.019-1.575,3.866-3.688,5.995-.24.242-.03.222.146.1a17.76,17.76,0,0,0,4.38-5.069c.108-.17.188-.1.3.22a10.258,10.258,0,0,0,3.028,4.257c.093.065.182.028.3-.085a8.812,8.812,0,0,1,.851-.736c.12-.077.214-.207.033-.264" transform="translate(-77.122 -36.409)" fill="#8c7a70"/>
                <path id="パス_34222" data-name="パス 34222" d="M137.686,74.243a5.3,5.3,0,0,1,1.1-.071c.5,0,2.2,0,2.632,0a.229.229,0,0,0,.254-.242c0-.162-.391-.578-.657-.9-.094-.115-.186-.106-.294.049-.153.219-.243.727-.56.729-.17,0-2.284,0-2.563,0s-.676-.286-.588.014.174.506.676.426" transform="translate(-79.902 -42.723)" fill="#8c7a70"/>
                <path id="パス_34223" data-name="パス 34223" d="M139.725,80.167a.154.154,0,0,0-.185.246,3.575,3.575,0,0,1,.768,1.153c.043.1,0,.158-.064.169-.553.092-1.783.179-2.678.223-.107.006-.183-.023-.126-.124a29.248,29.248,0,0,0,1.315-2.619.322.322,0,0,1,.316-.206c.993-.007,1.97,0,2.185,0,.163,0,.255-.07.254-.217,0-.162-.493-.7-.759-1.028-.094-.116-.187-.106-.294.048-.152.22-.244.859-.562.86-.17,0-4.025,0-4.3,0s-.676-.279-.588.02.167.319.676.316c.546,0,1.386,0,1.644,0a.179.179,0,0,1,.192.209,9.077,9.077,0,0,1-.55,2.567c-.08.214-.209.212-.411.2a8.142,8.142,0,0,1-1.338-.21c-.163-.051-.232.02-.126.3.07.186.431,1.143.495,1.258.079.144.174.2.349-.019a.785.785,0,0,1,.492-.249c.193-.055,2.927-.691,3.959-.957.1-.025.182-.011.239.135.115.288.311,1.1.708,1.1.341,0,.515-.393.505-.766-.012-.448-.541-1.524-2.113-2.414" transform="translate(-78.731 -45.498)" fill="#8c7a70"/>
                <path id="パス_34224" data-name="パス 34224" d="M127.2,64.32c.207.3.3.639.6.637.171,0,.4-.235.4-.613s-.39-.859-1.188-.9c-.3-.014-.365.122-.238.327.07.113.258.306.423.545" transform="translate(-73.903 -37.159)" fill="#8c7a70"/>
                <path id="パス_34225" data-name="パス 34225" d="M121.411,70.513c0-.184-.13-.121-.165.012A12.1,12.1,0,0,1,120.692,72c-.183.334-.338.131-.4.027a16.287,16.287,0,0,1-1.847-6.017c0-.193.078-.189.283-.191.168,0,1.82,0,2.175,0,.331,0,.466-.287.295-.5a5.14,5.14,0,0,1-.6-.728c-.112-.176-.325-.251-.408.063s-.138.758-.513.762c-.1,0-.893,0-1.041,0-.171,0-.207-.114-.222-.27a10.1,10.1,0,0,1-.019-1.538c.082-.372.313-.348.311-.561s-.189-.244-.326-.268-.594-.117-.773-.177c-.209-.068-.358.068-.263.351a16.049,16.049,0,0,1,.213,2.21c.012.265-.1.25-.32.252-1.237.008-2.352,0-2.352,0a10.921,10.921,0,0,1-1.13-.032c-.455-.034-.478.019-.414.194.04.109.13.341.36.34.351,0,.657-.091,1.494-.1.244,0,1.911,0,2.083,0,.211,0,.357-.02.371.245.157,3.056,1.948,8.284,3.5,8.273a.493.493,0,0,0,.441-.523c0-.312-.255-.505-.26-1.1s.088-2.015.087-2.2" transform="translate(-66.087 -36.65)" fill="#8c7a70"/>
                <path id="パス_34226" data-name="パス 34226" d="M242.533,60.208c.1.393.426.235.534-.036a1.154,1.154,0,0,1,.482-.616c.5-.312,1.9-.957,2.491-1.332.186-.118.5-.184.5.143,0,.6.208.939.569.937.318,0,.543-.519.54-1-.008-1.008-1.183-1.992-1.48-2.18s-.326-.048-.206.155a4.956,4.956,0,0,1,.331.844c.055.182.07.441-.166.544a4.8,4.8,0,0,1-1.269.289c-.31.039-.32-.049-.32-.194,0,0-.01-2.307-.019-2.559-.008-.234.071-.354.286-.4.683-.133,2.384-.2,2.6-.222s.5-.181.259-.46-.651-.79-.956-1.149-.222-.012-.362.15a5.412,5.412,0,0,1-1.67,1.241c-.384.183-.945-.277-1.109-.365,0,0-.4-.235-.312.1a11.457,11.457,0,0,1,.207,2.01c0,.636-.022,1.588-.021,1.816a.3.3,0,0,1-.326.3,2.872,2.872,0,0,1-.821-.045c-.408-.129-.406.039-.308.309s.5,1.543.547,1.718" transform="translate(-141.103 -30.932)" fill="#8c7a70"/>
                <path id="パス_34227" data-name="パス 34227" d="M254.083,61.948c-.185.136-.134.321.128.222,2.7-1.019,3.35-2.13,3.888-4.893.043-.225.132-.21.305-.212s1.1,0,1.322,0,.282.09.265.376a7.123,7.123,0,0,1-.656,2.453c-.266.472-.7.329-1.388.116-.185-.057-.454-.045-.244.175a2.727,2.727,0,0,1,.672,1.109c.117.368.1.858.436.855,1.671-.011,2.161-3.387,2.246-3.814s.127-.515.341-.7c.3-.262.342-.631.15-.806a10.063,10.063,0,0,1-.9-1.007c-.14-.178-.21-.137-.295-.019a3.4,3.4,0,0,0-.249.313.411.411,0,0,1-.4.211c-.28,0-2.477,0-2.846,0a2.226,2.226,0,0,1-.819-.1c-.312-.094-.37,0-.31.176a4.618,4.618,0,0,0,.188.505c.089.193.186.16.313.159h.4c.088,0,.233.022.216.351-.1,2.013-.969,3.215-2.759,4.533" transform="translate(-148.126 -32.622)" fill="#8c7a70"/>
                <path id="パス_34228" data-name="パス 34228" d="M246.726,90.291c-.221-.289-.305-.181-.367.074a3.982,3.982,0,0,1-1.582,1.851c-.854.617-1.247.9-1.953,1.326-.255.155-.311.4.115.336a13.557,13.557,0,0,0,4.1-1.505,1.116,1.116,0,0,1,.6-.147.388.388,0,0,0,.271-.642,11.78,11.78,0,0,1-1.185-1.292" transform="translate(-141.508 -52.779)" fill="#8c7a70"/>
                <path id="パス_34229" data-name="パス 34229" d="M262.862,92.524a17.924,17.924,0,0,0-2.98-1.071c-.308-.119-.391.161-.135.322a13.058,13.058,0,0,1,3.286,3.209c.48.658,1.06.536,1.173-.354s-.883-1.833-1.344-2.106" transform="translate(-151.405 -53.543)" fill="#8c7a70"/>
                <path id="パス_34230" data-name="パス 34230" d="M93.218,67.965c.084,0,.867,0,1.1,0s.32.081.275.284a17.392,17.392,0,0,1-2.125,4.614c-.222.292.067.208.214.083A11.625,11.625,0,0,0,95,69.788c.043-.105.148-.1.153.085,0,.15.023,2.38-.057,3.383-.067.843.017,1.084.4,1.077a.618.618,0,0,0,.573-.711c-.051-.9-.125-3.945-.126-4.1s.081-.2.14-.023A12.424,12.424,0,0,0,97.874,72.6a.154.154,0,0,0,.235,0,7.831,7.831,0,0,1,.906-.679c.149-.087.065-.231-.03-.281a6.833,6.833,0,0,1-2.857-3.458c-.062-.185.138-.21.359-.212.274,0,1.572,0,1.783,0s.415-.056.413-.213c0-.237-.583-.709-.742-.863s-.247-.046-.314.09c-.1.212-.249.591-.58.593s-.724,0-.882,0-.228-.089-.235-.278c0-.159-.025-1.424-.026-1.548s.067-.213.176-.214,1.4,0,1.548,0c.358,0,.407-.217.278-.385s-.353-.481-.516-.674-.239-.107-.323.036c-.224.385-.287.653-.54.655l-.36,0c-.2,0-.263-.056-.265-.238s-.027-1.516-.028-1.75c0-.365.413-.361.413-.617s-.533-.329-.994-.527c-.1-.045-.368-.112-.3.193s.156,2.572.158,2.736-.041.213-.277.215-.244.006-.443.009c-.075,0-.109-.041-.07-.143.135-.364.259-.744.3-.82.059-.1.211-.231-.02-.339a5.5,5.5,0,0,0-.692-.283c-.241-.074-.333-.045-.33.264a7.372,7.372,0,0,1-.118,1.357,8.067,8.067,0,0,1-.538,2.217.077.077,0,0,1-.136.025,3,3,0,0,0-.777-.584A.086.086,0,0,1,92,66.788c0-.175.014-.655.013-.759,0-.13.042-.278.26-.279h.348c.293,0,.676.011.739-.2.054-.179-.318-.56-.6-.837-.115-.113-.228-.166-.309,0-.123.254-.263.64-.381.642-.016,0-.053,0-.053-.07S92,63.533,92,63.162s.3-.409.3-.593c0-.241-.532-.268-.993-.469-.1-.044-.42-.1-.3.193a19.514,19.514,0,0,1,.159,2.809c0,.121-.009.263-.215.265h-.583a.572.572,0,0,1-.257-.046c-.2-.083-.288-.023-.229.18.052.179,0,.324.411.282.13-.014.37-.022.648-.027.147,0,.227.065.228.215a23.333,23.333,0,0,1-1.5,5.528c-.085.194.008.283.157.1.093-.116,1.068-1.907,1.19-2.193.052-.121.178-.179.179.031,0,.28.013,1.789.014,1.976,0,.541-.155,1.923-.151,2.385,0,.334.1.532.369.529A.609.609,0,0,0,92,73.85c.1-.489-.026-2.33-.035-3.57,0-.508.02-2.56.019-2.684s.055-.2.139-.092c.233.285.3,1.376.614,1.374.246,0,.4-.389.4-.723a1.065,1.065,0,0,0-.014-.126c0-.022.007-.064.091-.064m1.913-.671c0,.214-.089.277-.278.278H93.305c-.139,0-.143-.043-.088-.149.181-.344.737-1.382.908-1.78.025-.06.065-.112.116-.112.263,0,.578,0,.718,0s.183.112.184.256-.013,1.33-.014,1.507" transform="translate(-52.274 -36.308)" fill="#8c7a70"/>
                <path id="パス_34231" data-name="パス 34231" d="M117.53,78.406c-.146.04-1.439.416-1.571.456-.173.049-.237-.034-.241-.257s-.018-2.707-.019-2.836.04-.275.226-.276l1.209-.009c.317,0,.437-.17.273-.4a6.466,6.466,0,0,0-.7-.791c-.15-.13-.21-.068-.252.011-.127.239-.285.774-.626.777-.3,0-1.622,0-1.843,0a1.4,1.4,0,0,1-.681-.091c-.151-.075-.195-.012-.194.093,0,.124.043.178.22.409.113.147.293.031.754.029.108,0,.314-.01.531-.012a.255.255,0,0,1,.282.276c0,.132.011,1.56.011,1.56s.011,1.458.012,1.583a.263.263,0,0,1-.221.284c-.163.044-.632.167-.854.216-.1.02-.4.136-.581.048-.293-.148-.5-.24-.412.2a8.141,8.141,0,0,0,.528,1.274c.1.226.187.183.381-.031a1.259,1.259,0,0,1,.453-.381c.906-.411,3.29-1.775,3.45-1.884.053-.036.135-.1.1-.2-.02-.054-.085-.086-.235-.044" transform="translate(-65.808 -43.463)" fill="#8c7a70"/>
                <path id="パス_34232" data-name="パス 34232" d="M226.042,64.447c-3.416-.331-6.151-2.483-6.163-4.01,0-.1.055-.138.183-.138h2.006c.131,0,.257.01.258.191s0,.285,0,.37c0,.4.019.836.409.833.427,0,.948-.443.941-1.339s-.107-1.3-.114-2.242-.012-1.709-.017-2.218.4-.585.568-.706.3-.269.192-.45a13.228,13.228,0,0,0-1.081-1.144c-.4-.412-.442-.126-.488-.008-.142.363-.335.6-.712.6-.17,0-5.778,0-5.911,0a.644.644,0,0,1-.287-.052c-.338-.194-.829-.47-1.152-.648-.149-.081-.275-.065-.252.191a31.035,31.035,0,0,1,.137,3.53,33.269,33.269,0,0,1-.1,3.689c-.028.5.257.564.494.562.218,0,.674.035.912-.957.018-.076.041-.2.192-.2H217.6c.142,0,.288.059.289.206.006.867-3.469,5.028-5.6,6.292-.144.086-.271.288.042.189a14.76,14.76,0,0,0,4.045-2.306.178.178,0,0,1,.32.084,7.472,7.472,0,0,1,.071,1.81c-.139,2.181-.57,4.165-2.964,5.123-.29.116-.393.35.055.307,2.173-.213,4.214-1.937,4.343-6.155a.776.776,0,0,1,.191-.522c.16-.2.287-.578-.095-.728-.3-.12-.908-.359-1.035-.418s-.144-.155-.045-.285a15.668,15.668,0,0,0,1.988-2.548c.082-.13.235-.268.436.168a11.06,11.06,0,0,0,2.068,2.9c.113.1.056.181-.088.138s-.936-.312-1.2-.419-.342.079-.324.266a9.193,9.193,0,0,1,.215,1.378c0,.539.048,1.758.056,2.8a24.031,24.031,0,0,1-.065,3.159c-.083.64.155.858.555.856a.861.861,0,0,0,.854-.87c.073-1.173-.108-2.518-.118-3.889,0-.456.015-1.439.029-2.007.005-.228.063-.283.318-.473.135-.1.242-.215.2-.392s.1-.1.186.007a8.26,8.26,0,0,0,2.258,1.267c.311.1.348-.07.461-.241a2.863,2.863,0,0,1,1.163-1.178c.363-.2.124-.337-.163-.365m-10.216-9.388c0-.191.1-.277.234-.278s2.023-.029,2.136-.029c.169,0,.263.1.264.288,0,.21.01,1.3.011,1.486s-.083.266-.22.266h-2.147a.24.24,0,0,1-.269-.246c0-.156-.009-1.3-.011-1.487m.313,4.623c-.155,0-.28-.048-.281-.255s-.012-1.588-.013-1.792a.285.285,0,0,1,.278-.3h2.144a.212.212,0,0,1,.215.231c0,.16.013,1.76.013,1.9,0,.186-.11.222-.251.223-.112,0-1.95,0-2.105,0m3.712-4.652c0-.2.092-.277.234-.278s1.853,0,1.99,0c.158,0,.263.054.264.259s.009,1.3.011,1.487-.1.294-.228.294c-.094,0-1.931,0-2.011,0-.139,0-.248-.07-.249-.276s-.01-1.283-.011-1.486m.013,2.571c0-.172.087-.267.215-.268h2c.141,0,.28.021.281.256s-.015,1.508-.013,1.763-.157.33-.252.331h-1.947a.255.255,0,0,1-.27-.279c0-.187-.012-1.63-.012-1.8" transform="translate(-123.724 -31.261)" fill="#8c7a70"/>
                <path id="パス_34233" data-name="パス 34233" d="M195.5,60.367a11.792,11.792,0,0,0-.981-1.212c-.2-.2-.314-.212-.453.048-.233.436-.325,1.269-.9,1.274-.05,0-.737,0-.91,0s-.275-.061-.276-.251c0-.221.06-3.2.057-3.7-.006-.8.587-.8.584-1.137,0-.421-.586-.38-1.121-.6a6.756,6.756,0,0,0-.746-.256c-.35-.087-.469-.006-.375.427a22.706,22.706,0,0,1,.223,3.438c.005.7.009,1.6.01,1.772a.258.258,0,0,1-.275.3c-.2,0-1.174,0-1.369,0s-.277-.072-.276-.238.018-3.485.018-3.554c0-.2-.009-.325.353-.714s.128-.577-.063-.683-.991-.476-1.265-.573-.576-.173-.512.267c.139.947.179,5.1.18,5.221a.262.262,0,0,1-.275.274c-.2,0-1.42,0-1.632,0s-.278-.044-.279-.258.015-3.546.015-3.618a.774.774,0,0,1,.277-.677c.355-.4.128-.578-.063-.683s-.915-.43-1.189-.527-.515-.177-.511.268c0,0,.137,1.279.144,2.264,0,.484.016,2.832.017,2.981s-.051.247-.274.249-.826,0-1.153,0a4.1,4.1,0,0,1-.817-.049c-.119-.038-.445-.229-.379.146a1.88,1.88,0,0,0,.2.572c.115.232.331,0,.691,0,.04,0,1.325,0,1.506,0s.236.154.237.293.011,1.892.011,1.892-.043,8.322-.048,8.7.067.876.605.871a.894.894,0,0,0,.97-.886c.008-.108.077-.167.21-.168,1.861-.014,8.452,0,8.666,0,.432,0,.821-.307.518-.75a10.01,10.01,0,0,0-1.089-1.259c-.173-.2-.324-.116-.383,0-.095.19-.421.775-.561,1.037s-.206.359-.447.361-5.255-.012-6.748,0c-.264,0-.283-.261-.285-.608,0-.608-.088-4-.113-7.343-.005-.7,0-1.686,0-1.848s.05-.293.234-.295,1.458,0,1.672,0,.276.133.277.222,0,1.772,0,1.964c.011,1.5-.081,4.067-.07,5.541.01,1.425,1.542,1.258,1.531-.167,0-.2-.021-.791-.022-.9a.187.187,0,0,1,.187-.21h1.47c.12,0,.172.118.173.225s0,.329,0,.486c0,.515.184.788.523.785.263,0,.941-.253.938-.711,0-.254-.153-6.952-.153-7.055s.052-.183.273-.185,2.044.024,2.772,0c.472-.016.8-.3.467-.775m-6.686,6.358c0-.108-.106-2.906-.11-3.439,0-.64-.007-1.812-.008-1.916s.074-.225.278-.227,1.266,0,1.421,0,.236.073.236.189.031,5.232.037,5.365-.067.253-.184.254h-1.5c-.138,0-.168-.116-.169-.225" transform="translate(-105.725 -31.925)" fill="#8c7a70"/>
                <path id="パス_34234" data-name="パス 34234" d="M166.563,74.044a6.586,6.586,0,0,0-.705-.767c-.155-.15-.219-.2-.373.051-.359.585-.308.717-.646.721h-.5c-.178,0-.245-.121-.246-.281s-.038-5.067-.039-5.2a.208.208,0,0,1,.2-.234c.118,0,1.089,0,1.339,0,.358,0,.458-.142.321-.393a6.447,6.447,0,0,0-.7-.767c-.154-.15-.244-.256-.346.021-.217.59-.217.706-.546.71-.193,0-.265-.045-.267-.283s-.019-2.383-.022-2.8a.854.854,0,0,1,.34-.692c.224-.223.106-.413-.124-.474-.369-.1-.821-.211-.969-.27-.257-.1-.3.038-.264.189a4.479,4.479,0,0,1,.119.977c.006.825.02,2.94.021,3.08a.24.24,0,0,1-.269.277c-.223,0-.468,0-.536,0a1.013,1.013,0,0,1-.422-.061c-.23-.108-.376,0-.224.329.127.278.343.163.624.16h.633a.221.221,0,0,1,.2.244c0,.167.036,5.066.037,5.2s-.056.273-.242.274H161.54a1.025,1.025,0,0,1-.421-.053c-.231-.109-.376-.041-.225.293.126.278.343.167.624.165s4.1,0,4.723,0c.357,0,.458-.157.321-.409" transform="translate(-93.803 -37.096)" fill="#8c7a70"/>
              </g>
            </g>
          </g>
          <g id="グループ_40288" data-name="グループ 40288" transform="translate(-23 399)">
            <rect id="長方形_603" data-name="長方形 603" width="230" height="26" rx="13" transform="translate(289 1721)" fill="#222"/>
            <text id="リーシングマネジメント_LM_" data-name="リーシングマネジメント(LM)" transform="translate(299 1739)" fill="#fff" font-size="14" font-family="YuGo-Bold, YuGothic" font-weight="700" letter-spacing="0.12em"><tspan x="0" y="0">リーシングマネジメント(LM)</tspan></text>
          </g>
          <text id="_テナント管理_賃料請求" data-name="・テナント管理
・賃料請求" transform="translate(408 2170)" fill="#222" font-size="14" font-family="YuGo-Medium, YuGothic" font-weight="500" letter-spacing="0.12em"><tspan x="0" y="0">・テナント管理</tspan><tspan x="0" y="24">・賃料請求</tspan></text>
        </g>
        <g id="グループ_40292" data-name="グループ 40292" transform="translate(12)">
          <g id="グループ_40291" data-name="グループ 40291">
            <g id="グループ_40289" data-name="グループ 40289" transform="translate(127 387)">
              <rect id="長方形_604" data-name="長方形 604" width="109" height="66" transform="translate(486 1659)" fill="#222"/>
              <path id="多角形_7" data-name="多角形 7" d="M47.5,0,95,29H0Z" transform="translate(619 1645) rotate(90)" fill="#222"/>
            </g>
            <text id="フロア賃貸" transform="translate(630 2085)" fill="#fff" font-size="16" font-family="YuGo-Bold, YuGothic" font-weight="700" letter-spacing="0.12em"><tspan x="0" y="0">フロア賃貸</tspan></text>
            <g id="グループ_40290" data-name="グループ 40290" transform="translate(1232 3867) rotate(180)">
              <rect id="長方形_604-2" data-name="長方形 604" width="109" height="66" transform="translate(486 1659)" fill="#222"/>
              <path id="多角形_7-2" data-name="多角形 7" d="M47.5,0,95,29H0Z" transform="translate(619 1645) rotate(90)" fill="#222"/>
            </g>
          </g>
          <text id="賃料" transform="translate(670 2181)" fill="#fff" font-size="16" font-family="YuGo-Bold, YuGothic" font-weight="700" letter-spacing="0.12em"><tspan x="0" y="0">賃料</tspan></text>
        </g>
        <g transform="matrix(1, 0, 0, 1, 194, 2015)" filter="url(#長方形_661)">
          <rect id="長方形_661-2" data-name="長方形 661" width="208" height="201" rx="8" transform="translate(636 12)" fill="#4054a0"/>
        </g>
      </g>
      <text id="入居テナント" transform="translate(934 2134)" fill="#fff" font-size="20" font-family="YuGo-Bold, YuGothic" font-weight="700" letter-spacing="0.12em"><tspan x="-66" y="0">入居テナント</tspan></text>
    </g>
  </g>
</svg>
