<svg xmlns="http://www.w3.org/2000/svg" xmlns:xlink="http://www.w3.org/1999/xlink" width="327" height="95" viewBox="0 0 327 95">
  <defs>
    <clipPath id="clip-path">
      <rect id="長方形_448" data-name="長方形 448" width="97.313" height="18.488" fill="none"/>
    </clipPath>
  </defs>
  <g id="グループ_40892" data-name="グループ 40892" transform="translate(-22490 478)">
    <g id="グループ_40465" data-name="グループ 40465">
      <g id="グループ_40464" data-name="グループ 40464" transform="translate(22466 -1840)">
        <g id="グループ_40400" data-name="グループ 40400" transform="translate(24 1362)">
          <g id="長方形_687" data-name="長方形 687" fill="#fff" stroke="#222" stroke-width="2">
            <rect width="146" height="95" rx="8" stroke="none"/>
            <rect x="1" y="1" width="144" height="93" rx="7" fill="none"/>
          </g>
          <g id="グループ_40397" data-name="グループ 40397" transform="translate(24 8.019)">
            <path id="パス_34184" data-name="パス 34184" d="M8.046,15.489l.894.455L5.066,17.918,1.192,15.944l.894-.455,2.98,1.518ZM5.96,14.426l.895.455-1.788.911-1.788-.911.895-.455.894.455Zm-4.768-.608.894-.455.894.455-.894.456Zm5.96,0,.894-.455.894.455-.894.456ZM3.278,12.756l.895-.456.894.456-.894.455ZM5.96,12.3l.895.456-.895.455-.894-.455Zm-4.768-.608.894-.455.894.455-.894.456Zm5.96,0,.894-.455.894.455-.894.456ZM3.278,10.63l.895-.456.894.456-.894.454Zm2.682-.456.895.456-.895.454-.894-.454ZM1.192,9.567l.894-.455.894.455-.894.456Zm5.96,0,.894-.455.894.455-.894.456ZM3.278,8.5l.895-.455.894.455-.894.456ZM5.96,8.049l.895.455L5.96,8.96,5.066,8.5ZM1.192,7.441l.894-.456.894.456L2.086,7.9Zm5.96,0,.894-.456.894.456L8.046,7.9ZM3.278,6.378l.895-.456.894.456-.894.455ZM5.96,5.923l.895.456-.895.455-.894-.455ZM1.192,5.315l.894-.455.894.455-.894.455Zm5.96,0,.894-.455.894.455-.894.455ZM3.278,4.252l1.788-.911,1.788.911-.895.455-.894-.455-.894.455ZM1.192,3.189,5.066,1.215,8.94,3.189l-.894.456L5.066,2.126,2.086,3.645ZM5.066,0,0,2.581V3.8l.894.455L0,4.708V5.923l.894.456L0,6.833V8.049L.894,8.5,0,8.96v1.214l.894.456L0,11.084V12.3l.894.456L0,13.211v1.216l.894.455L0,15.337v1.215l5.066,2.582,5.066-2.582V15.337l-.894-.455.894-.455V13.211l-.894-.455.894-.456V11.084l-.894-.454.894-.456V8.96L9.239,8.5l.894-.455V6.833l-.894-.455.894-.456V4.708l-.894-.455.894-.455V2.581Z" transform="translate(2.158)" fill="#4054a0"/>
            <g id="グループ_323" data-name="グループ 323">
              <g id="グループ_322" data-name="グループ 322" clip-path="url(#clip-path)">
                <path id="パス_34185" data-name="パス 34185" d="M92.492,18.416a.282.282,0,0,0,.263.137,1.309,1.309,0,0,0,.635-.14.225.225,0,0,1,.118-.056.24.24,0,0,1,.149.063.178.178,0,0,1,.074.126.089.089,0,0,1-.059.088,1.392,1.392,0,0,0-.485.394,1.766,1.766,0,0,0-.424,1.124.652.652,0,0,0,.656.718.865.865,0,0,0,.808-.49,1.872,1.872,0,0,0,.177-.88,4.329,4.329,0,0,0-.081-.984.462.462,0,0,1-.015-.089c0-.048.043-.084.111-.084a.171.171,0,0,1,.119.034.4.4,0,0,1,.055.2,2.148,2.148,0,0,0,.229.645,2.211,2.211,0,0,0,.408.539.473.473,0,0,1,.145.294c0,.111-.053.174-.137.174-.059,0-.142-.063-.239-.222a4.314,4.314,0,0,1-.247-.47,4.691,4.691,0,0,1-.229-.642L94.5,18.9a7.036,7.036,0,0,1,.063.855,1.564,1.564,0,0,1-.329,1.072,1.014,1.014,0,0,1-.812.334.871.871,0,0,1-.875-.978A2.214,2.214,0,0,1,93.2,18.7a1.61,1.61,0,0,1-.392.055.382.382,0,0,1-.423-.272Z" transform="translate(-77.236 -15.351)" fill="#8c7a70"/>
                <path id="パス_34186" data-name="パス 34186" d="M124.448,18.209c-.022-.177-.022-.431-.026-.611a.735.735,0,0,0-.015-.185.2.2,0,0,0-.082-.1,1.447,1.447,0,0,0-.14-.081.022.022,0,0,1-.011-.022c0-.041.048-.063.125-.063a.841.841,0,0,1,.29.055c.122.04.166.085.166.154a1.05,1.05,0,0,1-.026.1,2.452,2.452,0,0,0-.036.482c0,.076,0,.159.006.236.012.218.027.269.12.269.037,0,.059-.008.151-.055s.3-.137.408-.188a.36.36,0,0,1,.148-.036.169.169,0,0,1,.182.143.153.153,0,0,1-.115.147,3.021,3.021,0,0,1-.349.111c-.748.2-1.226.541-1.226.873,0,.229.2.343.74.343a5.529,5.529,0,0,0,.891-.085.6.6,0,0,1,.1-.008.171.171,0,0,1,.163.17c0,.093-.041.129-.171.159a6.14,6.14,0,0,1-.783.047,1.686,1.686,0,0,1-.886-.159.482.482,0,0,1-.267-.434c0-.316.245-.6.82-.907-.134-.051-.161-.166-.183-.358" transform="translate(-103.504 -14.349)" fill="#8c7a70"/>
                <path id="パス_34187" data-name="パス 34187" d="M263.795,30.86c.548.123.982.406.982.715a.193.193,0,0,1-.185.214c-.089,0-.133-.03-.193-.147a1.678,1.678,0,0,0-.651-.7Z" transform="translate(-220.491 -25.828)" fill="#8c7a70"/>
                <path id="パス_34188" data-name="パス 34188" d="M282.288,17.352c.141.124.234.139.545.139.179,0,.422-.018.619-.036v-.32c0-.207-.033-.248-.151-.292-.052-.018-.074-.033-.074-.043,0-.041.07-.081.2-.081a.694.694,0,0,1,.23.054c.107.044.145.078.145.133,0,.027-.008.047-.048.1a.877.877,0,0,0-.063.42c.138-.018.279-.04.434-.07a.987.987,0,0,0,.215-.071.346.346,0,0,1,.158-.04c.141,0,.193.058.193.126a.125.125,0,0,1-.074.12,1.178,1.178,0,0,1-.29.067c-.248.041-.437.067-.644.088v.159c0,.137,0,.284,0,.394a2.435,2.435,0,0,0,.567-.13.243.243,0,0,1,.138-.036c.1,0,.166.055.166.128s-.045.1-.182.14a5.662,5.662,0,0,1-.681.111c.006.231.017.427.029.618a2.676,2.676,0,0,1,.778.313c.164.1.222.166.222.251a.136.136,0,0,1-.141.143.389.389,0,0,1-.2-.1,2.321,2.321,0,0,0-.652-.376.5.5,0,0,1-.067.289.6.6,0,0,1-.578.26c-.393,0-.655-.177-.655-.42s.322-.424.719-.424c.1,0,.233.011.34.022,0-.154-.007-.355-.012-.553-.159.015-.345.026-.5.026-.307,0-.437-.077-.445-.242a.942.942,0,0,1,.059-.248L282.7,18a.505.505,0,0,0-.019.117c0,.1.067.152.3.152.133,0,.345-.023.485-.04,0-.185-.007-.384-.011-.554-.233.018-.493.037-.645.037a.579.579,0,0,1-.593-.287Zm.815,1.805c-.337,0-.519.069-.519.225,0,.125.13.217.412.217a.609.609,0,0,0,.4-.1.368.368,0,0,0,.086-.284,2.117,2.117,0,0,0-.379-.056" transform="translate(-235.931 -13.992)" fill="#8c7a70"/>
                <path id="パス_34189" data-name="パス 34189" d="M310.833,17.647a.541.541,0,0,0,.443.118,1.8,1.8,0,0,0,.293-.033,3.233,3.233,0,0,0,.06-.546c0-.081-.034-.114-.138-.166-.033-.019-.055-.029-.055-.044a.036.036,0,0,1,.015-.025.215.215,0,0,1,.141-.034c.174,0,.415.129.415.228a.1.1,0,0,1-.037.089.187.187,0,0,0-.075.112c-.018.073-.052.213-.081.35.174-.041.307-.082.415-.118a.76.76,0,0,0,.164-.078.3.3,0,0,1,.162-.056.292.292,0,0,1,.134.029.115.115,0,0,1,.052.1c0,.062-.037.1-.215.162a5.052,5.052,0,0,1-.76.188c-.069.35-.129.63-.2.994a1.841,1.841,0,0,1,1.135-.476c.467,0,.775.266.775.638,0,.762-1.2.914-1.854.914l-.015-.108c.671-.084,1.546-.294,1.546-.858,0-.262-.171-.417-.489-.417a1.218,1.218,0,0,0-.719.283,1.235,1.235,0,0,0-.322.314.176.176,0,0,1-.137.115.311.311,0,0,1-.2-.3c0-.056.052-.134.093-.3.055-.224.111-.48.155-.769-.122.011-.222.017-.3.017a.5.5,0,0,1-.474-.26Z" transform="translate(-259.786 -14.159)" fill="#8c7a70"/>
                <path id="パス_34190" data-name="パス 34190" d="M340.417,17.614a.481.481,0,0,0,.3.084,2.772,2.772,0,0,0,.594-.072,2.165,2.165,0,0,0,.126-.258.6.6,0,0,0,.052-.17.051.051,0,0,0-.019-.04.563.563,0,0,0-.155-.089c-.026-.012-.037-.019-.037-.034s.041-.051.1-.051c.227,0,.456.1.456.2,0,.034-.011.048-.044.085a1.618,1.618,0,0,0-.1.137c-.04.054-.074.1-.13.188a3.079,3.079,0,0,0,.568-.2.321.321,0,0,1,.138-.037c.11,0,.17.062.17.136s-.078.119-.375.188-.493.115-.641.14a4.8,4.8,0,0,1-.449.557,1.243,1.243,0,0,1,.523-.189.451.451,0,0,1,.433.465c.253-.108.445-.184.723-.3.1-.04.129-.067.129-.11s-.033-.091-.114-.15a.047.047,0,0,1-.025-.041c0-.015.021-.022.054-.022a.53.53,0,0,1,.322.151.43.43,0,0,1,.156.228c0,.074-.059.1-.136.1a1.081,1.081,0,0,0-.312.067c-.263.088-.538.188-.778.283,0,.115,0,.258,0,.384,0,.151-.041.214-.137.214s-.123-.044-.123-.159c0-.092,0-.25,0-.35-.393.182-.564.388-.564.546,0,.217.2.291.589.291a3.909,3.909,0,0,0,.537-.048.844.844,0,0,0,.218-.045.358.358,0,0,1,.1-.018c.141,0,.252.077.252.177s-.056.141-.241.167c-.1.013-.385.035-.577.035-.72,0-1.065-.147-1.065-.523a.652.652,0,0,1,.174-.4,2.327,2.327,0,0,1,.575-.4c0-.3-.075-.391-.234-.391a1,1,0,0,0-.5.226,3.164,3.164,0,0,0-.307.25c-.092.091-.126.121-.186.121a.125.125,0,0,1-.126-.128.28.28,0,0,1,.107-.213c.067-.053.161-.111.249-.192a3.914,3.914,0,0,0,.488-.56,1.921,1.921,0,0,1-.388.045.511.511,0,0,1-.432-.2Z" transform="translate(-284.518 -14.215)" fill="#8c7a70"/>
                <path id="パス_34191" data-name="パス 34191" d="M369.925,22.725c1.07-.218,1.57-.63,1.57-1.19a.6.6,0,0,0-.659-.652,2.3,2.3,0,0,0-1,.308c-.152.086-.338.177-.448.254-.089.064-.159.125-.215.125a.41.41,0,0,1-.264-.146.333.333,0,0,1-.138-.262c0-.044.012-.066.034-.066a.087.087,0,0,1,.038.018.353.353,0,0,0,.229.1,1.671,1.671,0,0,0,.4-.14,3.249,3.249,0,0,1,1.364-.383.885.885,0,0,1,.989.875,1.077,1.077,0,0,1-.764,1.025,3.879,3.879,0,0,1-1.123.239Z" transform="translate(-308.293 -17.321)" fill="#8c7a70"/>
                <path id="パス_34192" data-name="パス 34192" d="M398.675,17.592a.474.474,0,0,0,.3.111,2.762,2.762,0,0,0,.511-.079,1.412,1.412,0,0,0,.122-.489c0-.052-.033-.1-.166-.166-.022-.01-.038-.014-.038-.029,0-.044.082-.066.152-.066a.851.851,0,0,1,.315.095c.059.037.089.071.089.108a.124.124,0,0,1-.034.083.987.987,0,0,0-.119.214c-.029.067-.055.136-.085.2a2.071,2.071,0,0,0,.2-.076,1.294,1.294,0,0,0,.13-.07.233.233,0,0,1,.1-.022c.089,0,.157.052.157.119s-.038.11-.142.151a4.535,4.535,0,0,1-.527.132c-.181.427-.37.866-.556,1.26-.125.269-.182.316-.271.316a.134.134,0,0,1-.13-.139.632.632,0,0,1,.133-.284,6.535,6.535,0,0,0,.575-1.1,2.629,2.629,0,0,1-.419.045.435.435,0,0,1-.37-.24Zm1.913.063a1.691,1.691,0,0,1,.645.15c.215.107.326.248.326.35a.121.121,0,0,1-.119.137.234.234,0,0,1-.119-.041.546.546,0,0,0-.293-.051c-.319,0-.423.1-.423.246a4.882,4.882,0,0,0,.118.733,2.418,2.418,0,0,1,.583.273.244.244,0,0,1,.145.221.122.122,0,0,1-.131.125c-.045,0-.085-.01-.167-.081a1.876,1.876,0,0,0-.41-.28c0,.405-.275.524-.62.524-.33,0-.564-.178-.564-.4,0-.258.264-.438.589-.438a2.647,2.647,0,0,1,.323.018c-.015-.143-.045-.358-.045-.5a.92.92,0,0,1,.029-.247c.072-.207.26-.32.6-.358.034,0,.052-.008.052-.03s-.018-.037-.037-.052a1.282,1.282,0,0,0-.519-.2Zm-.49,1.654c-.245,0-.381.107-.381.222,0,.135.137.216.381.216a.412.412,0,0,0,.323-.114.3.3,0,0,0,.067-.2.5.5,0,0,0,0-.066,1.333,1.333,0,0,0-.386-.056" transform="translate(-333.234 -14.123)" fill="#8c7a70"/>
                <path id="パス_34193" data-name="パス 34193" d="M431.333,17.353c0,.047-.019.081-.082.132-.322.251-.6.478-.907.752-.2.178-.215.211-.215.262s.018.092.108.166c.4.327.693.593.8.7.259.255.352.405.352.586,0,.108-.059.181-.148.181-.072,0-.112-.033-.2-.2a3.267,3.267,0,0,0-.407-.553,4.528,4.528,0,0,0-.516-.527c-.181-.155-.225-.228-.225-.343s.037-.165.207-.336c.241-.239.523-.518.752-.765a.233.233,0,0,0,.074-.148c0-.036-.037-.074-.108-.122-.048-.029-.067-.048-.067-.067s.041-.043.1-.043c.219,0,.475.174.475.321m.178.18a1.648,1.648,0,0,1,.568.325.327.327,0,0,1,.1.2c0,.069-.029.173-.115.173s-.108-.063-.145-.119a1.63,1.63,0,0,0-.471-.508Zm.319-.273a1.892,1.892,0,0,1,.56.251.273.273,0,0,1,.141.217c0,.064-.019.163-.1.163a.141.141,0,0,1-.111-.063,1.891,1.891,0,0,0-.541-.484Z" transform="translate(-359.393 -14.255)" fill="#8c7a70"/>
                <path id="パス_34194" data-name="パス 34194" d="M150.567,17.614a.483.483,0,0,0,.3.084,2.773,2.773,0,0,0,.593-.072,2.219,2.219,0,0,0,.126-.258.583.583,0,0,0,.053-.17.052.052,0,0,0-.019-.04.573.573,0,0,0-.156-.089c-.026-.012-.036-.019-.036-.034s.04-.051.1-.051c.227,0,.456.1.456.2,0,.034-.012.048-.044.085a1.638,1.638,0,0,0-.1.137c-.041.054-.076.1-.131.188a3.149,3.149,0,0,0,.569-.2.311.311,0,0,1,.136-.037c.112,0,.171.062.171.136s-.078.119-.375.188-.493.115-.641.14a4.8,4.8,0,0,1-.449.557,1.241,1.241,0,0,1,.523-.189.451.451,0,0,1,.434.465c.252-.108.444-.184.722-.3.1-.04.131-.067.131-.11s-.034-.091-.116-.15a.049.049,0,0,1-.026-.041c0-.015.023-.022.055-.022a.532.532,0,0,1,.322.151.433.433,0,0,1,.156.228c0,.074-.058.1-.136.1a1.077,1.077,0,0,0-.311.067c-.264.088-.538.188-.779.283,0,.115,0,.258,0,.384,0,.151-.041.214-.138.214s-.121-.044-.121-.159c0-.092,0-.25,0-.35-.394.182-.564.388-.564.546,0,.217.2.291.59.291a3.92,3.92,0,0,0,.537-.048.845.845,0,0,0,.219-.045.363.363,0,0,1,.1-.018c.141,0,.251.077.251.177s-.056.141-.241.167c-.1.013-.386.035-.578.035-.718,0-1.064-.147-1.064-.523a.65.65,0,0,1,.175-.4,2.314,2.314,0,0,1,.575-.4c0-.3-.076-.391-.234-.391a1,1,0,0,0-.5.226,3.163,3.163,0,0,0-.307.25c-.094.091-.127.121-.185.121a.125.125,0,0,1-.126-.128.277.277,0,0,1,.107-.213c.067-.053.158-.111.248-.192a3.955,3.955,0,0,0,.49-.56,1.93,1.93,0,0,1-.39.045.51.51,0,0,1-.43-.2Z" transform="translate(-125.805 -14.215)" fill="#8c7a70"/>
                <path id="パス_34195" data-name="パス 34195" d="M180.077,22.725c1.072-.218,1.572-.63,1.572-1.19a.6.6,0,0,0-.659-.652,2.307,2.307,0,0,0-1,.308c-.152.086-.337.177-.447.254-.09.064-.161.125-.216.125a.415.415,0,0,1-.264-.146.335.335,0,0,1-.136-.262c0-.044.011-.066.033-.066a.087.087,0,0,1,.037.018.354.354,0,0,0,.229.1,1.666,1.666,0,0,0,.4-.14,3.258,3.258,0,0,1,1.365-.383.886.886,0,0,1,.99.875,1.077,1.077,0,0,1-.764,1.025,3.89,3.89,0,0,1-1.123.239Z" transform="translate(-149.583 -17.321)" fill="#8c7a70"/>
                <path id="パス_34196" data-name="パス 34196" d="M208.82,17.592a.471.471,0,0,0,.3.111,2.755,2.755,0,0,0,.511-.079,1.428,1.428,0,0,0,.122-.489c0-.052-.033-.1-.166-.166-.022-.01-.037-.014-.037-.029,0-.044.081-.066.151-.066a.858.858,0,0,1,.316.095c.059.037.089.071.089.108a.121.121,0,0,1-.034.083.983.983,0,0,0-.118.214c-.03.067-.055.136-.086.2a1.93,1.93,0,0,0,.2-.076,1.3,1.3,0,0,0,.131-.07.229.229,0,0,1,.1-.022c.09,0,.156.052.156.119s-.037.11-.141.151a4.528,4.528,0,0,1-.526.132c-.183.427-.371.866-.557,1.26-.126.269-.182.316-.27.316a.135.135,0,0,1-.131-.139.622.622,0,0,1,.134-.284,6.461,6.461,0,0,0,.574-1.1,2.617,2.617,0,0,1-.418.045.435.435,0,0,1-.371-.24Zm1.913.063a1.689,1.689,0,0,1,.645.15c.215.107.327.248.327.35a.12.12,0,0,1-.119.137.226.226,0,0,1-.118-.041.548.548,0,0,0-.292-.051c-.319,0-.423.1-.423.246a5.055,5.055,0,0,0,.118.733,2.41,2.41,0,0,1,.583.273.244.244,0,0,1,.144.221.121.121,0,0,1-.13.125c-.045,0-.085-.01-.167-.081a1.851,1.851,0,0,0-.411-.28c0,.405-.275.524-.62.524-.329,0-.563-.178-.563-.4,0-.258.264-.438.589-.438a2.654,2.654,0,0,1,.324.018c-.015-.143-.044-.358-.044-.5a.927.927,0,0,1,.029-.247c.071-.207.259-.32.6-.358.034,0,.052-.008.052-.03s-.018-.037-.037-.052a1.281,1.281,0,0,0-.519-.2Zm-.489,1.654c-.244,0-.382.107-.382.222,0,.135.137.216.382.216a.412.412,0,0,0,.322-.114.292.292,0,0,0,.067-.2.412.412,0,0,0,0-.066,1.326,1.326,0,0,0-.385-.056" transform="translate(-174.516 -14.123)" fill="#8c7a70"/>
                <path id="パス_34197" data-name="パス 34197" d="M241.48,17.353c0,.047-.018.081-.081.132-.323.251-.6.478-.908.752-.2.178-.215.211-.215.262s.018.092.108.166c.4.327.692.593.8.7.26.255.352.405.352.586,0,.108-.06.181-.149.181-.069,0-.111-.033-.2-.2a3.309,3.309,0,0,0-.408-.553,4.515,4.515,0,0,0-.514-.527c-.182-.155-.227-.228-.227-.343s.038-.165.208-.336c.241-.239.522-.518.752-.765a.233.233,0,0,0,.074-.148c0-.036-.037-.074-.108-.122-.048-.029-.066-.048-.066-.067s.04-.043.1-.043c.218,0,.474.174.474.321m.179.18a1.613,1.613,0,0,1,.565.325.319.319,0,0,1,.105.2c0,.069-.03.173-.115.173s-.107-.063-.144-.119a1.609,1.609,0,0,0-.471-.508Zm.319-.273a1.926,1.926,0,0,1,.56.251.275.275,0,0,1,.14.217c0,.064-.018.163-.1.163a.141.141,0,0,1-.111-.063,1.9,1.9,0,0,0-.541-.484Z" transform="translate(-200.677 -14.255)" fill="#8c7a70"/>
                <path id="パス_34198" data-name="パス 34198" d="M250.605,72.469c0-.135-.282-.323-.481-.5-.056-.05-.112-.042-.151.036-.014.029-.047.115-.078.175s-.086.079-.243.08H247.92a.424.424,0,0,1-.194-.038c-.086-.04-.306-.19-.41-.254-.045-.027-.124-.072-.118.042.008.148.066,1.29.068,1.564s-.028,1.031-.032,1.361c0,.183.018.3.157.3a.462.462,0,0,0,.378-.337c.018-.056.045-.064.111-.064h1.837c.074,0,.146,0,.146.081,0,.043.016.312.178.311.2,0,.32-.2.344-.418s-.023-1.447-.009-1.919c0-.14.229-.238.228-.421m-.857,1.619a.1.1,0,0,1,.111.1c0,.043,0,.273,0,.334s-.022.115-.109.115h-1.9c-.09,0-.111-.049-.111-.1s0-.279,0-.334a.1.1,0,0,1,.109-.115h1.9m-.006-.853c.09,0,.111.054.111.1s0,.386,0,.442-.03.113-.078.113h-1.963c-.055,0-.079-.032-.08-.1s0-.393,0-.442a.1.1,0,0,1,.109-.115h1.9m-1.9-.19c-.09,0-.11-.044-.111-.1s0-.339,0-.385a.106.106,0,0,1,.108-.116h1.9a.1.1,0,0,1,.11.1c0,.049,0,.334,0,.385a.105.105,0,0,1-.109.116h-1.9" transform="translate(-206.657 -60.206)" fill="#8c7a70"/>
                <path id="パス_34199" data-name="パス 34199" d="M271.466,60.078a4.766,4.766,0,0,0,3.336-3.233.163.163,0,0,1,.182-.089c.047,0,.047,0,.215,0,.1,0,.138.014.139.092.006.856-.214,2.3-.671,2.324a2.14,2.14,0,0,1-.687-.134c-.045-.013-.074.026-.041.053a.931.931,0,0,1,.432.772c0,.108.011.162.145.162,1.112-.008,1.334-2.494,1.351-2.962,0-.045.006-.058.028-.075.051-.037.159-.1.183-.125a.112.112,0,0,0,.015-.168c-.113-.121-.516-.445-.551-.469s-.058-.029-.08.014c-.1.2-.116.324-.277.325h-2.452c-.056,0-.1-.013-.062-.079.058-.112.389-.838.429-.928s.078-.135.148-.137h1.241a.1.1,0,0,1,.108.1c-.016.177.014.344.207.342a.382.382,0,0,0,.348-.412c0-.131-.043-.326-.048-1.059,0-.345,0-.754.007-.947,0-.14.243-.153.242-.336,0-.135-.284-.308-.479-.5a.1.1,0,0,0-.176.026c-.02.04-.089.185-.139.273a.2.2,0,0,1-.187.085h-1.753a.371.371,0,0,1-.193-.046c-.091-.061-.522-.4-.565-.438s-.09.006-.063.078a5.753,5.753,0,0,1,.158,1.587,9.853,9.853,0,0,1-.049,1.326c-.038.207.034.322.174.321a.447.447,0,0,0,.411-.331.065.065,0,0,1,.056-.054c.069,0,.09.046.049.159a7.244,7.244,0,0,1-1.61,2.459c-.032.033-.014.061.02.044a5.027,5.027,0,0,0,1.439-1.3.092.092,0,0,1,.079-.043h.356c.068,0,.134.011.108.08a5,5,0,0,1-2.044,2.361c-.047.026-.024.058.025.049a3.988,3.988,0,0,0,2.59-2.393.174.174,0,0,1,.174-.1h.351c.081,0,.148.007.117.092a5.527,5.527,0,0,1-2.763,3.158c-.059.029-.023.085.03.072m3.057-6.881c.054,0,.077.018.078.1s0,.63.005.711a.109.109,0,0,1-.107.117H272.53a.1.1,0,0,1-.109-.1c0-.082,0-.649-.006-.711s.031-.114.076-.114h2.031M272.538,55.2c-.06,0-.108-.019-.109-.1s0-.561,0-.643a.1.1,0,0,1,.108-.117H274.5c.049,0,.108.013.109.1s0,.551,0,.642a.109.109,0,0,1-.109.118h-1.967" transform="translate(-226.485 -43.934)" fill="#8c7a70"/>
                <path id="パス_34200" data-name="パス 34200" d="M307.58,60.8c0-.647-.009-1.241-.016-1.476-.014-.465-.315-.408-.317-.624,0-.089.088-.182.235-.183.287,0,.7.52.7.808,0,.259-.091.23-.147.561a5.332,5.332,0,0,0-.06.785c.007.135.109.083.148.071s1.013-.415,1.312-.528c.231-.087.274-.218.415-.219.181,0,.3.152.44.329.295.376.275.6.182.695s-.27.015-.4.178a12.766,12.766,0,0,1-1.28,1.38c-.221.167-.317.017-.188-.158a13.6,13.6,0,0,0,1-1.624c.021-.06.032-.1-.078-.071-.221.068-1.32.559-1.46.623s-.117.147-.116.3.008,1.436.019,1.639c.015.282.057.565.732.56a7.693,7.693,0,0,0,1.363-.258.445.445,0,0,1,.37.347c.018.282-.048.38-.374.441a5.709,5.709,0,0,1-1.15.094c-.982.007-1.375-.44-1.342-1.724,0-.188.007-.9.006-1.029,0-.11-.076-.124-.132-.1l-.355.159c-.544.24-.6.492-.8.494a1.4,1.4,0,0,1-.629-.782c0-.237.115-.268.246-.082s.317.149.532.066.964-.405,1.023-.435.117-.068.116-.234" transform="translate(-255.533 -48.979)" fill="#8c7a70"/>
                <path id="パス_34201" data-name="パス 34201" d="M337.388,62.571c.393.46.469.848.678.847s.3-.283.3-.486c0-.648-.829-1.142-1.665-1.223-.136-.013-.156.077-.075.149a5.025,5.025,0,0,1,.76.713" transform="translate(-281.378 -51.646)" fill="#8c7a70"/>
                <path id="パス_34202" data-name="パス 34202" d="M342.251,66c-.85,1.187-3.206,3.631-3.662,3.635a.685.685,0,0,1-.372-.162c-.124-.092-.148.008-.147.1,0,.177.159.337.312.582s.309.5.471.5c.126,0,.112-.208.221-.309a13.907,13.907,0,0,0,3.281-4.282c.064-.134.016-.234-.1-.064" transform="translate(-282.624 -55.161)" fill="#8c7a70"/>
                <path id="パス_34203" data-name="パス 34203" d="M533.514,62.571c.393.46.469.848.678.847s.3-.283.3-.486c-.005-.648-.829-1.142-1.665-1.223-.136-.013-.157.077-.075.149a5.027,5.027,0,0,1,.76.713" transform="translate(-445.339 -51.646)" fill="#8c7a70"/>
                <path id="パス_34204" data-name="パス 34204" d="M538.376,66c-.85,1.187-3.206,3.631-3.662,3.635a.685.685,0,0,1-.372-.162c-.124-.092-.148.008-.147.1,0,.177.16.337.312.582s.309.5.471.5c.126,0,.112-.208.221-.309a13.913,13.913,0,0,0,3.281-4.282c.064-.134.016-.234-.1-.064" transform="translate(-446.583 -55.161)" fill="#8c7a70"/>
                <path id="パス_34205" data-name="パス 34205" d="M366.409,56.687c0-.179-.3-.757-.494-.756s-.173.207-.591.256c-.148.017-.607.117-.519-.052a.542.542,0,0,0,.116-.28c0-.159-.472-.7-.686-.7a.292.292,0,0,0-.252.208c0,.113.235.178.237.456a9,9,0,0,1-1.769,2.8c-.126.141.015.252.175.138a5.311,5.311,0,0,0,.786-.7c.116-.11.2-.063.248-.023a5.116,5.116,0,0,1,.77,1c.065.136-.036.321-.113.457a12.029,12.029,0,0,1-1.965,2.551c-.086.078-.087.309.267.067a11.124,11.124,0,0,0,3.411-4.91c.045-.115.381-.336.379-.514m-.877.231a16.05,16.05,0,0,1-.657,1.537c-.037.069-.079.1-.14.051a2.661,2.661,0,0,0-.885-.758c-.092-.047-.061-.12-.007-.2.166-.215.383-.546.485-.7s.187-.038.429-.039.544-.059.7-.061.1.1.075.166" transform="translate(-302.883 -46.163)" fill="#8c7a70"/>
                <path id="パス_34206" data-name="パス 34206" d="M389.629,72.87a27.426,27.426,0,0,1-3.969.219.36.36,0,0,1-.257-.1c-.054-.047-.27-.282-.3-.314s-.118-.045-.117.1c0,.471.068.338.232.725s.262.439.38.438c.221,0,.235-.181.556-.2s2.554-.072,3.712-.025c.211.008.316-.157.314-.387a.471.471,0,0,0-.546-.461" transform="translate(-321.842 -60.809)" fill="#8c7a70"/>
                <path id="パス_34207" data-name="パス 34207" d="M421.568,63.43a3.82,3.82,0,0,1-1.669.361c-.6,0-.673-.248-.693-.628-.014-.272-.02-1.186-.012-1.8a.077.077,0,0,1,.079-.087,8.979,8.979,0,0,0,1.8-.318c.507-.09.573-.257.572-.416a.358.358,0,0,0-.247-.34c-.421-.193-.531.033-.681.139a3,3,0,0,1-1.422.454c-.054,0-.082-.02-.079-.08.022-.46.058-.931.065-1.12.014-.385.189-.423.187-.6s-.152-.311-.324-.479c-.145-.143-.224-.3-.493-.294s-.358.137-.357.228c0,.133.17.138.328.333a.563.563,0,0,1,.173.45c0,.189.012,1.228.017,1.874s-.162,2.6.357,3.035,1.738.265,2.527.122a.5.5,0,0,0,.418-.536c0-.161-.248-.3-.544-.3" transform="translate(-349.688 -48.727)" fill="#8c7a70"/>
                <path id="パス_34208" data-name="パス 34208" d="M440.025,59.839c0-.324-.356-.684-.973-.68-.1,0-.153.059-.06.142.348.308.612.84.845.838.115,0,.189-.169.188-.3" transform="translate(-366.953 -49.513)" fill="#8c7a70"/>
                <path id="パス_34209" data-name="パス 34209" d="M436.737,63.07c-.1,0-.154.059-.06.142.347.307.494.946.78.944.115,0,.189-.169.188-.3a.948.948,0,0,0-.908-.785" transform="translate(-365.018 -52.786)" fill="#8c7a70"/>
                <path id="パス_34210" data-name="パス 34210" d="M586.7,51.965c-.154,0-.168.09-.1.144.37.293.735.849.91.848.115,0,.165-.169.164-.3,0-.324-.357-.7-.974-.692" transform="translate(-490.361 -43.492)" fill="#8c7a70"/>
                <path id="パス_34211" data-name="パス 34211" d="M583.914,55.492c-.1-.009-.1.091-.009.18.341.344.64.966.842.965.115,0,.2-.127.2-.258,0-.431-.6-.852-1.028-.887" transform="translate(-488.084 -46.444)" fill="#8c7a70"/>
                <path id="パス_34212" data-name="パス 34212" d="M507,55.828c.453.318.664.835.916.833.115,0,.189-.169.188-.3,0-.325-.427-.68-1.044-.675-.1,0-.162.07-.06.142" transform="translate(-423.804 -46.607)" fill="#8c7a70"/>
                <path id="パス_34213" data-name="パス 34213" d="M504.233,59.422c.421.362.5.958.831.955.115,0,.2-.144.2-.334,0-.339-.529-.682-.989-.761-.1-.017-.135.059-.041.14" transform="translate(-421.489 -49.614)" fill="#8c7a70"/>
                <path id="パス_34214" data-name="パス 34214" d="M446.168,63.163a.2.2,0,0,0-.21.173c0,.184.274.183.277.595a7.766,7.766,0,0,1-.964,4.324c-.047.083-.05.169-.013.189s.111,0,.251-.177a6.484,6.484,0,0,0,1.243-3.908c.011-.176.155-.337.154-.465a.961.961,0,0,0-.737-.731" transform="translate(-372.211 -52.864)" fill="#8c7a70"/>
                <path id="パス_34215" data-name="パス 34215" d="M460.819,62.443a12.159,12.159,0,0,1-2.329,2.41c-.1.066-.111.012-.113-.04-.026-.546.035-2.641.059-2.928s.173-.291.171-.474-.151-.293-.279-.46a.738.738,0,0,0-.428-.306.228.228,0,0,0-.212.192c0,.148.293.141.3.7.008.515-.039,2.916-.048,3.283a4.986,4.986,0,0,1-.087.537,1.427,1.427,0,0,0,.127.445c.074.19.158.381.312.38.206,0,.136-.265.349-.488a11.925,11.925,0,0,0,2.309-3.11c.095-.207-.087-.216-.133-.137" transform="translate(-382.623 -50.757)" fill="#8c7a70"/>
                <path id="パス_34216" data-name="パス 34216" d="M486.107,55.717a15.382,15.382,0,0,1,2.006-.341.358.358,0,0,0,.355-.3c0-.248-.453-.423-.627-.421-.154,0-.161.125-.4.185a13.392,13.392,0,0,1-1.515.325c-.358,0-.4-.23-.564-.229a.111.111,0,0,0-.106.122c0,.161.371.744.853.655" transform="translate(-405.669 -45.747)" fill="#8c7a70"/>
                <path id="パス_34217" data-name="パス 34217" d="M485.43,66.037a.646.646,0,0,0-.6-.547c-.174,0-.211.206-.553.226a14.939,14.939,0,0,0-2.776.447.519.519,0,0,1-.49-.061c-.122-.1-.213-.326-.292-.288-.049.023-.063.123-.061.3,0,.217.1.258.226.442s.226.371.411.37c.163,0,.287-.165.623-.259.232-.064.718-.164.8-.175a.116.116,0,0,1,.148.081.772.772,0,0,1,.111.418,9.658,9.658,0,0,1-1.532,4.042c-.069.088-.057.236.141.088,1.026-.762,1.825-3.073,1.992-3.941.035-.183-.23-.562-.3-.652-.054-.072.011-.119.13-.133a8.423,8.423,0,0,1,1.329-.051c.174.009.223.058.392.057s.293-.137.291-.364" transform="translate(-401.829 -54.812)" fill="#8c7a70"/>
                <path id="パス_34218" data-name="パス 34218" d="M511.236,61.892c-.09,0-.138.041-.138.108,0,.1.125.133.126.283a13.764,13.764,0,0,1-2.328,3.9c-.029.027-.072.084-.051.113s.072.017.124-.015a5.781,5.781,0,0,0,1.611-1.608c.051-.08.111-.039.125.1a12.622,12.622,0,0,1,.049,1.327,7.707,7.707,0,0,1-.06,1.251c-.045.267.06.812.287.811.106,0,.18-.1.179-.268,0-.233-.01-1.386-.013-1.819s.038-.754.036-1.107a.986.986,0,0,0-.285-.632c-.049-.056-.025-.109.017-.185.069-.124.4-.722.565-1.05.086-.174.36-.116.359-.343,0-.242-.373-.87-.6-.868" transform="translate(-425.387 -51.8)" fill="#8c7a70"/>
                <path id="パス_34219" data-name="パス 34219" d="M565.454,54.523c-.129,0-.14.109-.307.162a3.479,3.479,0,0,1-.7.168c-.185,0-.235-.035-.19-.156a.842.842,0,0,0,.1-.317c0-.3-.463-.828-.7-.827a.224.224,0,0,0-.25.2c0,.181.258.186.26.535a7.927,7.927,0,0,1-1.66,2.783c-.195.2-.034.289.129.174a8.074,8.074,0,0,0,1.707-1.976c.173-.237.3.093.7.09a2.468,2.468,0,0,0,.453-.037c.059-.018.167-.045.113.106a14.224,14.224,0,0,1-3.158,5.183c-.271.254-.019.325.115.232a11.092,11.092,0,0,0,3.475-4.975c.078-.2.089-.157.293-.275s.168-.447.052-.613-.311-.461-.439-.46" transform="translate(-469.693 -44.822)" fill="#8c7a70"/>
                <path id="パス_34220" data-name="パス 34220" d="M154.794,65.564c.124,0,.161-.174.16-.274,0-.222-.086-.312-.323-.463-.144-.092-.207-.1-.161-.193s.208-.372.287-.526c.049-.095.079-.06.157-.1s.079-.117.026-.2a1.688,1.688,0,0,0-.258-.263c-.078-.069-.106-.005-.118.028-.006.018-.021.068-.046.127s-.054.083-.1.083-.065-.03-.065-.108a4.306,4.306,0,0,1,0-.5c.012-.051.078-.089.143-.166s.006-.14-.06-.166-.273-.059-.339-.092c-.049-.024-.152-.048-.151.1a1.94,1.94,0,0,1,.063.47c0,.158.006.311.006.367s-.024.092-.084.092-.182,0-.29-.007c-.091-.006-.1.031-.1.061a.645.645,0,0,0,.079.132c.032.049.075-.032.166-.032l.513,0c.124,0,.11.047.076.133a9.773,9.773,0,0,1-.943,1.709c-.092.112-.038.171.079.071a5.162,5.162,0,0,0,.481-.518c.037-.053.066-.025.067.023,0,.085.014.641.011.866s-.02.693-.053,1.04c-.03.322.393.192.392-.023s-.032-.97-.035-1.32c0-.3,0-.9,0-.941,0-.071.039-.052.08,0,.119.16.209.58.333.579" transform="translate(-128.235 -52.512)" fill="#8c7a70"/>
                <path id="パス_34221" data-name="パス 34221" d="M135.834,64.08a2.682,2.682,0,0,1-1.6-1.416c-.015-.041.015-.055.037-.072.054-.041.057-.118-.023-.166s-.309-.175-.4-.231c-.106-.068-.111-.006-.128.149a5.646,5.646,0,0,1-1.451,2.359c-.094.1-.012.087.057.038a6.989,6.989,0,0,0,1.724-1.995c.042-.067.074-.039.12.087a4.037,4.037,0,0,0,1.192,1.675c.036.026.072.011.119-.033a3.465,3.465,0,0,1,.335-.29c.047-.03.084-.082.013-.1" transform="translate(-110.545 -52.031)" fill="#8c7a70"/>
                <path id="パス_34222" data-name="パス 34222" d="M137.268,73.458a2.087,2.087,0,0,1,.432-.028c.2,0,.865,0,1.036,0a.09.09,0,0,0,.1-.1c0-.064-.154-.227-.259-.356-.037-.045-.073-.042-.116.019-.06.086-.1.286-.22.287h-1.008c-.11,0-.266-.113-.231.006s.069.2.266.167" transform="translate(-114.529 -61.054)" fill="#8c7a70"/>
                <path id="パス_34223" data-name="パス 34223" d="M136.853,78.663a.061.061,0,0,0-.073.1,1.407,1.407,0,0,1,.3.454c.017.038,0,.062-.025.067-.217.036-.7.07-1.054.088-.042,0-.072-.009-.05-.049a11.51,11.51,0,0,0,.518-1.03.127.127,0,0,1,.124-.081c.391,0,.775,0,.86,0,.064,0,.1-.028.1-.085s-.194-.277-.3-.4c-.037-.045-.073-.042-.116.019-.06.086-.1.338-.221.339h-1.694c-.11,0-.266-.11-.232.008s.066.126.266.124.545,0,.647,0a.07.07,0,0,1,.076.082,3.573,3.573,0,0,1-.216,1.01c-.032.084-.082.083-.162.078a3.2,3.2,0,0,1-.527-.083c-.064-.02-.091.008-.05.12.027.073.17.45.195.495s.069.079.137-.007a.309.309,0,0,1,.194-.1c.076-.022,1.152-.272,1.558-.376.037-.01.072,0,.094.053.045.113.122.434.279.433.134,0,.2-.155.2-.3,0-.176-.213-.6-.831-.95" transform="translate(-112.85 -65.02)" fill="#8c7a70"/>
                <path id="パス_34224" data-name="パス 34224" d="M126.9,63.791c.081.117.118.251.237.251.067,0,.158-.092.157-.241s-.154-.338-.467-.352c-.119-.005-.144.048-.094.128.027.045.1.12.167.215" transform="translate(-105.931 -53.102)" fill="#8c7a70"/>
                <path id="パス_34225" data-name="パス 34225" d="M116.5,65.7c0-.072-.051-.048-.065,0a4.757,4.757,0,0,1-.218.579c-.072.131-.133.051-.158.011a6.409,6.409,0,0,1-.727-2.368c0-.076.031-.075.112-.075h.856c.13,0,.184-.113.116-.2a2.022,2.022,0,0,1-.237-.286c-.044-.069-.128-.1-.161.025s-.054.3-.2.3h-.41c-.067,0-.082-.045-.087-.106a3.974,3.974,0,0,1-.008-.605c.032-.146.123-.137.122-.221s-.074-.1-.128-.105-.234-.046-.3-.07-.141.027-.1.138a6.315,6.315,0,0,1,.084.87c0,.1-.04.1-.126.1-.487,0-.926,0-.926,0a4.3,4.3,0,0,1-.445-.013c-.179-.013-.188.008-.163.076.016.043.051.134.142.134.138,0,.259-.036.588-.038h.82c.083,0,.141-.008.146.1.062,1.2.766,3.26,1.377,3.256a.194.194,0,0,0,.174-.206c0-.123-.1-.2-.1-.432s.035-.793.034-.866" transform="translate(-94.728 -52.376)" fill="#8c7a70"/>
                <path id="パス_34226" data-name="パス 34226" d="M242.168,55.725c.041.155.168.092.21-.014a.454.454,0,0,1,.19-.242c.2-.123.746-.376.98-.524.073-.046.2-.073.2.056,0,.235.082.37.224.369.125,0,.214-.2.212-.395,0-.4-.465-.784-.582-.858s-.128-.019-.081.061a1.951,1.951,0,0,1,.13.332c.021.072.028.173-.065.214a1.888,1.888,0,0,1-.5.114c-.122.015-.126-.019-.126-.076,0,0,0-.908-.008-1.007s.028-.139.113-.156c.269-.052.938-.079,1.023-.087s.2-.071.1-.181-.256-.311-.376-.452-.087,0-.142.059a2.13,2.13,0,0,1-.657.488c-.151.072-.372-.109-.437-.144,0,0-.159-.092-.123.04a4.515,4.515,0,0,1,.081.791c0,.25-.009.625-.008.715a.117.117,0,0,1-.128.118,1.13,1.13,0,0,1-.323-.018c-.161-.051-.16.015-.121.121s.2.607.215.676" transform="translate(-202.253 -44.204)" fill="#8c7a70"/>
                <path id="パス_34227" data-name="パス 34227" d="M254.016,58.159c-.073.053-.053.126.05.087a2.047,2.047,0,0,0,1.53-1.926c.017-.089.052-.083.12-.083h.52c.085,0,.111.035.1.148a2.8,2.8,0,0,1-.258.965c-.1.186-.274.13-.546.046-.073-.022-.179-.018-.1.069a1.073,1.073,0,0,1,.265.436c.046.145.041.338.172.337.657,0,.851-1.333.884-1.5s.05-.2.134-.276c.118-.1.135-.248.059-.317a3.965,3.965,0,0,1-.355-.4c-.055-.07-.083-.054-.116-.007a1.356,1.356,0,0,0-.1.123.162.162,0,0,1-.158.083h-1.12a.876.876,0,0,1-.322-.04c-.123-.037-.146,0-.122.069a1.817,1.817,0,0,0,.074.2c.035.076.073.063.123.062h.157c.035,0,.092.009.085.138a2.181,2.181,0,0,1-1.086,1.784" transform="translate(-212.32 -46.618)" fill="#8c7a70"/>
                <path id="パス_34228" data-name="パス 34228" d="M244.239,90.187c-.087-.114-.12-.071-.144.029a1.567,1.567,0,0,1-.622.728c-.336.243-.491.353-.769.522-.1.061-.122.156.045.132a5.336,5.336,0,0,0,1.613-.592.439.439,0,0,1,.237-.058.153.153,0,0,0,.107-.253,4.635,4.635,0,0,1-.466-.509" transform="translate(-202.833 -75.424)" fill="#8c7a70"/>
                <path id="パス_34229" data-name="パス 34229" d="M260.88,91.857a7.053,7.053,0,0,0-1.173-.422c-.121-.047-.154.063-.053.127a5.14,5.14,0,0,1,1.293,1.263c.189.259.417.211.462-.139s-.348-.721-.529-.829" transform="translate(-217.02 -76.517)" fill="#8c7a70"/>
                <path id="パス_34230" data-name="パス 34230" d="M91.04,64.344h.435c.093,0,.126.032.108.112a6.844,6.844,0,0,1-.836,1.816c-.087.115.026.082.084.033a4.575,4.575,0,0,0,.91-1.243c.017-.041.058-.04.06.033s.009.937-.022,1.331c-.026.332.007.427.157.424a.243.243,0,0,0,.225-.28c-.02-.353-.049-1.552-.05-1.612s.032-.077.055-.009a4.889,4.889,0,0,0,.706,1.218.061.061,0,0,0,.092,0,3.079,3.079,0,0,1,.357-.267c.059-.034.026-.091-.012-.11a2.689,2.689,0,0,1-1.124-1.361c-.024-.073.054-.083.141-.083h.7c.083,0,.163-.022.163-.084,0-.093-.23-.279-.292-.34s-.1-.018-.124.035c-.041.083-.1.233-.228.233H92.2c-.067,0-.09-.035-.092-.11s-.01-.56-.01-.609.026-.084.069-.084h.609c.141,0,.16-.085.109-.152s-.139-.189-.2-.265-.094-.042-.127.014c-.088.151-.113.257-.213.258H92.2c-.08,0-.1-.022-.1-.094s-.01-.6-.011-.689c0-.143.163-.142.163-.243s-.21-.129-.391-.208c-.04-.018-.145-.044-.119.076s.062,1.012.062,1.077-.016.084-.109.084-.1,0-.174,0c-.029,0-.043-.016-.027-.056.053-.143.1-.293.12-.323s.083-.091-.008-.133a2.163,2.163,0,0,0-.272-.111c-.095-.029-.131-.018-.13.1a2.9,2.9,0,0,1-.046.534,3.175,3.175,0,0,1-.212.872.03.03,0,0,1-.054.01,1.18,1.18,0,0,0-.306-.23.034.034,0,0,1-.023-.036c0-.069.005-.258.005-.3s.016-.109.1-.11H90.8c.115,0,.266,0,.291-.078s-.125-.22-.236-.329c-.045-.044-.09-.065-.122,0-.048.1-.1.252-.15.253-.006,0-.021,0-.021-.028s-.006-.69-.007-.836.117-.161.116-.233c0-.095-.209-.106-.391-.185-.04-.017-.165-.038-.119.076a7.679,7.679,0,0,1,.062,1.105c0,.047,0,.1-.084.1h-.229a.225.225,0,0,1-.1-.018c-.077-.033-.113-.009-.09.071s0,.128.162.111c.051-.006.145-.009.255-.011.058,0,.089.026.09.085a9.182,9.182,0,0,1-.59,2.175c-.033.076,0,.111.062.038.036-.046.42-.75.468-.863.021-.047.07-.071.071.012,0,.11.005.7.006.777,0,.213-.061.757-.06.938,0,.132.04.209.145.208a.24.24,0,0,0,.23-.187c.039-.193-.01-.917-.014-1.405,0-.2.008-1.007.008-1.056s.022-.077.055-.036c.092.112.12.542.242.541.1,0,.158-.153.158-.284A.422.422,0,0,0,91,64.37c0-.009,0-.025.036-.025m.753-.264c0,.084-.035.109-.109.109h-.609c-.055,0-.056-.017-.034-.059.071-.135.29-.544.357-.7.01-.024.026-.044.046-.044h.283c.055,0,.072.044.072.1s-.005.523-.005.593" transform="translate(-74.927 -51.887)" fill="#8c7a70"/>
                <path id="パス_34231" data-name="パス 34231" d="M114.681,75.863c-.058.016-.566.164-.618.179-.068.019-.093-.013-.095-.1s-.007-1.065-.008-1.116.016-.108.089-.109l.476,0c.125,0,.172-.067.108-.159a2.545,2.545,0,0,0-.276-.311c-.059-.051-.083-.027-.1,0-.05.094-.112.3-.246.306h-.725a.551.551,0,0,1-.268-.036c-.06-.029-.077,0-.076.037s.017.07.087.161c.044.058.115.012.3.011.042,0,.124,0,.209,0a.1.1,0,0,1,.111.109c0,.052,0,.614,0,.614s0,.574,0,.623a.1.1,0,0,1-.087.112c-.064.017-.249.066-.336.085-.038.008-.159.053-.228.019-.115-.058-.2-.095-.162.079a3.2,3.2,0,0,0,.208.5c.04.089.073.072.15-.012a.5.5,0,0,1,.178-.15c.357-.162,1.295-.7,1.357-.741.021-.014.053-.04.04-.078-.008-.021-.034-.034-.092-.017" transform="translate(-94.327 -62.112)" fill="#8c7a70"/>
                <path id="パス_34232" data-name="パス 34232" d="M217.607,57.734c-1.344-.13-2.421-.977-2.425-1.578,0-.04.022-.054.072-.054h.79c.051,0,.1,0,.1.075s0,.112,0,.145c0,.157.007.329.161.328s.373-.174.37-.527-.042-.51-.045-.882,0-.672-.007-.873.157-.23.224-.278.119-.106.075-.177a5.207,5.207,0,0,0-.425-.45c-.156-.162-.174-.049-.192,0-.056.143-.132.234-.28.235H213.7a.253.253,0,0,1-.113-.02c-.133-.076-.326-.185-.453-.255-.059-.032-.108-.025-.1.075a12.212,12.212,0,0,1,.054,1.389,13.1,13.1,0,0,1-.039,1.452c-.011.2.1.222.194.221s.265.014.359-.376c.007-.03.016-.079.075-.079h.607c.056,0,.113.023.114.081a6.925,6.925,0,0,1-2.2,2.476c-.057.034-.107.113.016.075a5.808,5.808,0,0,0,1.592-.908.07.07,0,0,1,.126.033,2.939,2.939,0,0,1,.028.712,1.981,1.981,0,0,1-1.166,2.016c-.114.045-.155.138.021.121.855-.084,1.658-.762,1.709-2.422a.306.306,0,0,1,.075-.205c.063-.08.113-.227-.037-.287-.12-.047-.357-.141-.407-.165s-.057-.061-.018-.112a6.166,6.166,0,0,0,.782-1c.032-.051.093-.105.172.066a4.352,4.352,0,0,0,.814,1.14c.045.04.022.071-.035.054s-.369-.123-.471-.165-.135.031-.128.1a3.618,3.618,0,0,1,.084.542c0,.212.019.692.022,1.1a9.452,9.452,0,0,1-.026,1.243c-.032.252.061.338.218.337a.339.339,0,0,0,.336-.342c.029-.461-.042-.991-.046-1.53,0-.18.006-.566.011-.79,0-.09.025-.111.125-.186.053-.04.1-.085.078-.154s.038-.04.073,0a3.251,3.251,0,0,0,.889.5c.122.039.137-.027.181-.095a1.127,1.127,0,0,1,.458-.463c.143-.077.049-.133-.064-.144m-4.02-3.694c0-.075.04-.109.092-.109l.841-.012c.066,0,.1.038.1.113s0,.511,0,.585-.033.1-.086.1H213.7a.1.1,0,0,1-.106-.1c0-.061,0-.51,0-.585m.123,1.819c-.061,0-.11-.019-.111-.1s0-.625-.005-.705a.112.112,0,0,1,.109-.119h.844a.083.083,0,0,1,.085.091c0,.063,0,.693.005.746,0,.073-.043.087-.1.088h-.829m1.461-1.831c0-.08.036-.109.092-.109h.783c.062,0,.1.021.1.1s0,.511,0,.585-.039.116-.09.116h-.792c-.055,0-.1-.028-.1-.109s0-.5,0-.585m.005,1.012c0-.068.034-.105.084-.105h.786c.056,0,.11.008.111.1s-.006.594-.005.694-.062.13-.1.13h-.766a.1.1,0,0,1-.106-.11c0-.074,0-.641,0-.709" transform="translate(-177.342 -44.674)" fill="#8c7a70"/>
                <path id="パス_34233" data-name="パス 34233" d="M186.87,56.815a4.644,4.644,0,0,0-.386-.477c-.078-.078-.124-.083-.178.019-.092.172-.128.5-.353.5h-.358c-.068,0-.108-.024-.109-.1s.024-1.259.022-1.454c0-.313.231-.314.23-.447,0-.165-.231-.15-.441-.235a2.659,2.659,0,0,0-.293-.1c-.138-.034-.184,0-.147.168a8.931,8.931,0,0,1,.088,1.353c0,.275,0,.629,0,.7a.1.1,0,0,1-.108.117H184.3c-.077,0-.109-.028-.109-.094s.007-1.372.007-1.4c0-.078,0-.128.139-.281s.05-.227-.025-.269-.39-.187-.5-.226-.227-.068-.2.105c.055.373.07,2.008.071,2.054a.1.1,0,0,1-.108.108h-.642c-.083,0-.109-.017-.11-.1s.006-1.4.006-1.424a.3.3,0,0,1,.109-.266c.14-.156.051-.227-.025-.269s-.36-.169-.468-.208-.2-.07-.2.105c0,0,.054.5.057.891,0,.19.006,1.114.007,1.173s-.02.1-.108.1-.325,0-.454,0a1.613,1.613,0,0,1-.322-.019c-.047-.015-.175-.09-.149.058a.74.74,0,0,0,.078.225c.045.091.13,0,.272,0h.593c.071,0,.093.06.093.115s0,.745,0,.745-.017,3.275-.019,3.423.026.345.238.343a.352.352,0,0,0,.382-.349c0-.042.03-.066.083-.066.732-.005,3.326,0,3.41,0,.17,0,.323-.121.2-.3a3.939,3.939,0,0,0-.429-.5c-.068-.078-.127-.046-.151,0-.037.075-.166.305-.221.408s-.081.141-.176.142-2.068,0-2.656,0c-.1,0-.112-.1-.112-.239,0-.239-.035-1.574-.044-2.889,0-.275,0-.664,0-.727s.02-.115.092-.116h.658c.084,0,.109.052.109.088s0,.7,0,.773c0,.59-.032,1.6-.028,2.181,0,.561.607.5.6-.066,0-.081-.008-.311-.009-.353a.074.074,0,0,1,.073-.083h.579c.047,0,.068.046.068.089s0,.129,0,.191c0,.2.073.31.206.309.1,0,.37-.1.369-.28,0-.1-.06-2.736-.06-2.776s.021-.072.108-.073.8.009,1.091,0c.186-.006.316-.117.184-.305m-2.631,2.5c0-.042-.042-1.144-.043-1.354,0-.252,0-.713,0-.754s.029-.089.109-.089h.559c.061,0,.093.029.093.074s.012,2.059.014,2.111-.026.1-.072.1h-.591c-.054,0-.066-.046-.066-.089" transform="translate(-151.543 -45.623)" fill="#8c7a70"/>
                <path id="パス_34234" data-name="パス 34234" d="M163.087,67.553a2.592,2.592,0,0,0-.277-.3c-.061-.059-.086-.079-.147.02-.141.23-.121.282-.254.284h-.2c-.07,0-.1-.047-.1-.111S162.1,65.45,162.1,65.4a.082.082,0,0,1,.078-.092h.527c.141,0,.18-.056.126-.155a2.537,2.537,0,0,0-.277-.3c-.061-.059-.1-.1-.136.008-.085.232-.085.278-.215.279-.076,0-.1-.018-.105-.112s-.008-.938-.009-1.1a.336.336,0,0,1,.134-.272c.088-.088.042-.162-.049-.186-.145-.039-.323-.083-.381-.106-.1-.041-.116.015-.1.074a1.761,1.761,0,0,1,.047.384c0,.325.008,1.157.008,1.212a.1.1,0,0,1-.106.109h-.211a.4.4,0,0,1-.166-.024c-.091-.043-.148,0-.088.13.05.109.135.064.246.063h.249a.087.087,0,0,1,.08.1c0,.066.014,1.993.015,2.047s-.022.107-.1.108h-.554a.4.4,0,0,1-.166-.021c-.091-.043-.148-.016-.088.115.05.11.135.066.246.065s1.613,0,1.859,0c.141,0,.18-.062.126-.161" transform="translate(-134.454 -53.013)" fill="#8c7a70"/>
              </g>
            </g>
          </g>
          <g id="グループ_40398" data-name="グループ 40398" transform="translate(26.459 31.788)">
            <rect id="長方形_603" data-name="長方形 603" width="125" height="13" rx="6.5" transform="translate(-16.459 0.212)" fill="#222"/>
            <path id="パス_35515" data-name="パス 35515" d="M2.112-3.44c0,.344-.024.808-.024,1.088-.008.1.04.136.152.136h.64c.128,0,.176-.04.176-.16-.008-.28-.024-.592-.024-1.008V-5a1.841,1.841,0,0,1,.088-.76.335.335,0,0,0,.032-.12c0-.056-.04-.1-.136-.128a5.921,5.921,0,0,0-.992-.168,5.477,5.477,0,0,1,.088,1.168ZM5.88-5a2.41,2.41,0,0,1,.072-.872A.253.253,0,0,0,5.984-6a.134.134,0,0,0-.112-.136,5.006,5.006,0,0,0-1.04-.176,5.874,5.874,0,0,1,.088,1.3V-3.5A3.3,3.3,0,0,1,4.384-1.36,3.909,3.909,0,0,1,2.432-.192,2.6,2.6,0,0,1,3.112.3a.26.26,0,0,0,.192.1.506.506,0,0,0,.168-.04A4.127,4.127,0,0,0,5.232-.9,4.129,4.129,0,0,0,5.88-3.512Zm8.28,2.528c.592,0,1.184.008,1.784.016.112.008.144-.024.144-.12a5.9,5.9,0,0,0,0-.752c0-.1-.024-.12-.144-.112-.616.008-1.232.024-1.84.024H11.528a10.278,10.278,0,0,1-1.728-.1,8.683,8.683,0,0,0,.12.968c.024.12.088.168.184.168a6.4,6.4,0,0,1,1.176-.1ZM18.712-3.48a7.015,7.015,0,0,1,1.616.872.155.155,0,0,0,.1.048c.032,0,.064-.032.1-.08a3.258,3.258,0,0,0,.352-.608.237.237,0,0,0,.032-.088c0-.048-.032-.08-.088-.12a5.552,5.552,0,0,0-1.536-.784c-.072-.016-.112.024-.152.08C19.04-4.032,18.912-3.8,18.712-3.48Zm.968-1.88a7.737,7.737,0,0,1,1.552.984.206.206,0,0,0,.12.056.089.089,0,0,0,.08-.048,3.424,3.424,0,0,0,.408-.6.194.194,0,0,0,.032-.1.127.127,0,0,0-.064-.1,5.439,5.439,0,0,0-1.5-.888c-.1-.048-.144-.032-.2.064C19.968-5.792,19.816-5.568,19.68-5.36ZM19.344-.8a5.052,5.052,0,0,0,.592.816.206.206,0,0,0,.16.1.177.177,0,0,0,.128-.064,2.629,2.629,0,0,1,.464-.272,18.573,18.573,0,0,0,2.392-1.5,14.9,14.9,0,0,0,2.032-1.848A.249.249,0,0,0,25.2-3.76a.391.391,0,0,0-.04-.152,4,4,0,0,1-.232-.9,14.558,14.558,0,0,1-2.3,2.232,13.4,13.4,0,0,1-2.192,1.384A3.7,3.7,0,0,1,19.344-.8Zm8.608-4.184a8.468,8.468,0,0,1,1.632,1.3c.04.04.072.064.1.064s.056-.024.1-.064c.112-.12.376-.44.5-.6a.172.172,0,0,0,.048-.1c0-.032-.024-.064-.072-.112a8.342,8.342,0,0,0-1.528-1.136.213.213,0,0,0-.1-.04.15.15,0,0,0-.112.064C28.36-5.448,28.128-5.2,27.952-4.984Zm.176,3.992a5.543,5.543,0,0,0,.64.888.207.207,0,0,0,.136.088.221.221,0,0,0,.144-.08,2.761,2.761,0,0,1,.536-.368A17.2,17.2,0,0,0,32-2.032a13.076,13.076,0,0,0,1.84-1.7c.088-.1.128-.168.128-.24a.391.391,0,0,0-.04-.152,3.571,3.571,0,0,1-.224-.936A12.019,12.019,0,0,1,31.512-2.88a11.858,11.858,0,0,1-2.3,1.488A4.819,4.819,0,0,1,28.128-.992ZM39.688-5.04c.1-.144.176-.264.264-.4a.868.868,0,0,1,.2-.216.159.159,0,0,0,.088-.136.167.167,0,0,0-.08-.136,3.935,3.935,0,0,0-.936-.424,3.417,3.417,0,0,1-.472,1.08A9.489,9.489,0,0,1,36.6-2.9a2.17,2.17,0,0,1,.768.344.192.192,0,0,0,.12.048.249.249,0,0,0,.168-.088,11.142,11.142,0,0,0,1.512-1.64L41.1-4.288a8.15,8.15,0,0,1-1.48,2.272A9.216,9.216,0,0,1,36.96.024a2.105,2.105,0,0,1,.76.368A.282.282,0,0,0,37.9.48a.216.216,0,0,0,.128-.04,10.161,10.161,0,0,0,2.432-1.992,11.026,11.026,0,0,0,1.584-2.472.963.963,0,0,1,.264-.344.231.231,0,0,0,.1-.168.259.259,0,0,0-.1-.184,3.691,3.691,0,0,0-.544-.432.232.232,0,0,0-.128-.048.161.161,0,0,0-.1.032.742.742,0,0,1-.4.1ZM41.7-5.856a3.97,3.97,0,0,1,.808.928.084.084,0,0,0,.136.024l.336-.248A.081.081,0,0,0,43-5.28a3.682,3.682,0,0,0-.76-.856c-.048-.04-.08-.048-.12-.016Zm.736-.528a3.785,3.785,0,0,1,.8.92.082.082,0,0,0,.136.024l.32-.248a.092.092,0,0,0,.024-.144,3.341,3.341,0,0,0-.76-.824c-.048-.04-.072-.048-.12-.016Zm4.616,1.32c-.552,0-1.2,0-1.744-.056a7.369,7.369,0,0,0,.1.856c.016.1.04.144.144.144.432-.04,1.024-.056,1.488-.056L50.4-4.192A17.931,17.931,0,0,1,48.552-2.3a12.5,12.5,0,0,0-1.136-.9.241.241,0,0,0-.112-.056.169.169,0,0,0-.088.04c-.144.128-.416.384-.576.536A11.992,11.992,0,0,1,49.208-.192q.048.072.1.072a.213.213,0,0,0,.1-.04,5.881,5.881,0,0,0,.52-.472A.192.192,0,0,0,50-.76a.181.181,0,0,0-.056-.12,8.525,8.525,0,0,0-.7-.8,28.6,28.6,0,0,0,2.152-2.144,2.379,2.379,0,0,1,.384-.3.2.2,0,0,0,.1-.168.34.34,0,0,0-.064-.176,3.69,3.69,0,0,0-.576-.64.2.2,0,0,0-.136-.064.238.238,0,0,0-.112.04,1.471,1.471,0,0,1-.664.072Zm10.936,2.3c.432-.368.856-.768,1.264-1.184a.854.854,0,0,1,.256-.184q.12-.048.12-.144a.255.255,0,0,0-.048-.136,3.13,3.13,0,0,0-.4-.472.18.18,0,0,0-.136-.064.269.269,0,0,0-.12.032,1.293,1.293,0,0,1-.568.088l-2.32.024a7.79,7.79,0,0,1-1.112-.064,7,7,0,0,0,.088.784c.016.1.048.152.136.152.328-.024.624-.04,1.056-.056l1.848-.04a11.108,11.108,0,0,1-1.552,1.3,15.176,15.176,0,0,1-2.576,1.44,1.867,1.867,0,0,1,.64.488.218.218,0,0,0,.16.088.325.325,0,0,0,.136-.04,13.841,13.841,0,0,0,2.2-1.336v1.032c0,.664-.04,1.2-.04,1.424,0,.08.056.112.152.112a4.937,4.937,0,0,0,.688,0c.1,0,.152-.032.152-.1,0-.2-.024-.728-.024-1.44ZM56.3-5.888a8.233,8.233,0,0,1,1.784.792.149.149,0,0,0,.088.032c.04,0,.072-.024.1-.08a6.732,6.732,0,0,0,.328-.592.129.129,0,0,0,.032-.08c0-.032-.032-.056-.088-.088a10.9,10.9,0,0,0-1.7-.7c-.08-.024-.12,0-.168.072C56.608-6.408,56.464-6.144,56.3-5.888ZM58.392-2.3a8.882,8.882,0,0,1,1.8,1.1.241.241,0,0,0,.112.056.137.137,0,0,0,.1-.064,4.57,4.57,0,0,0,.392-.576.191.191,0,0,0,.032-.1c0-.04-.024-.064-.072-.1a8.517,8.517,0,0,0-1.744-.976c-.08-.032-.1-.04-.16.032C58.744-2.792,58.568-2.552,58.392-2.3Zm4.88-1.1a7.015,7.015,0,0,1,1.616.872.155.155,0,0,0,.1.048c.032,0,.064-.032.1-.08a3.257,3.257,0,0,0,.352-.608.237.237,0,0,0,.032-.088c0-.048-.032-.08-.088-.12a5.552,5.552,0,0,0-1.536-.784c-.072-.016-.112.024-.152.08C63.6-3.952,63.472-3.72,63.272-3.4Zm.968-1.88a7.737,7.737,0,0,1,1.552.984.206.206,0,0,0,.12.056.089.089,0,0,0,.08-.048,3.424,3.424,0,0,0,.408-.6.194.194,0,0,0,.032-.1.127.127,0,0,0-.064-.1,5.439,5.439,0,0,0-1.5-.888c-.1-.048-.144-.032-.2.064C64.528-5.712,64.376-5.488,64.24-5.28ZM63.9-.72A5.052,5.052,0,0,0,64.5.1a.206.206,0,0,0,.16.1.177.177,0,0,0,.128-.064,2.629,2.629,0,0,1,.464-.272,18.573,18.573,0,0,0,2.392-1.5A14.9,14.9,0,0,0,69.672-3.5a.249.249,0,0,0,.088-.184.391.391,0,0,0-.04-.152,4,4,0,0,1-.232-.9,14.558,14.558,0,0,1-2.3,2.232,13.4,13.4,0,0,1-2.192,1.384A3.7,3.7,0,0,1,63.9-.72Zm4-5.152a3.969,3.969,0,0,1,.808.928.084.084,0,0,0,.136.024l.336-.248a.081.081,0,0,0,.024-.128,3.682,3.682,0,0,0-.76-.856c-.048-.04-.08-.048-.12-.016ZM68.64-6.4a3.785,3.785,0,0,1,.8.92.082.082,0,0,0,.136.024L69.9-5.7a.092.092,0,0,0,.024-.144,3.341,3.341,0,0,0-.76-.824c-.048-.04-.072-.048-.12-.016Zm6.584,2.632a11.92,11.92,0,0,0-1.392-.84.227.227,0,0,0-.1-.032.111.111,0,0,0-.08.04c-.1.112-.3.36-.528.656a8.776,8.776,0,0,1,1.56.952A9.773,9.773,0,0,1,71.672-.368a2.33,2.33,0,0,1,.72.44.224.224,0,0,0,.152.056.364.364,0,0,0,.184-.064,10.5,10.5,0,0,0,2.736-2.5,8.179,8.179,0,0,1,1.048,1.056c.04.048.072.072.112.072a.124.124,0,0,0,.1-.056c.168-.184.328-.36.488-.568a.213.213,0,0,0,.04-.1.173.173,0,0,0-.048-.112,9.3,9.3,0,0,0-1.176-1.088,15.713,15.713,0,0,0,.912-1.584,1.748,1.748,0,0,1,.36-.536.236.236,0,0,0,.088-.176.167.167,0,0,0-.08-.136,3.909,3.909,0,0,0-1.008-.5,3.721,3.721,0,0,1-.3.984A9.473,9.473,0,0,1,75.224-3.768Zm5.768-1.216a8.468,8.468,0,0,1,1.632,1.3c.04.04.072.064.1.064s.056-.024.1-.064c.112-.12.376-.44.5-.6a.172.172,0,0,0,.048-.1c0-.032-.024-.064-.072-.112a8.342,8.342,0,0,0-1.528-1.136.213.213,0,0,0-.1-.04.15.15,0,0,0-.112.064C81.4-5.448,81.168-5.2,80.992-4.984Zm.176,3.992a5.543,5.543,0,0,0,.64.888.207.207,0,0,0,.136.088.221.221,0,0,0,.144-.08,2.761,2.761,0,0,1,.536-.368A17.2,17.2,0,0,0,85.04-2.032a13.076,13.076,0,0,0,1.84-1.7c.088-.1.128-.168.128-.24a.391.391,0,0,0-.04-.152,3.571,3.571,0,0,1-.224-.936A12.019,12.019,0,0,1,84.552-2.88a11.858,11.858,0,0,1-2.3,1.488A4.82,4.82,0,0,1,81.168-.992ZM92.616-5.256a2.083,2.083,0,0,1,.056-.752.421.421,0,0,0,.064-.184c0-.064-.04-.112-.152-.136a5.905,5.905,0,0,0-1-.128,6.1,6.1,0,0,1,.08,1.184v3.936c0,.512-.008.984-.032,1.576,0,.1.04.12.152.12a5.287,5.287,0,0,0,.712,0c.112,0,.152-.024.144-.12-.016-.576-.032-1.048-.032-1.568V-3.1a8.86,8.86,0,0,1,2.1,1.024.123.123,0,0,0,.088.04c.04,0,.072-.032.1-.088a4.7,4.7,0,0,0,.344-.7c.04-.1,0-.16-.088-.208a11.285,11.285,0,0,0-2.544-1.088Zm7.336.006a3.779,3.779,0,0,0-1.428,2.97A3.736,3.736,0,0,0,99.952.69l.18-.168a3.922,3.922,0,0,1-1.062-2.8,3.932,3.932,0,0,1,1.062-2.8Zm2.394.606h-.816V.012h3V-.642h-2.184Zm8.244,0h-1.32l-.594,2.388c-.138.534-.234,1.014-.36,1.524h-.084c-.1-.51-.216-1.05-.336-1.536l-.588-2.376h-1.314V.012h.714v-2.34c0-.576-.006-1.116-.018-1.656h.084c.138.57.252,1.074.4,1.614l.612,2.382h.948l.63-2.412c.156-.57.264-1.05.384-1.584h.084c-.006.552-.012,1.062-.012,1.644V.012h.774Zm1.4-.438a3.906,3.906,0,0,1,1.062,2.8,3.922,3.922,0,0,1-1.062,2.8l.186.168A3.747,3.747,0,0,0,113.6-2.28a3.791,3.791,0,0,0-1.422-2.97Z" transform="translate(-10.459 10.212)" fill="#fff"/>
          </g>
          <g id="グループ_40454" data-name="グループ 40454" transform="translate(13.241 52.138)">
            <path id="パス_36723" data-name="パス 36723" d="M4-3.7a.668.668,0,0,0-.664.664A.673.673,0,0,0,4-2.376a.668.668,0,0,0,.664-.664A.662.662,0,0,0,4-3.7ZM16.5-.376c0-.056-.008-.064-.064-.064s-.288.016-1.04.016H13.832A24.181,24.181,0,0,0,14.848-3.3.916.916,0,0,1,15-3.656a.252.252,0,0,0,.072-.136c0-.04-.016-.064-.08-.088a5.116,5.116,0,0,0-.56-.176,4.52,4.52,0,0,1-.16.832,21.655,21.655,0,0,1-.96,2.8H10.52c-.744,0-.992-.016-1.032-.016-.056,0-.064.008-.064.064v.4c0,.056.008.064.064.064.04,0,.288-.016,1.032-.016H15.4c.752,0,.992.016,1.04.016S16.5.08,16.5.024ZM16.1-5.04c0-.056-.008-.064-.064-.064-.04,0-.3.016-1.1.016H13.144v-.664a1.616,1.616,0,0,1,.048-.552.326.326,0,0,0,.04-.144c0-.032-.04-.064-.1-.072a4.647,4.647,0,0,0-.552-.04,3.894,3.894,0,0,1,.056.808v.664H11c-.792,0-1.056-.016-1.1-.016s-.064.008-.064.064v.384c0,.064.008.072.064.072S10.208-4.6,11-4.6h3.936c.8,0,1.064.016,1.1.016.056,0,.064-.008.064-.072ZM10.984-3.9c-.112.04-.12.048-.1.1a13.626,13.626,0,0,1,.768,2.776c.016.072.032.08.152.048l.28-.08c.1-.024.1-.048.088-.1a14.265,14.265,0,0,0-.816-2.808c-.016-.048-.032-.048-.112-.024Zm10.9.576,1.072-.384v1.36c0,.84-.016,1.192-.016,1.24s.008.064.064.064h.36c.056,0,.064-.008.064-.064s-.016-.4-.016-1.24V-3.88L24.7-4.352a11.649,11.649,0,0,1-.1,1.664c-.056.4-.136.52-.328.52a2.052,2.052,0,0,1-.5-.064,1.175,1.175,0,0,1,.1.336c.016.16.016.16.152.176a2.437,2.437,0,0,0,.328.024c.344,0,.552-.136.656-.712a10.747,10.747,0,0,0,.152-1.576c.016-.456.016-.656.024-.928a.059.059,0,0,0-.064-.064c-.04,0-.3.128-1.024.392l-.688.248V-5.528a3.066,3.066,0,0,1,.048-.76.405.405,0,0,0,.04-.136c0-.04-.04-.064-.1-.072a4,4,0,0,0-.5-.048,6.356,6.356,0,0,1,.056,1.072v1.3l-1.072.384v-.9a3.192,3.192,0,0,1,.048-.9.374.374,0,0,0,.048-.152c0-.032-.04-.056-.112-.072a4.013,4.013,0,0,0-.5-.04,7.772,7.772,0,0,1,.048,1.184v1.056c-.688.248-.944.312-.984.328s-.056.024-.04.08l.08.344c.016.056.024.064.08.048.04-.016.248-.112.864-.344V-.512c0,.416.136.608.344.7a3.938,3.938,0,0,0,1.56.168c1.168,0,1.56-.08,1.808-.248.232-.152.32-.32.392-1.04.016-.136.016-.136-.12-.192A1.278,1.278,0,0,1,25.08-1.3c-.032.656-.072.88-.256,1.016s-.5.2-1.432.2A3.516,3.516,0,0,1,22.1-.192c-.152-.072-.216-.184-.216-.464Zm-2-.624h.1c.544,0,.7.016.744.016S20.8-3.944,20.8-4v-.336c0-.056-.008-.064-.064-.064s-.2.016-.744.016h-.1v-.944a3.289,3.289,0,0,1,.048-.824.686.686,0,0,0,.032-.144c0-.04-.032-.064-.088-.072a4,4,0,0,0-.512-.048,6.558,6.558,0,0,1,.056,1.1v.928h-.192c-.544,0-.7-.016-.744-.016s-.064.008-.064.064V-4c0,.056.008.064.064.064s.2-.016.744-.016h.192V-1.48l-.328.128a4,4,0,0,1-.76.232,3.873,3.873,0,0,0,.176.44c.024.056.056.088.088.088a.18.18,0,0,0,.112-.064.971.971,0,0,1,.3-.168c.544-.232,1.152-.5,1.664-.736.136-.064.144-.072.136-.24a1.315,1.315,0,0,1,.016-.312c-.3.16-.616.312-.936.448Zm11.3-1.136c0-.056-.008-.064-.056-.064s-.28.016-1.016.016h-.56v-.6c.328-.064.656-.136,1.008-.224a2.182,2.182,0,0,1,.312-.056c.072,0,.136-.024.136-.072s-.016-.064-.064-.112a2.945,2.945,0,0,0-.312-.264,1.306,1.306,0,0,1-.368.152,13.008,13.008,0,0,1-2.752.416.935.935,0,0,1,.176.28c.048.112.064.1.208.1.44-.04.832-.088,1.224-.144v.528h-.68c-.728,0-.976-.016-1.016-.016-.056,0-.064.008-.064.064v.3c0,.056.008.064.064.064.04,0,.288-.016,1.016-.016h.68v.512h-.392c-.68,0-.9-.016-.952-.016s-.064.008-.064.064c0,.04.016.2.016.664v.776c0,.448-.016.608-.016.656s.008.064.064.064.272-.016.952-.016h.392v.512h-.56c-.7,0-.928-.016-.976-.016s-.064.008-.064.064v.288c0,.056.008.064.064.064s.272-.016.976-.016h.56v.632c-.36.04-.7.072-.976.1a7.4,7.4,0,0,1-.824.024c.032.16.08.336.112.456.024.072.056.1.1.1a.246.246,0,0,0,.1-.04,1.206,1.206,0,0,1,.312-.064c.976-.112,1.928-.248,2.856-.432.16-.032.16-.024.176-.192a1.125,1.125,0,0,1,.056-.24c-.464.1-.976.176-1.472.24v-.576h.424c.7,0,.928.016.976.016s.064-.008.064-.064V-1.48c0-.056-.008-.064-.064-.064s-.272.016-.976.016h-.424V-2.04h.432c.744,0,.9.016.952.016S31-2.032,31-2.088c0-.04-.016-.208-.016-.656v-.784c0-.464.016-.616.016-.656,0-.056-.008-.064-.064-.064s-.272.016-.952.016h-.432v-.512h.56c.736,0,.984.016,1.024.016s.048-.008.048-.064Zm-.616,2.712H29.552v-.608h1.016Zm-1.448,0h-.968v-.608h.968Zm1.448-.936H29.552v-.576h1.016Zm-1.448,0h-.968v-.576h.968Zm3.656-1.416c.008-.28.008-.568.008-.848a3.035,3.035,0,0,1,.048-.744.506.506,0,0,0,.04-.168c0-.032-.032-.064-.088-.072a3.569,3.569,0,0,0-.52-.056,5.351,5.351,0,0,1,.056.984c0,.3-.008.6-.016.9h-.1c-.624,0-.816-.016-.856-.016-.064,0-.072.008-.072.064v.336c0,.056.008.064.072.064.04,0,.232-.016.856-.016h.08a10.592,10.592,0,0,1-.264,2.072A3.8,3.8,0,0,1,30.392.2a.872.872,0,0,1,.32.216c.048.048.08.072.1.072s.056-.024.12-.072a4.354,4.354,0,0,0,1.528-2.472,10.953,10.953,0,0,0,.288-2.24h.96A25.16,25.16,0,0,1,33.5-.616c-.064.408-.192.552-.456.552a4.266,4.266,0,0,1-.784-.072.94.94,0,0,1,.112.384c.008.088.008.128.144.136.168.008.344.016.568.016.5,0,.768-.24.864-.8a26.061,26.061,0,0,0,.232-3.56c0-.24,0-.464.016-.712,0-.056-.016-.072-.072-.072s-.248.016-.88.016Zm6.536-.416c.168-.288.352-.64.5-.968a.4.4,0,0,1,.12-.16.132.132,0,0,0,.064-.1c0-.04-.024-.064-.08-.088a3.676,3.676,0,0,0-.512-.128,1.9,1.9,0,0,1-.136.456,10.586,10.586,0,0,1-.5.992h-.832c-.808,0-1.08-.016-1.128-.016s-.064.008-.064.064.016.384.016,1.24V-.848c0,.848-.016,1.176-.016,1.216,0,.056.008.064.064.064h.4c.056,0,.064-.008.064-.064,0-.04-.016-.384-.016-1.176V-4.7h5.176V-.4c0,.232-.12.3-.392.3-.256,0-.44-.016-.656-.032a1.3,1.3,0,0,1,.16.352c.04.152.032.152.192.152.624,0,.888-.04,1.016-.144A.65.65,0,0,0,42.944-.3c0-.256-.008-.64-.008-1.28V-3.832c0-.84.016-1.216.016-1.264s-.008-.064-.072-.064c-.04,0-.32.016-1.12.016ZM41.184-2.9c0-.48.016-.656.016-.7s-.008-.064-.064-.064-.24.016-.84.016H39.32c-.608,0-.792-.016-.84-.016s-.064.008-.064.064.016.224.016.808v.6c0,1.08-.016,1.248-.016,1.3s.008.064.064.064h.336c.056,0,.064-.008.064-.064v-.4h1.848V-.96c0,.056.008.064.072.064h.336c.056,0,.064-.008.064-.064s-.016-.208-.016-1.272Zm-.456,1.176H38.88v-1.5h1.848ZM52.072-5.2c0-.7.016-1.008.016-1.056s-.008-.064-.064-.064c-.04,0-.3.016-1.048.016H49.248c-.744,0-1-.016-1.04-.016-.056,0-.064.008-.064.064s.016.36.016,1.056v.888c0,1.96-.064,3.576-.688,4.544a.929.929,0,0,1,.264.184c.048.048.08.072.1.072s.064-.032.1-.1c.56-1.016.672-2.536.672-4.648V-5.88h3.008V-.4c0,.256-.072.36-.272.36a5.363,5.363,0,0,1-.728-.032A1.155,1.155,0,0,1,50.768.3c.024.12.04.128.16.128.672.008.832-.04.944-.136a.619.619,0,0,0,.216-.536c0-.344-.016-.712-.016-1.168Zm-4.56,3.944c0-.408.016-.576.016-.616,0-.056-.008-.064-.056-.064s-.192.016-.648.016h-.5c-.48,0-.648-.016-.688-.016-.056,0-.064.008-.064.064s.016.216.016.728v.72c0,.7-.016.84-.016.888s.008.064.064.064h.328c.048,0,.056-.008.056-.064V.008h.8c.456,0,.6.016.648.016s.056-.008.056-.064c0-.04-.016-.176-.016-.6Zm-.424.88H46.024V-1.528h1.064Zm3.92-1.7c0-.328.016-.48.016-.52,0-.056-.008-.064-.064-.064s-.184.016-.632.016H49.8c-.456,0-.592-.016-.64-.016s-.064.008-.064.064c0,.04.016.192.016.608v.408c0,.864-.016,1-.016,1.048s.008.064.064.064h.28c.056,0,.064-.008.064-.064V-.912h1.112v.3c0,.056.008.064.064.064h.28c.056,0,.064-.008.064-.064,0-.04-.016-.184-.016-1Zm-.392.792H49.5v-.992h1.112ZM51.4-3.56c0-.056-.008-.064-.056-.064s-.232.016-.776.016h-.3V-4.44h.2c.5,0,.656.016.7.016s.064-.008.064-.064v-.264c0-.056-.008-.064-.064-.064s-.208.016-.7.016h-.2v-.128a1.191,1.191,0,0,1,.04-.464.265.265,0,0,0,.04-.12c0-.04-.032-.064-.088-.072a3.843,3.843,0,0,0-.448-.048,3.674,3.674,0,0,1,.048.72V-4.8h-.128c-.456,0-.616-.016-.664-.016s-.056.008-.056.064v.264c0,.056,0,.064.056.064s.208-.016.664-.016h.128v.832h-.232c-.5,0-.688-.016-.728-.016-.056,0-.064.008-.064.064V-3.3c0,.056.008.064.064.064.04,0,.232-.016.728-.016h.936c.544,0,.728.016.776.016s.056-.008.056-.064ZM47.784-5.12c0-.056-.008-.056-.064-.056-.04,0-.216.016-.8.016h-.784c-.592,0-.76-.016-.8-.016-.056,0-.064,0-.064.056v.336c0,.064.008.072.064.072.04,0,.208-.016.8-.016h.784c.584,0,.76.016.8.016.056,0,.064-.008.064-.072Zm-.232-1.048c0-.056-.008-.064-.064-.064-.04,0-.184.016-.672.016h-.528c-.488,0-.632-.016-.672-.016-.056,0-.064.008-.064.064v.312c0,.056.008.064.064.064.04,0,.184-.016.672-.016h.528c.488,0,.632.016.672.016.056,0,.064-.008.064-.064Zm-.1,3.232c0-.056-.008-.064-.072-.064-.04,0-.16.016-.6.016h-.464c-.448,0-.568-.016-.608-.016-.056,0-.064.008-.064.064v.32c0,.048.008.056.064.056.04,0,.16-.016.608-.016h.464c.44,0,.56.016.6.016.064,0,.072-.008.072-.056Zm0-1.08c0-.056-.008-.064-.072-.064-.04,0-.16.016-.6.016h-.464c-.448,0-.568-.016-.608-.016-.056,0-.064.008-.064.064V-3.7c0,.056.008.064.064.064.04,0,.16-.016.608-.016h.464c.44,0,.56.016.6.016.064,0,.072-.008.072-.064Zm13.88,3.9c0-.056-.008-.064-.064-.064-.04,0-.288.016-1.024.016h-.464V-2.44c0-.6.016-.856.016-.9s-.008-.064-.064-.064c-.04,0-.3.016-1.056.016H56.856c-.752,0-1.016-.016-1.056-.016-.064,0-.072.008-.072.064s.016.3.016.9V-.16h-.432c-.736,0-.984-.016-1.024-.016-.056,0-.064.008-.064.064V.216c0,.056.008.064.064.064.04,0,.288-.016,1.024-.016H60.24c.736,0,.984.016,1.024.016.056,0,.064-.008.064-.064ZM59.3-.16H56.216V-.9H59.3Zm0-1.1H56.216v-.688H59.3Zm0-1.056H56.216v-.664H59.3Zm.632-2.88c.776,0,1.032.016,1.08.016s.064-.008.064-.064v-.32c0-.056-.008-.064-.064-.064s-.3.016-1.08.016H57.928V-5.88a1.589,1.589,0,0,1,.048-.5.374.374,0,0,0,.048-.152c0-.032-.04-.064-.1-.072a4.781,4.781,0,0,0-.528-.048,3.854,3.854,0,0,1,.056.84v.192H55.584c-.768,0-1.032-.016-1.072-.016-.056,0-.064.008-.064.064v.32c0,.056.008.064.064.064.04,0,.3-.016,1.072-.016h1.552a7.006,7.006,0,0,1-3.008,1.712,1.007,1.007,0,0,1,.216.288c.072.144.08.144.224.088A6.87,6.87,0,0,0,57.48-5.064c-.008.624-.04,1.24-.04,1.384,0,.056.008.064.064.064h.376c.056,0,.064-.008.064-.064,0-.144-.04-.776-.04-1.4A7.087,7.087,0,0,0,60.92-3.1a.491.491,0,0,0,.12.04c.04,0,.064-.04.1-.128a1,1,0,0,1,.224-.32,7.322,7.322,0,0,1-3.144-1.7ZM4,6.3a.664.664,0,1,0,.664.664A.668.668,0,0,0,4,6.3Zm10.592.2c.512,0,.968.016,1.432.032.072,0,.1-.024.1-.1V6.088c0-.1-.016-.128-.088-.128-.5.032-.9.04-1.456.04H11.12c-.448,0-.848-.008-1.312-.04a4.336,4.336,0,0,0,.048.464c.016.1.024.128.112.12C10.3,6.52,10.72,6.5,11.12,6.5h1.632a4.064,4.064,0,0,1-.416,1.928,3.271,3.271,0,0,1-1.568,1.464,1.542,1.542,0,0,1,.448.264c.072.072.144.04.248-.024a3.62,3.62,0,0,0,1.416-1.5A4.6,4.6,0,0,0,13.36,6.5Zm-.968-1.768c.416,0,.912,0,1.344.016.08,0,.1-.016.1-.112a2.135,2.135,0,0,0,0-.32c0-.08-.016-.112-.088-.1-.424.024-.928.024-1.352.024H12.072c-.36,0-.816-.008-1.288-.04.008.152.024.336.04.464.008.08.024.112.1.1.392-.024.792-.032,1.144-.032Zm8.752,1.1c.008-.448.008-.824.008-1.272a1.318,1.318,0,0,1,.08-.472c.04-.08.048-.16-.064-.192a3.526,3.526,0,0,0-.672-.088,3.967,3.967,0,0,1,.088.856c.008.448.008.744.008,1.176h-1.7c-.424,0-.824,0-1.312-.04.008.16.032.384.048.48s.024.112.1.1c.384-.024.744-.04,1.152-.04H21.8a4.007,4.007,0,0,1-.512,2.08,4.2,4.2,0,0,1-1.792,1.5,1.178,1.178,0,0,1,.392.248.16.16,0,0,0,.224.024,4.546,4.546,0,0,0,1.7-1.552,4.4,4.4,0,0,0,.552-2.3h1.192c.44,0,.952.016,1.36.024.1,0,.112-.016.112-.1a2.584,2.584,0,0,0,0-.352c0-.088-.024-.1-.12-.1-.456.016-.928.016-1.36.016Zm5.848-.864a8.306,8.306,0,0,1,1.52,1.184c.056.056.08.048.128-.008a3.228,3.228,0,0,0,.272-.344c.04-.064.032-.1-.024-.152a7.38,7.38,0,0,0-1.44-1.064.1.1,0,0,0-.144.016C28.448,4.688,28.328,4.832,28.224,4.96Zm.192,4.2a3,3,0,0,0,.392.544.131.131,0,0,0,.216.008,2.982,2.982,0,0,1,.44-.312,16.614,16.614,0,0,0,2.4-1.56A14.768,14.768,0,0,0,33.808,6c.1-.112.1-.176.056-.28a2.394,2.394,0,0,1-.136-.528,12.485,12.485,0,0,1-2.16,2.152,13.579,13.579,0,0,1-2.312,1.488A4.463,4.463,0,0,1,28.416,9.16ZM39.448,4.9a3.341,3.341,0,0,1,.056-.888c.04-.12.072-.208-.056-.24a3.3,3.3,0,0,0-.664-.1,6.768,6.768,0,0,1,.088,1.28V8.5c0,.488-.008,1.112-.032,1.624,0,.088.024.112.112.112a3.47,3.47,0,0,0,.408,0c.088,0,.112-.024.1-.1-.008-.52-.024-1.144-.024-1.632V6.648A8.875,8.875,0,0,1,41.768,7.72c.072.048.1.032.152-.032a2.559,2.559,0,0,0,.192-.392c.024-.056.008-.1-.056-.128a11.283,11.283,0,0,0-2.608-1.112Zm11.712.592c.776,0,1.032.016,1.072.016.056,0,.064-.008.064-.064v-.3c0-.056-.008-.064-.064-.064-.04,0-.3.016-1.072.016h-.872V4.288a10.415,10.415,0,0,0,1.12-.28,1.254,1.254,0,0,1,.312-.064c.088,0,.112-.032.112-.072a.127.127,0,0,0-.04-.1,2.331,2.331,0,0,0-.32-.3,1.731,1.731,0,0,1-.44.192,10.628,10.628,0,0,1-2.888.448.65.65,0,0,1,.168.256c.056.152.064.152.216.136.464-.04.888-.088,1.3-.144V5.1h-.656c-.776,0-1.032-.016-1.08-.016s-.064.008-.064.064v.3c0,.056.008.064.064.064s.3-.016,1.08-.016H49.6A5.156,5.156,0,0,1,47.616,6.76a.68.68,0,0,1,.184.256c.04.088.056.12.1.12a.32.32,0,0,0,.128-.048,4.972,4.972,0,0,0,1.84-1.4c-.016.7-.032,1.112-.032,1.3,0,.056.008.064.064.064h.328c.056,0,.064-.008.064-.064,0-.192-.024-.6-.04-1.3A5.05,5.05,0,0,0,52.1,7.08a.434.434,0,0,0,.128.048c.032,0,.056-.032.088-.12A.811.811,0,0,1,52.5,6.72a5.358,5.358,0,0,1-2.032-1.232Zm.864,2.936c.008-.056-.016-.072-.064-.072s-.136.016-.456.016H50.9c.056-.184.1-.384.16-.592.032-.128.072-.248.1-.344q.012-.072-.072-.072c-.04,0-.24.016-.88.016h-1.12c-.608,0-.784-.016-.832-.016s-.064.008-.064.064v.3c0,.064.008.072.064.072s.224-.016.832-.016h.088a2.733,2.733,0,0,1-1.488,2.432.942.942,0,0,1,.248.224c.056.08.072.112.1.112s.064-.024.12-.064a3.363,3.363,0,0,0,1.472-2.7h.976a7.436,7.436,0,0,1-.36,1.1c-.032.072-.008.1.1.1L50.56,9c.1.008.128,0,.152-.056l.064-.184h.76a3.562,3.562,0,0,1-.24,1.072c-.072.144-.208.192-.44.192a5.182,5.182,0,0,1-.8-.072.916.916,0,0,1,.1.3c.032.168.032.16.184.176.192.016.392.024.584.024a.735.735,0,0,0,.736-.344,3.668,3.668,0,0,0,.3-1.24Zm-4.416.328c0-.368.016-.544.016-.584,0-.056-.008-.064-.064-.064s-.192.016-.664.016H46.32c-.472,0-.616-.016-.656-.016-.056,0-.064.008-.064.064s.016.224.016.7v.48c0,.968-.016,1.128-.016,1.176s.008.056.064.056h.32c.056,0,.064-.008.064-.056V10.1h1.136v.272c0,.056.008.064.064.064h.312c.056,0,.064-.008.064-.064,0-.04-.016-.192-.016-1.12Zm-.424.968H46.048V8.512h1.136ZM47.8,4.872c0-.056-.008-.056-.064-.056-.04,0-.216.016-.8.016H46.12c-.592,0-.76-.016-.8-.016-.056,0-.064,0-.064.056v.336c0,.064.008.072.064.072.04,0,.208-.016.8-.016h.816c.584,0,.76.016.8.016.056,0,.064-.008.064-.072Zm-.144-1.056c0-.056-.008-.064-.064-.064-.04,0-.184.016-.672.016h-.568c-.488,0-.632-.016-.672-.016-.056,0-.064.008-.064.064v.312c0,.056.008.064.064.064.04,0,.184-.016.672-.016h.568c.488,0,.632.016.672.016.056,0,.064-.008.064-.064Zm-.12,3.272c0-.056-.008-.064-.072-.064-.04,0-.16.016-.6.016h-.5c-.448,0-.568-.016-.608-.016-.056,0-.064.008-.064.064v.32c0,.048.008.056.064.056.04,0,.16-.016.608-.016h.5c.44,0,.56.016.6.016.064,0,.072-.008.072-.056Zm0-1.1c0-.056-.008-.064-.072-.064-.04,0-.16.016-.6.016h-.5c-.448,0-.568-.016-.608-.016-.056,0-.064.008-.064.064V6.3c0,.056.008.064.064.064.04,0,.16-.016.608-.016h.5c.44,0,.56.016.6.016.064,0,.072-.008.072-.064Zm13.856-.984c0-.056-.008-.064-.064-.064-.04,0-.264.016-.936.016h-1.5c.1-.3.192-.616.272-.912a1.065,1.065,0,0,1,.128-.368.211.211,0,0,0,.072-.128c0-.048-.04-.072-.1-.1-.144-.048-.3-.088-.472-.128a4.425,4.425,0,0,1-.112.792,7.769,7.769,0,0,1-1.24,2.744,1.173,1.173,0,0,1,.248.2c.048.048.072.08.1.08s.056-.032.1-.1a8.453,8.453,0,0,0,.5-.856,8.228,8.228,0,0,0,.856,2.176,5.523,5.523,0,0,1-2.368,1.752,1,1,0,0,1,.264.256c.056.072.08.1.12.1a.378.378,0,0,0,.112-.04A5.862,5.862,0,0,0,59.5,8.784a8.1,8.1,0,0,0,1.576,1.568.249.249,0,0,0,.12.072c.032,0,.056-.032.1-.112a1.118,1.118,0,0,1,.24-.32,6.385,6.385,0,0,1-1.752-1.608,7,7,0,0,0,.92-3.008c.424.008.592.016.624.016.056,0,.064-.008.064-.064Zm-1.168.368A5.884,5.884,0,0,1,59.5,7.952a7.623,7.623,0,0,1-.84-2.384l.072-.192ZM57.84,3.944c0-.056-.008-.064-.064-.064-.04,0-.272.016-.992.016H55.3c-.712,0-.944-.016-.984-.016-.056,0-.064.008-.064.064v.32c0,.056.008.064.064.064.04,0,.272-.016.984-.016h.152A8.738,8.738,0,0,1,54.8,5.888c-.2.008-.424.008-.648.008.032.16.064.328.1.456.016.064.04.08.072.08a.169.169,0,0,0,.088-.032.94.94,0,0,1,.344-.072c.848-.08,1.592-.192,2.4-.328l.12.272c.032.08.056.088.152.048l.2-.08c.08-.04.088-.064.064-.12a5.9,5.9,0,0,0-.808-1.328c-.032-.04-.048-.048-.112-.016l-.168.088c-.088.048-.1.072-.056.12.168.24.3.44.424.648-.552.088-1.136.16-1.68.216a10.182,10.182,0,0,0,.664-1.536h.824c.72,0,.952.016.992.016.056,0,.064-.008.064-.064ZM56.232,7.856h.344c.656,0,.864.016.9.016.056,0,.064-.008.064-.064V7.48c0-.056-.008-.064-.064-.064-.04,0-.248.016-.9.016h-.344a2.775,2.775,0,0,1,.04-.68.394.394,0,0,0,.04-.144c0-.04-.048-.056-.1-.064-.152-.016-.312-.032-.488-.04a5.589,5.589,0,0,1,.048.928H55.4c-.656,0-.856-.016-.9-.016s-.064.008-.064.064v.328c0,.056.008.064.064.064s.248-.016.9-.016h.368V9.144c-.3.072-.576.136-.792.176a7.08,7.08,0,0,1-.856.12,3.273,3.273,0,0,0,.152.472c.024.048.04.072.08.072a.169.169,0,0,0,.1-.056,1,1,0,0,1,.312-.1c.912-.208,1.872-.472,2.76-.768.152-.048.16-.064.16-.216a1.461,1.461,0,0,1,.024-.28c-.464.16-.992.32-1.48.448ZM66.44,3.288h-.448L62.848,10.68H63.3Zm7.272,5.2c.776,0,1.032.016,1.08.016s.064-.008.064-.064V8.12c0-.056-.008-.064-.064-.064s-.3.016-1.08.016H71.64a3.322,3.322,0,0,1,.1-.456A.529.529,0,0,0,71.8,7.44c0-.032-.056-.064-.12-.08a4.341,4.341,0,0,0-.464-.056,2.2,2.2,0,0,1-.056.768H69.368c-.776,0-1.04-.016-1.08-.016-.056,0-.064.008-.064.064v.32c0,.056.008.064.064.064.04,0,.3-.016,1.08-.016h1.648c-.464,1.04-1.656,1.424-3.1,1.64a.854.854,0,0,1,.208.28c.072.152.08.144.232.12,1.376-.24,2.64-.728,3.128-1.952A4.331,4.331,0,0,0,74.7,10.528c.152.024.16.024.216-.128a.913.913,0,0,1,.2-.312,4.219,4.219,0,0,1-3.256-1.6ZM70.1,5.736h.144c.592,0,.776.016.816.016.056,0,.064-.008.064-.064V5.416c0-.056-.008-.064-.064-.064-.04,0-.224.016-.816.016h-.152l-.016-.688h.32c.656,0,.856.016.9.016.056,0,.064-.008.064-.064V4.344c0-.056-.008-.064-.064-.064-.04,0-.24.016-.9.016h-.328V4.184a1.429,1.429,0,0,1,.024-.528.377.377,0,0,0,.032-.128c0-.04-.04-.064-.1-.072a4.537,4.537,0,0,0-.5-.048,3.284,3.284,0,0,1,.08.784v.1h-.384c-.656,0-.864-.016-.9-.016-.056,0-.064.008-.064.064v.288c0,.056.008.064.064.064.04,0,.248-.016.9-.016h.392l.016.688H69.32c-.592,0-.768-.016-.816-.016s-.064.008-.064.064v.272c0,.056.008.064.064.064s.224-.016.816-.016h.32l.016.856c-.28.056-.544.112-.76.144a6.908,6.908,0,0,1-.776.08,3.808,3.808,0,0,0,.112.456c.016.056.04.08.08.08a.213.213,0,0,0,.1-.04.983.983,0,0,1,.3-.1c.72-.144,1.64-.36,2.44-.6.144-.04.144-.04.152-.2a.631.631,0,0,1,.056-.248c-.392.128-.832.24-1.256.336ZM72.64,3.912c-.664,0-.864-.016-.912-.016s-.064.008-.064.064v.312c0,.056.008.064.064.064s.248-.016.912-.016h.024a2.548,2.548,0,0,1-1.632,2.56.915.915,0,0,1,.256.208c.064.08.088.112.12.112s.064-.024.12-.056a3.112,3.112,0,0,0,1.6-2.824h1.208A8.232,8.232,0,0,1,74.088,6.5c-.056.16-.184.24-.424.24a3.481,3.481,0,0,1-.656-.072.9.9,0,0,1,.1.312c.024.168.024.168.168.184.184.016.36.024.5.024a.713.713,0,0,0,.728-.488,9,9,0,0,0,.28-2.352,2.937,2.937,0,0,1,.024-.368c.008-.056-.016-.08-.072-.08s-.256.016-.92.016Zm6.592,2.12c-.1.04-.112.056-.08.112a6.331,6.331,0,0,1,.312.616c-.472.04-.968.072-1.408.1.44-.584.9-1.248,1.336-1.952a1.251,1.251,0,0,1,.28-.352c.048-.032.08-.064.08-.1s-.016-.064-.072-.1a3.234,3.234,0,0,0-.44-.224,3.248,3.248,0,0,1-.32.68c-.16.272-.336.56-.52.856-.176-.208-.352-.4-.536-.584.272-.384.48-.712.768-1.192a.439.439,0,0,1,.136-.168c.04-.024.072-.056.072-.088s-.024-.072-.088-.1c-.128-.064-.3-.144-.448-.2a1.78,1.78,0,0,1-.208.544c-.168.32-.328.592-.528.9l-.3-.3c-.048-.048-.064-.048-.128.024L77,4.672c-.072.08-.08.1-.024.144a10.734,10.734,0,0,1,1.176,1.232c-.192.28-.392.56-.6.832h-.1c-.144,0-.336-.008-.5-.024a4.423,4.423,0,0,0,.08.44c.016.064.04.1.08.1a.2.2,0,0,0,.088-.032.708.708,0,0,1,.3-.064l.88-.064v2.1c0,.872-.016,1.12-.016,1.168s.008.056.064.056h.36c.056,0,.064-.008.064-.056s-.016-.3-.016-1.168V7.2l.768-.08c.056.152.1.312.152.464.016.056.032.064.128.032l.184-.056c.1-.032.112-.056.088-.128a8.366,8.366,0,0,0-.64-1.44c-.032-.048-.056-.056-.144-.016Zm1.9-1.272c.1-.24.2-.472.272-.7a1.06,1.06,0,0,1,.2-.384c.064-.072.072-.1.072-.144s-.04-.072-.112-.1a3.583,3.583,0,0,0-.5-.128,3.014,3.014,0,0,1-.152.7,5.618,5.618,0,0,1-1.16,2.04.933.933,0,0,1,.256.192c.056.056.088.08.12.08s.064-.024.112-.088a6.347,6.347,0,0,0,.672-1.04h2.336a23.935,23.935,0,0,1-.224,3.928c-.088.52-.216.9-.56.9a5.992,5.992,0,0,1-1.04-.112,1.281,1.281,0,0,1,.128.36c.032.168.04.176.2.192a6.2,6.2,0,0,0,.744.04c.624-.008.864-.424,1-1.208a25.268,25.268,0,0,0,.256-3.88c0-.2,0-.408.016-.608,0-.056-.016-.072-.072-.072s-.24.016-.864.016ZM80.76,6.592c-.1.064-.1.08-.056.128a6.206,6.206,0,0,1,.968,1.528c.032.064.048.064.152,0l.224-.128c.088-.048.1-.064.064-.128a6.623,6.623,0,0,0-1.032-1.52c-.032-.04-.048-.048-.12,0ZM77.912,7.984c0-.032-.032-.064-.112-.08a3.65,3.65,0,0,0-.392-.064,1.591,1.591,0,0,1-.016.384A5.5,5.5,0,0,1,76.96,9.8a.811.811,0,0,1,.272.12.288.288,0,0,0,.12.064c.032,0,.048-.032.072-.112a6.659,6.659,0,0,0,.392-1.56.581.581,0,0,1,.056-.232A.205.205,0,0,0,77.912,7.984Zm1.472-.1c-.1.024-.1.048-.08.112a9.963,9.963,0,0,1,.416,1.536c.016.064.024.072.136.04l.192-.056c.1-.032.1-.056.1-.12a8.977,8.977,0,0,0-.456-1.512c-.032-.064-.048-.072-.136-.048ZM4,16.3a.664.664,0,1,0,.664.664A.668.668,0,0,0,4,16.3Zm10.592.2c.512,0,.968.016,1.432.032.072,0,.1-.024.1-.1v-.336c0-.1-.016-.128-.088-.128-.5.032-.9.04-1.456.04H11.12c-.448,0-.848-.008-1.312-.04a4.336,4.336,0,0,0,.048.464c.016.1.024.128.112.12.336-.024.752-.048,1.152-.048h1.632a4.064,4.064,0,0,1-.416,1.928,3.271,3.271,0,0,1-1.568,1.464,1.542,1.542,0,0,1,.448.264c.072.072.144.04.248-.024a3.62,3.62,0,0,0,1.416-1.5,4.6,4.6,0,0,0,.48-2.128Zm-.968-1.768c.416,0,.912,0,1.344.016.08,0,.1-.016.1-.112a2.135,2.135,0,0,0,0-.32c0-.08-.016-.112-.088-.1-.424.024-.928.024-1.352.024H12.072c-.36,0-.816-.008-1.288-.04.008.152.024.336.04.464.008.08.024.112.1.1.392-.024.792-.032,1.144-.032Zm8.752,1.1c.008-.448.008-.824.008-1.272a1.318,1.318,0,0,1,.08-.472c.04-.08.048-.16-.064-.192a3.526,3.526,0,0,0-.672-.088,3.967,3.967,0,0,1,.088.856c.008.448.008.744.008,1.176h-1.7c-.424,0-.824,0-1.312-.04.008.16.032.384.048.48s.024.112.1.1c.384-.024.744-.04,1.152-.04H21.8a4.007,4.007,0,0,1-.512,2.08,4.2,4.2,0,0,1-1.792,1.5,1.178,1.178,0,0,1,.392.248.16.16,0,0,0,.224.024,4.546,4.546,0,0,0,1.7-1.552,4.4,4.4,0,0,0,.552-2.3h1.192c.44,0,.952.016,1.36.024.1,0,.112-.016.112-.1a2.584,2.584,0,0,0,0-.352c0-.088-.024-.1-.12-.1-.456.016-.928.016-1.36.016Zm5.848-.864a8.306,8.306,0,0,1,1.52,1.184c.056.056.08.048.128-.008a3.228,3.228,0,0,0,.272-.344c.04-.064.032-.1-.024-.152a7.38,7.38,0,0,0-1.44-1.064.1.1,0,0,0-.144.016C28.448,14.688,28.328,14.832,28.224,14.96Zm.192,4.2a3,3,0,0,0,.392.544.131.131,0,0,0,.216.008,2.982,2.982,0,0,1,.44-.312,16.614,16.614,0,0,0,2.4-1.56A14.769,14.769,0,0,0,33.808,16c.1-.112.1-.176.056-.28a2.394,2.394,0,0,1-.136-.528,12.485,12.485,0,0,1-2.16,2.152,13.579,13.579,0,0,1-2.312,1.488A4.463,4.463,0,0,1,28.416,19.16ZM39.448,14.9a3.341,3.341,0,0,1,.056-.888c.04-.12.072-.208-.056-.24a3.3,3.3,0,0,0-.664-.1,6.768,6.768,0,0,1,.088,1.28V18.5c0,.488-.008,1.112-.032,1.624,0,.088.024.112.112.112a3.471,3.471,0,0,0,.408,0c.088,0,.112-.024.1-.1-.008-.52-.024-1.144-.024-1.632V16.648a8.875,8.875,0,0,1,2.328,1.072c.072.048.1.032.152-.032a2.559,2.559,0,0,0,.192-.392c.024-.056.008-.1-.056-.128a11.283,11.283,0,0,0-2.608-1.112Zm11.768,4.352c0-.432.016-.576.016-.624s-.008-.064-.064-.064-.384.016-1.144.016H47.256v-.608h2.36c.72,0,1,.016,1.04.016.056,0,.064-.008.064-.056s-.016-.184-.016-.536V17.04c0-.352.016-.48.016-.528s-.008-.064-.064-.064c-.04,0-.32.016-1.04.016H47.952c-.736,0-1.064-.016-1.112-.016s-.064.008-.064.064.016.288.016.952v2.1c0,.664-.016.9-.016.944s.008.056.064.056h.352c.056,0,.064-.008.064-.056v-.336h3.5V20.5c0,.056.008.064.064.064h.352c.056,0,.064-.008.064-.064,0-.04-.016-.168-.016-.608Zm-.464.536h-3.5v-.832h3.5Zm-.512-2.2H47.256v-.736H50.24Zm1.776-1.664c0-.168.016-.264.016-.3,0-.056-.008-.064-.064-.064s-.328.016-1.12.016H48.96a1.044,1.044,0,0,1,.032-.352.3.3,0,0,0,.048-.144c0-.032-.032-.056-.1-.064a2.92,2.92,0,0,0-.5-.04,2.428,2.428,0,0,1,.056.6H46.768c-.784,0-1.064-.016-1.112-.016s-.064.008-.064.064c0,.04.016.136.016.336v.208c0,.584-.016.664-.016.712s.008.064.064.064h.36c.056,0,.064-.008.064-.064v-.9h5.464v.9c0,.056.008.064.064.064h.36c.056,0,.064-.008.064-.064,0-.04-.016-.128-.016-.712Zm-3.24-1.848c0-.056-.008-.064-.064-.064s-.24.016-.864.016H46.616c.04-.08.088-.152.128-.24a.66.66,0,0,1,.128-.2.139.139,0,0,0,.048-.1c0-.032-.024-.064-.08-.08a3.009,3.009,0,0,0-.44-.1,1.046,1.046,0,0,1-.1.328,3.857,3.857,0,0,1-1.08,1.376.751.751,0,0,1,.256.16c.056.048.088.072.12.072s.056-.024.112-.072a4.621,4.621,0,0,0,.664-.768H47.1a4.827,4.827,0,0,1,.32.776c.016.064.032.072.128.04l.248-.08c.072-.024.088-.04.072-.088a4.9,4.9,0,0,0-.3-.648h.28c.624,0,.816.016.864.016s.064-.008.064-.064Zm3.5,0c0-.056-.008-.064-.064-.064-.04,0-.272.016-.992.016H49.656a2.169,2.169,0,0,0,.1-.24.568.568,0,0,1,.12-.216c.04-.032.064-.056.064-.1s-.04-.072-.1-.088a3.113,3.113,0,0,0-.432-.088,1.924,1.924,0,0,1-.088.344,3.933,3.933,0,0,1-.672,1.144.815.815,0,0,1,.272.112.3.3,0,0,0,.128.072c.032,0,.056-.032.1-.088a5.21,5.21,0,0,0,.3-.472h.76a4.446,4.446,0,0,1,.352.768c.024.056.04.064.128.04l.232-.064c.08-.024.1-.048.072-.1a5.4,5.4,0,0,0-.336-.648h.552c.72,0,.952.016.992.016.056,0,.064-.008.064-.064Zm9.176,5.672c0-.056-.008-.064-.056-.064s-.32.016-1.136.016h-1.1v-1.04h.744c.752,0,1,.016,1.048.016s.064-.008.064-.064v-.344c0-.056-.008-.064-.064-.064s-.3.016-1.048.016h-.744V17.3h.7c.744,0,1,.016,1.048.016s.064-.008.064-.056-.016-.272-.016-.88V14.768c0-.6.016-.824.016-.864,0-.056-.008-.064-.064-.064s-.3.016-1.048.016H58.088c-.744,0-1.008-.016-1.048-.016-.064,0-.072.008-.072.064s.016.264.016.864v1.616c0,.608-.016.832-.016.88s.008.056.072.056c.04,0,.3-.016,1.048-.016H58.7v.912h-.616c-.752,0-1-.016-1.048-.016s-.064.008-.064.064v.344c0,.056.008.064.064.064s.3-.016,1.048-.016H58.7V19.7H57.336c-.816,0-1.1-.016-1.136-.016-.056,0-.064.008-.064.064V20.1c0,.056.008.064.064.064.04,0,.32-.016,1.136-.016h2.928c.816,0,1.1.016,1.136.016s.056-.008.056-.064Zm-.96-2.856H59.168V15.76H60.5Zm0-1.528H59.168V14.272H60.5ZM58.7,16.888H57.44V15.76H58.7Zm0-1.528H57.44V14.272H58.7Zm-2.952,1.192h.088c.52,0,.672.016.72.016s.056-.008.056-.064v-.336c0-.056,0-.064-.056-.064s-.2.016-.72.016h-.088V14.408h.16c.568,0,.728.016.768.016.056,0,.064-.008.064-.064v-.344c0-.056-.008-.064-.064-.064-.04,0-.2.016-.768.016H55.1c-.56,0-.728-.016-.776-.016s-.056.008-.056.064v.344c0,.056.008.064.056.064s.216-.016.776-.016h.184V16.12h-.128c-.52,0-.672-.016-.712-.016-.056,0-.064.008-.064.064V16.5c0,.056.008.064.064.064.04,0,.192-.016.712-.016h.128v2l-.344.128a3.813,3.813,0,0,1-.736.2,3.062,3.062,0,0,0,.144.456c.024.056.056.072.08.072a.179.179,0,0,0,.1-.048,1.578,1.578,0,0,1,.288-.128A15.285,15.285,0,0,0,56.6,18.4c.136-.08.136-.08.128-.248a1.8,1.8,0,0,1,.024-.3,9.733,9.733,0,0,1-1,.5ZM4,26.3a.664.664,0,1,0,.664.664A.668.668,0,0,0,4,26.3Zm11.288.984c0-.544.016-.744.016-.784,0-.056-.008-.064-.064-.064-.04,0-.32.016-1.12.016H11.768c-.8,0-1.072-.016-1.12-.016s-.064.008-.064.064c0,.04.016.24.016.784v1.272c0,.544-.016.744-.016.784,0,.056.008.064.064.064s.32-.016,1.12-.016H14.12c.8,0,1.08.016,1.12.016.056,0,.064-.008.064-.064,0-.04-.016-.24-.016-.784Zm-.456,1.744H11.056v-.552h3.776Zm0-.888H11.056v-.5h3.776Zm0-.832H11.056v-.5h3.776Zm1.592-2.592c0-.056-.008-.064-.064-.064-.04,0-.3.016-1.1.016H14.208v-.6c.408-.056.816-.12,1.208-.2a2.589,2.589,0,0,1,.28-.04c.08-.008.1-.04.1-.072s-.008-.056-.056-.1a2.644,2.644,0,0,0-.336-.24,1.5,1.5,0,0,1-.392.136,15.712,15.712,0,0,1-2.936.3.9.9,0,0,1,.16.24c.056.12.064.136.216.128.432-.016.872-.056,1.312-.1v.552h-.88c-.792,0-1.064-.016-1.112-.016s-.064.008-.064.064v.264c0,.056.008.064.064.064s.32-.016,1.112-.016h.88v.624h-.64c-.76,0-1.008-.016-1.048-.016-.056,0-.064.008-.064.056v.264c0,.056.008.064.064.064.04,0,.288-.016,1.048-.016h1.824c.752,0,1.008.016,1.048.016.056,0,.064-.008.064-.064v-.264c0-.048-.008-.056-.064-.056-.04,0-.3.016-1.048.016h-.744v-.624h1.048c.8,0,1.064.016,1.1.016.056,0,.064-.008.064-.064Zm-5.64.744c0,.416-.016.584-.016.624,0,.056.008.064.072.064h.36c.056,0,.064-.008.064-.064,0-.04-.016-.208-.016-.648V24.24c.136-.144.256-.28.368-.416a.768.768,0,0,1,.184-.184c.056-.032.1-.048.1-.1,0-.04-.032-.064-.072-.088a3.939,3.939,0,0,0-.4-.176,1.343,1.343,0,0,1-.168.28,5.574,5.574,0,0,1-1.992,1.56.69.69,0,0,1,.2.224c.048.08.08.12.12.12a.359.359,0,0,0,.12-.056,5.94,5.94,0,0,0,1.072-.728ZM12.1,29.768c0-.032-.016-.056-.072-.088a2.965,2.965,0,0,0-.416-.192,1.48,1.48,0,0,1-.3.2,6.705,6.705,0,0,1-1.872.52,1.061,1.061,0,0,1,.208.272c.064.112.08.128.232.1a6.412,6.412,0,0,0,1.88-.64.723.723,0,0,1,.256-.1A.086.086,0,0,0,12.1,29.768Zm1.76-.128c-.1.056-.1.08-.048.12a5.9,5.9,0,0,0,2.1.792c.152.024.16.024.24-.1a1.155,1.155,0,0,1,.216-.272,5.336,5.336,0,0,1-2.128-.672c-.056-.032-.1-.016-.168.024Zm6.64-3.192c.624,0,.824.016.864.016.056,0,.064-.008.064-.056V26.1c0-.056-.008-.064-.064-.064-.04,0-.24.016-.864.016h-.152V24.32a2.26,2.26,0,0,1,.04-.7.351.351,0,0,0,.056-.152c0-.032-.04-.064-.1-.072a4.15,4.15,0,0,0-.5-.04,5.011,5.011,0,0,1,.056.968v1.72H19.48c-.624,0-.816-.016-.864-.016s-.064.008-.064.064v.312c0,.048.008.056.064.056s.24-.016.864-.016h.3A8.85,8.85,0,0,1,18.376,29a.758.758,0,0,1,.2.288c.032.064.056.1.08.1s.048-.032.08-.08a10.054,10.054,0,0,0,1.2-2.4c-.016,1.848-.064,3.5-.064,3.608,0,.056.008.056.064.056H20.3c.056,0,.064,0,.064-.056,0-.112-.056-1.768-.064-3.672a7.739,7.739,0,0,0,.824,1.456c.04.048.064.08.08.08s.048-.032.08-.088a1.571,1.571,0,0,1,.192-.3,6.844,6.844,0,0,1-1.072-1.544Zm5.024,1.216c-.008-.056-.016-.072-.072-.064s-.264.08-.864.2V24.528a3.747,3.747,0,0,1,.048-.824.439.439,0,0,0,.04-.144c0-.032-.048-.064-.1-.072a4.6,4.6,0,0,0-.52-.04,6.4,6.4,0,0,1,.056,1.1V27.9l-1.6.32c-.752.152-1,.168-1.056.184s-.064.016-.056.072l.064.344c.008.056.016.072.072.056s.3-.072,1.048-.216l1.528-.3v.76c0,.936-.016,1.336-.016,1.376,0,.056.008.064.064.064h.384c.056,0,.064-.008.064-.064,0-.04-.016-.448-.016-1.384v-.848c.664-.128.9-.16.944-.168s.072-.024.056-.072ZM21.9,26.048c-.072.072-.072.1-.024.128a5.955,5.955,0,0,1,1.112,1.016c.048.048.056.04.136-.04l.176-.192c.056-.056.08-.072.024-.128a6.3,6.3,0,0,0-1.136-.968c-.048-.032-.064-.032-.12.024Zm.232-1.776c-.08.08-.08.1-.032.128a5.427,5.427,0,0,1,1.1,1c.04.056.04.048.128-.04l.184-.192c.064-.064.056-.08.016-.12a5.424,5.424,0,0,0-1.112-.968c-.048-.032-.056-.032-.112.024Zm-.5-.12c0-.048-.04-.064-.088-.088a2.643,2.643,0,0,0-.408-.144,1.274,1.274,0,0,1-.048.312,6.44,6.44,0,0,1-.44,1.208.945.945,0,0,1,.216.088.222.222,0,0,0,.1.048c.04,0,.056-.032.088-.1.16-.352.312-.744.416-1.056a.411.411,0,0,1,.1-.176C21.6,24.208,21.624,24.192,21.624,24.152Zm-2.88-.064c-.08.032-.1.048-.064.1a6.162,6.162,0,0,1,.448,1.36c.016.064.024.064.128.024l.184-.072c.1-.04.112-.04.1-.1a7.12,7.12,0,0,0-.488-1.368c-.024-.056-.032-.056-.12-.016ZM31.6,26.912c-.672,0-.9-.016-.944-.016-.056,0-.064.008-.064.064s.016.28.016.9V29.5c0,.744-.016.96-.016,1.008s.008.056.064.056H31c.056,0,.064-.008.064-.056s-.016-.3-.016-1.024v-.3h2.328v.576c0,.208-.032.3-.344.3-.184,0-.36-.008-.544-.024a1,1,0,0,1,.168.312c.048.16.056.16.208.16a1.244,1.244,0,0,0,.792-.144c.136-.1.168-.28.168-.528,0-.232-.008-.656-.008-1.08V27.9c0-.616.016-.888.016-.936s-.008-.064-.064-.064c-.04,0-.264.016-.936.016Zm1.776.952H31.048V27.3h2.328Zm0,.944H31.048V28.24h2.328ZM34.5,26.1c0-.056-.008-.064-.056-.064s-.3.016-1.088.016H32.4V25.48h.5c.7,0,.912.016.952.016.064,0,.072-.008.072-.064v-.264c0-.056-.008-.064-.072-.064-.04,0-.256.016-.952.016h-.5v-.536h.72c.736,0,.984.016,1.032.016s.064-.008.064-.064v-.28c0-.056-.008-.064-.064-.064s-.3.016-1.032.016H32.4a1.787,1.787,0,0,1,.048-.608.388.388,0,0,0,.048-.16c0-.032-.04-.064-.1-.072a4.448,4.448,0,0,0-.512-.04,5.092,5.092,0,0,1,.056.88h-.536c-.736,0-.984-.016-1.024-.016-.056,0-.064.008-.064.064v.28c0,.056.008.064.064.064.04,0,.288-.016,1.024-.016h.536v.536h-.408c-.688,0-.912-.016-.96-.016s-.064.008-.064.064v.264c0,.056.008.064.064.064s.272-.016.96-.016h.408v.568h-.7c-.784,0-1.048-.016-1.088-.016-.056,0-.064.008-.064.064v.288c0,.056.008.056.064.056.04,0,.3-.016,1.088-.016h2.112c.784,0,1.048.016,1.088.016s.056,0,.056-.056ZM29.84,28.728c0-.368.016-.536.016-.568,0-.056-.008-.064-.064-.064s-.2.016-.712.016h-.592c-.5,0-.664-.016-.7-.016-.056,0-.064.008-.064.064,0,.04.016.208.016.7v.488c0,.976-.016,1.128-.016,1.168,0,.056.008.064.064.064h.328c.056,0,.064-.008.064-.064v-.4H29.4v.264c0,.056.008.064.064.064h.328c.056,0,.064-.008.064-.064,0-.04-.016-.192-.016-1.128Zm-.44.992H28.176V28.5H29.4Zm.68-4.808c0-.056-.008-.064-.064-.064-.04,0-.232.016-.84.016h-.9c-.608,0-.8-.016-.84-.016-.056,0-.064.008-.064.064v.328c0,.064.008.072.064.072.04,0,.232-.016.84-.016h.9c.608,0,.8.016.84.016.056,0,.064-.008.064-.072Zm-.192-1.1c0-.056-.008-.064-.064-.064s-.192.016-.7.016H28.5c-.512,0-.664-.016-.7-.016-.056,0-.064.008-.064.064v.32c0,.056.008.064.064.064.04,0,.192-.016.7-.016h.624c.512,0,.656.016.7.016s.064-.008.064-.064Zm-.112,2.2c0-.056-.008-.064-.072-.064-.04,0-.168.016-.656.016h-.536c-.488,0-.624-.016-.664-.016-.056,0-.064.008-.064.064v.312c0,.056.008.064.064.064.04,0,.176-.016.664-.016h.536c.488,0,.616.016.656.016.064,0,.072-.008.072-.064Zm0,1.064c0-.056-.008-.064-.072-.064-.04,0-.168.016-.656.016h-.536c-.488,0-.624-.016-.664-.016-.056,0-.064.008-.064.064v.312c0,.056.008.064.064.064.04,0,.176-.016.664-.016h.536c.488,0,.616.016.656.016.064,0,.072-.008.072-.064ZM42.12,25.424c.768,0,1.016.016,1.064.016s.064-.008.064-.064v-.352c0-.056-.008-.064-.064-.064s-.3.016-1.064.016H40.064V24.36a2.958,2.958,0,0,1,.04-.672.4.4,0,0,0,.04-.168c0-.032-.032-.056-.088-.064a5.131,5.131,0,0,0-.536-.048,4.967,4.967,0,0,1,.056.96v.608H37.56c-.76,0-1.016-.016-1.056-.016-.056,0-.064.008-.064.064v.352c0,.056.008.064.064.064.04,0,.3-.016,1.056-.016h2.016v4.208c0,.328-.128.384-.544.384-.176,0-.384-.016-.576-.032a1,1,0,0,1,.184.368c.04.16.04.16.192.16a2.174,2.174,0,0,0,.968-.128.614.614,0,0,0,.28-.608c0-1.12-.032-2.352-.056-3.656A6.36,6.36,0,0,0,42.9,29.848c.056.032.088.056.112.056.04,0,.056-.032.1-.1a1.068,1.068,0,0,1,.28-.312A6.409,6.409,0,0,1,41.168,27.6a9.189,9.189,0,0,0,1.024-.968,1.363,1.363,0,0,1,.368-.328c.048-.032.088-.064.088-.1s-.008-.064-.064-.112a2,2,0,0,0-.408-.288,1.433,1.433,0,0,1-.216.368,7.257,7.257,0,0,1-1.032,1.064,7.564,7.564,0,0,1-.8-1.808ZM39.144,28a1.622,1.622,0,0,1-.032-.328,14.96,14.96,0,0,1-2.016,1.2,3.871,3.871,0,0,1-.584.24,4.337,4.337,0,0,0,.216.432c.032.048.064.08.1.08s.064-.024.1-.064a1.324,1.324,0,0,1,.28-.176,16.645,16.645,0,0,0,1.84-1.128C39.176,28.16,39.176,28.16,39.144,28ZM37.28,26.112c-.088.072-.1.08-.04.128a4.362,4.362,0,0,1,.976,1.1c.032.056.048.04.136-.04l.208-.2c.064-.064.056-.08.024-.12a5.313,5.313,0,0,0-1.008-1.064c-.04-.024-.056-.024-.12.032Zm3.808-2.376c-.08.072-.08.088-.024.128a4.119,4.119,0,0,1,.944.8c.048.056.072.04.16-.04l.152-.136c.088-.072.088-.1.056-.136a5.263,5.263,0,0,0-1-.776c-.056-.032-.064-.032-.12.016Z" transform="translate(17.76 3.863)" fill="#222"/>
          </g>
        </g>
        <g id="グループ_40399" data-name="グループ 40399" transform="translate(201.5 1373.044)">
          <g id="グループ_40455" data-name="グループ 40455" transform="translate(0.123 0)">
            <g id="グループ_40291" data-name="グループ 40291" transform="translate(-16.5 -0.044)">
              <g id="グループ_40289" data-name="グループ 40289">
                <rect id="長方形_604" data-name="長方形 604" width="59" height="26" transform="translate(-0.123 6)" fill="#222"/>
                <path id="多角形_7" data-name="多角形 7" d="M18.5,0,37,11H0Z" transform="translate(67.877 0) rotate(90)" fill="#222"/>
              </g>
              <path id="パス_35516" data-name="パス 35516" d="M7-5.82A8.417,8.417,0,0,1,5.31-2.97,9.665,9.665,0,0,1,2.04-.47a2.973,2.973,0,0,1,.93.55.351.351,0,0,0,.25.11A.484.484,0,0,0,3.49.1,11.214,11.214,0,0,0,6.33-2.28,11.776,11.776,0,0,0,8.27-5.53a1.2,1.2,0,0,1,.23-.39.341.341,0,0,0,.14-.25.251.251,0,0,0-.07-.17A3.077,3.077,0,0,0,7.84-7a.489.489,0,0,0-.19-.05.282.282,0,0,0-.15.04.956.956,0,0,1-.55.1H3.38a17.5,17.5,0,0,1-1.92-.07c.02.29.06.81.09,1.01.02.14.06.21.19.2.43-.02,1-.05,1.65-.05ZM18.14-1.17v.53c0,.14.01.16.13.16.3.01.62.01.92,0,.14,0,.19-.03.19-.17-.02-.54-.05-1.03-.05-1.9V-4.94c0-.59.01-1.13.01-1.62.01-.15-.02-.2-.13-.2-.47.02-1.23.02-1.88.02H14.95c-.67,0-1.26,0-1.79-.03-.07,0-.11.04-.11.14.03.58.02,1.12.02,1.66v2.45c0,.76-.02,1.47-.03,1.99-.01.12.04.14.21.15.25.01.54.01.79,0,.18-.01.22-.03.22-.2v-.59Zm0-1.06H14.25V-5.68h3.89Zm11.8-3.9a7.113,7.113,0,0,1-1.79,1.75,2.306,2.306,0,0,1,.83.41.391.391,0,0,0,.24.1.288.288,0,0,0,.21-.09,8.5,8.5,0,0,0,1.76-1.93,1.242,1.242,0,0,1,.27-.29.261.261,0,0,0,.14-.21.29.29,0,0,0-.08-.18,5.126,5.126,0,0,0-.6-.63.34.34,0,0,0-.23-.14.731.731,0,0,0-.19.07,2.106,2.106,0,0,1-.69.06H25.52c-.8,0-1.35-.02-2.03-.07a9.356,9.356,0,0,0,.18,1.08c.02.09.06.16.18.15.59-.04,1.2-.08,1.77-.08ZM24.09-.32A2.814,2.814,0,0,1,25,.19a.283.283,0,0,0,.2.09.5.5,0,0,0,.28-.1A5.205,5.205,0,0,0,27.3-1.81a6.113,6.113,0,0,0,.59-2.75.915.915,0,0,1,.09-.41.407.407,0,0,0,.05-.18c0-.09-.04-.16-.17-.19a11.1,11.1,0,0,0-1.29-.19,3.615,3.615,0,0,1,.1.94,4.624,4.624,0,0,1-.49,2.36A4.428,4.428,0,0,1,24.09-.32ZM36.95-4.55c-.98,0-1.32-.02-1.39-.02-.1,0-.11.01-.11.11,0,.06.02.33.02.98V-1.8c0,.64-.02.91-.02.98,0,.1.01.11.11.11.07,0,.41-.02,1.39-.02h3.27c.97,0,1.32.02,1.38.02.1,0,.11-.01.11-.11,0-.06-.02-.34-.02-.98V-3.48c0-.65.02-.92.02-.98,0-.1-.01-.11-.11-.11-.06,0-.41.02-1.38.02Zm3.77,3.14H36.43v-.43h4.29ZM36.43-2.43v-.42h4.29v.42Zm0-1.43h4.29v.42H36.43Zm4.8-1.07c.92,0,1.24.02,1.3.02.1,0,.11-.01.11-.12v-.5c0-.1-.01-.11-.11-.11-.06,0-.38.02-1.3.02h-.77v-.52h1.15c.97,0,1.3.02,1.35.02.1,0,.11-.01.11-.11v-.55c0-.1-.01-.11-.11-.11-.05,0-.38.02-1.35.02H40.46V-7.4c.48-.06.94-.12,1.33-.2.16-.03.29-.05.4-.06.14-.01.19-.06.19-.11s-.03-.09-.09-.14a5.281,5.281,0,0,0-.67-.49,1.883,1.883,0,0,1-.53.15,19.805,19.805,0,0,1-3.6.3,1.984,1.984,0,0,1,.3.5c.09.21.09.21.37.2.44-.01.89-.04,1.34-.07v.45h-.96c-.96,0-1.3-.02-1.36-.02-.1,0-.11.01-.11.11v.55c0,.1.01.11.11.11.06,0,.4-.02,1.36-.02h.96v.52h-.68c-.93,0-1.24-.02-1.3-.02-.1,0-.11.01-.11.11v.5c0,.11.01.12.11.12.06,0,.37-.02,1.3-.02Zm-5.59-.64c0,.39-.02.58-.02.64,0,.11.01.12.12.12h.8c.1,0,.11-.01.11-.12,0-.06-.02-.25-.02-.72V-7.22q.18-.18.33-.36a1.179,1.179,0,0,1,.27-.28c.09-.04.16-.07.16-.15s-.06-.12-.14-.16a7.779,7.779,0,0,0-.8-.32,2.9,2.9,0,0,1-.28.39,7.389,7.389,0,0,1-2.26,1.7,1.951,1.951,0,0,1,.39.51c.09.17.12.24.19.24.05,0,.11-.04.23-.11a9.13,9.13,0,0,0,.92-.6ZM36.79-.71a2.244,2.244,0,0,1-.47.26,8.7,8.7,0,0,1-2.26.47,2.487,2.487,0,0,1,.46.6c.1.16.13.21.24.21a.9.9,0,0,0,.21-.02,8.054,8.054,0,0,0,2.28-.7,1.647,1.647,0,0,1,.41-.18c.09-.02.15-.06.15-.12s-.04-.11-.14-.15C37.39-.47,37.17-.57,36.79-.71Zm2.63.36c-.14.06-.14.1-.05.16A7.886,7.886,0,0,0,42.1.79a1.428,1.428,0,0,0,.23.03c.1,0,.14-.04.24-.2A3.252,3.252,0,0,1,43.05,0a8.006,8.006,0,0,1-2.72-.67c-.1-.05-.12-.05-.24.01ZM51.28-8.13c-.11.11-.09.13,0,.17a4.229,4.229,0,0,1,.94.59.209.209,0,0,0,.06.04l-1.31.14a4.047,4.047,0,0,1-.23-.53.85.85,0,0,1-.07-.4.758.758,0,0,0,.03-.16c0-.07-.09-.11-.28-.12-.26-.01-.57-.02-.94-.01.08.2.15.42.22.64a6.013,6.013,0,0,0,.26.68l-.2.02c-.89.1-1.21.11-1.33.12-.1.01-.11.01-.1.11l.07.64c.01.1.02.11.12.1l1.32-.15.56-.05a5.026,5.026,0,0,0,.72.84,3.029,3.029,0,0,0,1.08.66H48.15c-.97,0-1.31-.02-1.38-.02-.1,0-.11.01-.11.11,0,.06.02.35.02,1V-1.9c0,.65-.02.93-.02,1,0,.1.01.11.11.11.07,0,.41-.02,1.38-.02h3.27c.98,0,1.32.02,1.39.02.1,0,.11-.01.11-.11,0-.06-.02-.35-.02-1V-3.71c0-.52.01-.81.02-.93a2.62,2.62,0,0,0,.28.01,1.135,1.135,0,0,0,1.15-.96c.09-.3.07-.31-.23-.42a2.042,2.042,0,0,1-.53-.31c-.1.59-.26.8-.55.81a1.785,1.785,0,0,1-1.23-.61,2.755,2.755,0,0,1-.3-.29l1-.1c.89-.1,1.24-.12,1.34-.13s.12-.02.11-.12l-.07-.64c-.01-.11-.01-.12-.11-.11s-.6.09-1.41.17l.46-.42c.05-.04.07-.07.07-.1s-.02-.05-.07-.08a6.981,6.981,0,0,0-.96-.54c-.1-.05-.13-.07-.23.03Zm.65,6.59H47.64v-.43h4.29Zm0-2.52v.43H47.64v-.43ZM47.64-2.59v-.42h4.29v.42Zm-.77-3.09c0,.34-.02.44-.02.51,0,.1.01.11.11.11h.8c.11,0,.12-.01.12-.11,0-.06-.02-.22-.02-.65V-7.14l.38-.39a1.109,1.109,0,0,1,.3-.26c.09-.04.15-.08.15-.17,0-.07-.07-.12-.16-.16a7.984,7.984,0,0,0-.81-.33,2.29,2.29,0,0,1-.3.41,6.5,6.5,0,0,1-2.29,1.62,1.836,1.836,0,0,1,.37.53c.08.17.12.24.19.24a.643.643,0,0,0,.23-.1,8.522,8.522,0,0,0,.95-.57ZM50.62-.4c-.14.06-.14.1-.05.16A7.886,7.886,0,0,0,53.3.74a1.306,1.306,0,0,0,.23.03c.1,0,.16-.05.24-.2a2.663,2.663,0,0,1,.48-.64,8.1,8.1,0,0,1-2.72-.65c-.1-.05-.12-.05-.24.01ZM47.98-.78a2.929,2.929,0,0,1-.47.27,8.915,8.915,0,0,1-2.24.5,2.069,2.069,0,0,1,.46.6c.09.16.13.21.23.21a1.344,1.344,0,0,0,.22-.03A8.29,8.29,0,0,0,48.45.03a2.3,2.3,0,0,1,.41-.19c.09-.02.14-.06.14-.12s-.04-.11-.14-.14A7.923,7.923,0,0,0,47.98-.78Z" transform="translate(3.877 22)" fill="#fff"/>
            </g>
            <g id="グループ_40456" data-name="グループ 40456" transform="translate(-16.5 36.956)">
              <g id="グループ_40290" data-name="グループ 40290" transform="translate(66.877 38) rotate(180)">
                <rect id="長方形_604-2" data-name="長方形 604" width="57" height="27" transform="translate(0 5)" fill="#222"/>
                <path id="多角形_7-2" data-name="多角形 7" d="M19,0,38,13H0Z" transform="translate(67 0) rotate(90)" fill="#222"/>
              </g>
              <path id="パス_35517" data-name="パス 35517" d="M3.35-4.55c-.98,0-1.32-.02-1.39-.02-.1,0-.11.01-.11.11,0,.06.02.33.02.98V-1.8c0,.64-.02.91-.02.98,0,.1.01.11.11.11.07,0,.41-.02,1.39-.02H6.62c.97,0,1.32.02,1.38.02.1,0,.11-.01.11-.11,0-.06-.02-.34-.02-.98V-3.48c0-.65.02-.92.02-.98,0-.1-.01-.11-.11-.11-.06,0-.41.02-1.38.02ZM7.12-1.41H2.83v-.43H7.12ZM2.83-2.43v-.42H7.12v.42Zm0-1.43H7.12v.42H2.83Zm4.8-1.07c.92,0,1.24.02,1.3.02.1,0,.11-.01.11-.12v-.5c0-.1-.01-.11-.11-.11-.06,0-.38.02-1.3.02H6.86v-.52H8.01c.97,0,1.3.02,1.35.02.1,0,.11-.01.11-.11v-.55c0-.1-.01-.11-.11-.11-.05,0-.38.02-1.35.02H6.86V-7.4c.48-.06.94-.12,1.33-.2.16-.03.29-.05.4-.06.14-.01.19-.06.19-.11s-.03-.09-.09-.14a5.281,5.281,0,0,0-.67-.49,1.883,1.883,0,0,1-.53.15,19.805,19.805,0,0,1-3.6.3,1.984,1.984,0,0,1,.3.5c.09.21.09.21.37.2.44-.01.89-.04,1.34-.07v.45H4.94c-.96,0-1.3-.02-1.36-.02-.1,0-.11.01-.11.11v.55c0,.1.01.11.11.11.06,0,.4-.02,1.36-.02H5.9v.52H5.22c-.93,0-1.24-.02-1.3-.02-.1,0-.11.01-.11.11v.5c0,.11.01.12.11.12.06,0,.37-.02,1.3-.02ZM2.04-5.57c0,.39-.02.58-.02.64,0,.11.01.12.12.12h.8c.1,0,.11-.01.11-.12,0-.06-.02-.25-.02-.72V-7.22q.18-.18.33-.36a1.179,1.179,0,0,1,.27-.28c.09-.04.16-.07.16-.15s-.06-.12-.14-.16a7.779,7.779,0,0,0-.8-.32,2.9,2.9,0,0,1-.28.39A7.389,7.389,0,0,1,.31-6.4a1.951,1.951,0,0,1,.39.51c.09.17.12.24.19.24.05,0,.11-.04.23-.11a9.13,9.13,0,0,0,.92-.6ZM3.19-.71a2.244,2.244,0,0,1-.47.26A8.7,8.7,0,0,1,.46.02a2.487,2.487,0,0,1,.46.6c.1.16.13.21.24.21A.9.9,0,0,0,1.37.81,8.054,8.054,0,0,0,3.65.11a1.647,1.647,0,0,1,.41-.18c.09-.02.15-.06.15-.12S4.17-.3,4.07-.34C3.79-.47,3.57-.57,3.19-.71Zm2.63.36c-.14.06-.14.1-.05.16A7.886,7.886,0,0,0,8.5.79a1.428,1.428,0,0,0,.23.03c.1,0,.14-.04.24-.2A3.252,3.252,0,0,1,9.45,0,8.006,8.006,0,0,1,6.73-.67c-.1-.05-.12-.05-.24.01Zm7.64-4.76h-.41c-.78,0-1.03-.02-1.09-.02-.1,0-.11.01-.11.11v.71c0,.09.01.1.11.1.06,0,.31-.02,1.09-.02h.18a8.4,8.4,0,0,1-1.61,2.78,2.477,2.477,0,0,1,.36.73c.04.12.08.17.12.17s.1-.06.18-.16a9.413,9.413,0,0,0,1.21-2.28c-.02,1.87-.07,3.52-.07,3.67,0,.1.01.11.11.11h.82c.11,0,.12-.01.12-.11,0-.15-.07-1.94-.07-3.92a8.376,8.376,0,0,0,.81,1.43c.07.1.12.15.16.15s.08-.06.14-.18a3.05,3.05,0,0,1,.4-.66,8.914,8.914,0,0,1-1.35-1.73c.72,0,.96.02,1.02.02.1,0,.11-.01.11-.1v-.71c0-.1-.01-.11-.11-.11-.06,0-.31.02-1.08.02h-.08V-6.99A2.907,2.907,0,0,1,14.49-8a.469.469,0,0,0,.06-.21c0-.04-.06-.09-.16-.1-.34-.04-.64-.06-1.01-.07a9.329,9.329,0,0,1,.08,1.41Zm3.71,2.62c-.87.17-1.2.2-1.3.22s-.11.02-.09.13l.13.79c.01.09.03.1.13.08s.42-.09,1.29-.26L18.7-1.8v.74C18.7.05,18.68.6,18.68.66c0,.1.01.11.11.11h.83c.1,0,.11-.01.11-.11,0-.05-.02-.62-.02-1.73V-2c.69-.14.96-.18,1.03-.2.11-.02.11-.03.1-.12l-.12-.78c-.02-.11-.02-.12-.11-.1s-.32.09-.9.21V-6.82a4.107,4.107,0,0,1,.06-1.11.564.564,0,0,0,.06-.2c0-.06-.06-.1-.15-.11-.35-.04-.68-.06-1.06-.07a9.458,9.458,0,0,1,.08,1.52v4ZM16.04-4.9c-.05.05-.08.08-.08.11s.03.04.07.08a8.55,8.55,0,0,1,1.32,1.36c.07.08.09.08.2-.02l.49-.49c.1-.1.1-.12.03-.21a7.163,7.163,0,0,0-1.38-1.28c-.05-.04-.07-.06-.1-.06s-.04.02-.09.07Zm.29-2.3c-.1.09-.09.14-.02.19A7.225,7.225,0,0,1,17.67-5.7c.06.09.08.08.19-.03l.48-.47c.09-.08.09-.12.03-.19a7.053,7.053,0,0,0-1.41-1.27c-.09-.06-.1-.04-.19.04ZM14.61-5.81a2.75,2.75,0,0,1,.4.17.5.5,0,0,0,.2.09c.06,0,.09-.06.15-.21a12.455,12.455,0,0,0,.46-1.27.354.354,0,0,1,.12-.22.1.1,0,0,0,.06-.1c0-.05-.03-.08-.11-.12a6.991,6.991,0,0,0-.76-.28,3.714,3.714,0,0,1-.06.43A9.364,9.364,0,0,1,14.61-5.81ZM12.08-7.48c-.13.05-.15.07-.11.18a7.54,7.54,0,0,1,.51,1.67c.02.11.03.12.18.06l.43-.16c.13-.05.15-.08.13-.18a7.991,7.991,0,0,0-.54-1.68c-.05-.1-.06-.11-.18-.06Z" transform="translate(26.877 23)" fill="#fff"/>
            </g>
          </g>
        </g>
        <g id="グループ_40458" data-name="グループ 40458" transform="translate(0 4)">
          <rect id="長方形_688" data-name="長方形 688" width="83" height="80" rx="8" transform="translate(268 1366)" fill="#4054a0"/>
          <path id="パス_35518" data-name="パス 35518" d="M-32.736-8.58c-.792,0-1.034-.022-1.1-.022-.121,0-.132.011-.132.121v.924c0,.11.011.121.132.121.066,0,.308-.022,1.1-.022h1.364A8.023,8.023,0,0,1-35.794-.341a2.632,2.632,0,0,1,.649.726c.11.176.154.264.231.264.055,0,.121-.055.253-.132a9.256,9.256,0,0,0,4.048-5.478A9.456,9.456,0,0,0-26.84.5c.121.088.2.143.253.143s.11-.077.2-.253a3.242,3.242,0,0,1,.649-.836,8.615,8.615,0,0,1-4.279-6.8,6.144,6.144,0,0,1-.066-1.221c0-.11-.044-.132-.143-.132-.066,0-.308.022-1.1.022ZM-21.186-4.7c.011-.319.022-.66.022-1.012V-5.94h5.258c1.067,0,1.441.022,1.507.022.11,0,.121-.011.121-.121,0-.066-.022-.286-.022-.847V-7.8c0-.572.022-.792.022-.858,0-.11-.011-.121-.121-.121-.066,0-.44.022-1.507.022H-20.68c-1.067,0-1.452-.022-1.518-.022-.11,0-.121.011-.121.121,0,.066.022.77.022,2.332a21.549,21.549,0,0,1-.242,3.531A5.84,5.84,0,0,1-23.617-.165a3.228,3.228,0,0,1,.726.66c.11.121.165.187.22.187s.1-.077.2-.22a7.274,7.274,0,0,0,1.056-2.794c.066-.451.132-.891.165-1.353H-18.3v.9H-19.1c-1.034,0-1.386-.022-1.463-.022-.11,0-.121.011-.121.121,0,.077.022.352.022,1.045v.715c0,1.342-.022,1.595-.022,1.672,0,.11.011.121.121.121h.891c.11,0,.121-.011.121-.121V.363h3.817V.715c0,.121.011.132.121.132h.913c.11,0,.121-.011.121-.132,0-.066-.022-.319-.022-1.661v-.825c0-.561.022-.847.022-.913,0-.11-.011-.121-.121-.121-.077,0-.429.022-1.463.022h-1.023v-.9h1.914c1.078,0,1.452.022,1.518.022.11,0,.121-.011.121-.121V-4.6c0-.11-.011-.121-.121-.121-.066,0-.44.022-1.518.022h-1.914a1.315,1.315,0,0,1,.077-.627.454.454,0,0,0,.066-.209c0-.066-.066-.11-.176-.121a10.574,10.574,0,0,0-1.166-.088A4.375,4.375,0,0,1-18.3-4.7Zm5.753-2.2h-5.731v-.869h5.731Zm-4.114,5.06h3.817V-.583h-3.817ZM-3.883-4.5c.759,0,1.518.022,2.09.044.1,0,.165-.044.165-.187s.011-.7,0-.847-.011-.22-.121-.22c-.649.044-1.287.066-2.145.066H-8.833c-.638,0-1.254,0-1.87-.055a6.618,6.618,0,0,0,.088,1.056c.011.143.044.22.143.209.561-.033,1.1-.066,1.65-.066h2.09a4.672,4.672,0,0,1-.561,2.365A4.885,4.885,0,0,1-9.482-.176,2.889,2.889,0,0,1-8.5.407a.324.324,0,0,0,.231.11.67.67,0,0,0,.33-.132A5.541,5.541,0,0,0-6.006-1.694,6.283,6.283,0,0,0-5.357-4.5ZM-5.071-7.051c.605,0,1.254.011,1.848.033.121,0,.143-.055.143-.209a4.893,4.893,0,0,0,0-.8c0-.143-.022-.209-.132-.209-.55.033-1.243.044-1.859.044H-7.535c-.495,0-1.056-.011-1.826-.055.033.4.044.792.077,1.056.011.132.044.187.187.187.616-.022,1.056-.044,1.562-.044ZM7.04-5.973c.011-.627.011-.99.011-1.507a2.063,2.063,0,0,1,.088-.671.668.668,0,0,0,.077-.242c0-.077-.044-.121-.165-.154A8.291,8.291,0,0,0,5.588-8.7,4.741,4.741,0,0,1,5.72-7.59c.011.484.011,1.078.011,1.628H3.564c-.539,0-1.155,0-1.87-.055.022.407.044.869.077,1.089.022.165.055.22.2.209.418-.011,1.045-.055,1.584-.055H5.676a4.726,4.726,0,0,1-.671,2.541,5.567,5.567,0,0,1-2.5,1.991,3.06,3.06,0,0,1,.924.605.328.328,0,0,0,.242.11A.452.452,0,0,0,3.927.4,6.1,6.1,0,0,0,6.27-1.771a5.756,5.756,0,0,0,.748-3H8.58c.616,0,1.452.044,1.848.044.165,0,.209-.033.209-.209a5.585,5.585,0,0,0,0-.858c-.011-.187-.055-.209-.209-.2-.572.011-1.3.022-1.914.022Zm7.414-.88A11.644,11.644,0,0,1,16.7-5.06c.055.055.1.088.143.088s.077-.033.132-.088c.154-.165.517-.605.682-.825a.237.237,0,0,0,.066-.143c0-.044-.033-.088-.1-.154a11.47,11.47,0,0,0-2.1-1.562.293.293,0,0,0-.143-.055.206.206,0,0,0-.154.088C15.015-7.491,14.7-7.15,14.454-6.853ZM14.7-1.364a7.622,7.622,0,0,0,.88,1.221.285.285,0,0,0,.187.121.3.3,0,0,0,.2-.11A3.8,3.8,0,0,1,16.7-.638,23.651,23.651,0,0,0,20.02-2.794a17.98,17.98,0,0,0,2.53-2.332c.121-.143.176-.231.176-.33a.538.538,0,0,0-.055-.209,4.91,4.91,0,0,1-.308-1.287A16.526,16.526,0,0,1,19.349-3.96a16.3,16.3,0,0,1-3.168,2.046A6.627,6.627,0,0,1,14.7-1.364ZM30.437-7.227a2.865,2.865,0,0,1,.077-1.034.579.579,0,0,0,.088-.253c0-.088-.055-.154-.209-.187a8.119,8.119,0,0,0-1.375-.176,8.394,8.394,0,0,1,.11,1.628v5.412c0,.7-.011,1.353-.044,2.167,0,.132.055.165.209.165a7.269,7.269,0,0,0,.979,0c.154,0,.209-.033.2-.165-.022-.792-.044-1.441-.044-2.156V-4.257a12.183,12.183,0,0,1,2.893,1.408.169.169,0,0,0,.121.055c.055,0,.1-.044.143-.121a6.465,6.465,0,0,0,.473-.957c.055-.143,0-.22-.121-.286a15.516,15.516,0,0,0-3.5-1.5Z" transform="translate(311 1411)" fill="#fff"/>
        </g>
      </g>
    </g>
  </g>
</svg>
