<svg id="グループ_324" data-name="グループ 324" xmlns="http://www.w3.org/2000/svg" xmlns:xlink="http://www.w3.org/1999/xlink" width="267.944" height="52.683" viewBox="0 0 267.944 52.683">
  <defs>
    <clipPath id="clip-path">
      <rect id="長方形_448" data-name="長方形 448" width="267.944" height="50.905" fill="#fff"/>
    </clipPath>
  </defs>
  <path id="パス_34184" data-name="パス 34184" d="M22.155,42.648,24.616,43.9,13.949,49.337,3.282,43.9l2.462-1.254,8.205,4.181ZM16.41,39.722l2.463,1.253-4.924,2.509L9.025,40.974l2.463-1.253,2.461,1.253ZM3.282,38.047l2.462-1.254,2.462,1.254L5.744,39.3Zm16.411,0,2.462-1.254,2.461,1.254L22.155,39.3ZM9.025,35.122l2.463-1.255,2.461,1.255-2.461,1.252Zm7.384-1.255,2.463,1.255L16.41,36.374l-2.461-1.252ZM3.282,32.193l2.462-1.252,2.462,1.252L5.744,33.449Zm16.411,0,2.462-1.252,2.461,1.252-2.461,1.256ZM9.025,29.269l2.463-1.257,2.461,1.257L11.488,30.52Zm7.384-1.257,2.463,1.257L16.41,30.52l-2.461-1.251ZM3.282,26.341l2.462-1.254,2.462,1.254L5.744,27.6Zm16.411,0,2.462-1.254,2.461,1.254L22.155,27.6ZM9.025,23.416l2.463-1.254,2.461,1.254L11.488,24.67Zm7.384-1.254,2.463,1.254L16.41,24.67l-2.461-1.255ZM3.282,20.489l2.462-1.256,2.462,1.256L5.744,21.743Zm16.411,0,2.462-1.256,2.461,1.256-2.461,1.254ZM9.025,17.563l2.463-1.255,2.461,1.255-2.461,1.253Zm7.384-1.255,2.463,1.255L16.41,18.815l-2.461-1.253ZM3.282,14.635l2.462-1.254,2.462,1.254L5.744,15.889Zm16.411,0,2.462-1.254,2.461,1.254-2.461,1.254ZM9.025,11.708,13.949,9.2l4.924,2.508L16.41,12.962l-2.461-1.254-2.461,1.254ZM3.282,8.781,13.949,3.346,24.616,8.781l-2.461,1.256L13.949,5.854,5.744,10.036ZM13.949,0,0,7.108v3.346l2.462,1.254L0,12.962v3.346l2.462,1.255L0,18.815v3.347l2.462,1.254L0,24.67v3.343l2.462,1.257L0,30.52v3.346l2.462,1.255L0,36.374v3.348l2.462,1.253L0,42.228v3.346l13.949,7.108L27.9,45.574V42.228l-2.461-1.254L27.9,39.722V36.374l-2.461-1.252L27.9,33.867V30.52l-2.461-1.251L27.9,28.013V24.67l-2.461-1.255L27.9,22.162V18.815l-2.461-1.253L27.9,16.308V12.962l-2.461-1.254L27.9,10.454V7.108Z" transform="translate(5.942)" fill="#fff"/>
  <g id="グループ_323" data-name="グループ 323">
    <g id="グループ_322" data-name="グループ 322" clip-path="url(#clip-path)">
      <path id="パス_34185" data-name="パス 34185" d="M92.673,18.544a.775.775,0,0,0,.724.376,3.605,3.605,0,0,0,1.748-.386.619.619,0,0,1,.324-.154.662.662,0,0,1,.41.172.491.491,0,0,1,.2.347.245.245,0,0,1-.163.243,3.832,3.832,0,0,0-1.336,1.086,4.863,4.863,0,0,0-1.166,3.095A1.794,1.794,0,0,0,95.224,25.3a2.38,2.38,0,0,0,2.226-1.349,5.153,5.153,0,0,0,.488-2.423,11.919,11.919,0,0,0-.222-2.709,1.271,1.271,0,0,1-.04-.246c0-.131.12-.232.305-.232a.471.471,0,0,1,.326.094,1.1,1.1,0,0,1,.152.545,5.914,5.914,0,0,0,.632,1.776,6.087,6.087,0,0,0,1.124,1.483,1.3,1.3,0,0,1,.4.809c0,.306-.145.479-.377.479-.163,0-.39-.174-.658-.612a11.869,11.869,0,0,1-.681-1.294,12.917,12.917,0,0,1-.632-1.767l-.061.021a19.369,19.369,0,0,1,.173,2.353,4.307,4.307,0,0,1-.907,2.951,2.792,2.792,0,0,1-2.235.919,2.4,2.4,0,0,1-2.409-2.691,6.1,6.1,0,0,1,1.806-4.09,4.433,4.433,0,0,1-1.08.152,1.052,1.052,0,0,1-1.164-.75Z" transform="translate(-50.667 -10.107)" fill="#fff"/>
      <path id="パス_34186" data-name="パス 34186" d="M125.566,20.075c-.061-.486-.061-1.187-.072-1.682a2.023,2.023,0,0,0-.041-.509.546.546,0,0,0-.226-.284,3.99,3.99,0,0,0-.385-.223.061.061,0,0,1-.032-.061c0-.112.132-.173.345-.173a2.315,2.315,0,0,1,.8.152c.336.111.458.234.458.425a2.889,2.889,0,0,1-.072.286,6.753,6.753,0,0,0-.1,1.328c0,.21.007.437.017.649.033.6.073.74.33.74.1,0,.161-.021.417-.151.3-.141.829-.376,1.123-.517a.991.991,0,0,1,.408-.1.466.466,0,0,1,.5.394.421.421,0,0,1-.317.406,8.318,8.318,0,0,1-.96.305c-2.06.559-3.376,1.491-3.376,2.4,0,.63.55.944,2.038.944a15.223,15.223,0,0,0,2.453-.233,1.652,1.652,0,0,1,.285-.022.471.471,0,0,1,.448.468c0,.255-.112.356-.471.438a16.9,16.9,0,0,1-2.155.131,4.642,4.642,0,0,1-2.439-.438,1.326,1.326,0,0,1-.734-1.2c0-.871.675-1.657,2.259-2.5-.369-.141-.442-.458-.5-.986" transform="translate(-67.9 -9.448)" fill="#fff"/>
      <path id="パス_34187" data-name="パス 34187" d="M263.878,30.86c1.509.338,2.7,1.117,2.7,1.968a.531.531,0,0,1-.51.589c-.246,0-.367-.083-.532-.4a4.62,4.62,0,0,0-1.794-1.918Z" transform="translate(-144.644 -17.005)" fill="#fff"/>
      <path id="パス_34188" data-name="パス 34188" d="M282.412,18.463c.387.343.643.382,1.5.382.492,0,1.162-.049,1.7-.1v-.88c0-.569-.091-.682-.416-.8-.142-.049-.205-.091-.205-.119,0-.113.192-.224.55-.224a1.911,1.911,0,0,1,.634.15c.295.121.4.215.4.367,0,.074-.022.131-.133.284a2.413,2.413,0,0,0-.174,1.156c.379-.049.768-.11,1.2-.193a2.719,2.719,0,0,0,.591-.195.953.953,0,0,1,.436-.11c.388,0,.532.161.532.346a.343.343,0,0,1-.2.332,3.244,3.244,0,0,1-.8.185c-.682.112-1.2.185-1.774.243v.438c0,.376,0,.781.01,1.086a6.7,6.7,0,0,0,1.561-.358.67.67,0,0,1,.379-.1c.264,0,.458.151.458.354s-.123.284-.5.386a15.591,15.591,0,0,1-1.875.306c.018.637.047,1.175.079,1.7a7.371,7.371,0,0,1,2.142.861c.45.267.611.456.611.692a.374.374,0,0,1-.387.394,1.072,1.072,0,0,1-.561-.273,6.39,6.39,0,0,0-1.794-1.035,1.384,1.384,0,0,1-.186.795,1.662,1.662,0,0,1-1.592.717c-1.082,0-1.8-.486-1.8-1.156,0-.711.886-1.167,1.979-1.167.276,0,.642.03.938.061-.009-.424-.019-.976-.032-1.522-.438.041-.949.071-1.386.071-.846,0-1.2-.213-1.226-.667a2.6,2.6,0,0,1,.163-.683l.327.053a1.4,1.4,0,0,0-.051.322c0,.273.185.418.816.418.367,0,.95-.064,1.337-.11-.009-.509-.018-1.058-.03-1.526-.641.05-1.359.1-1.775.1a1.6,1.6,0,0,1-1.633-.791Zm2.244,4.971c-.929,0-1.429.191-1.429.62,0,.343.357.6,1.133.6a1.678,1.678,0,0,0,1.1-.283,1.013,1.013,0,0,0,.236-.781,5.831,5.831,0,0,0-1.042-.154" transform="translate(-154.773 -9.212)" fill="#fff"/>
      <path id="パス_34189" data-name="パス 34189" d="M310.978,18.926a1.491,1.491,0,0,0,1.22.325,4.948,4.948,0,0,0,.807-.09,8.9,8.9,0,0,0,.165-1.5c0-.222-.093-.313-.379-.456-.09-.052-.151-.08-.151-.122a.1.1,0,0,1,.041-.07.591.591,0,0,1,.387-.092c.478,0,1.142.355,1.142.628a.27.27,0,0,1-.1.244.514.514,0,0,0-.206.308c-.05.2-.144.585-.223.963.479-.113.846-.226,1.143-.324a2.094,2.094,0,0,0,.451-.214.82.82,0,0,1,.447-.154.8.8,0,0,1,.368.08.316.316,0,0,1,.144.288c0,.17-.1.271-.593.446a13.907,13.907,0,0,1-2.094.516c-.191.963-.356,1.734-.562,2.738a5.069,5.069,0,0,1,3.126-1.31c1.287,0,2.135.733,2.135,1.757,0,2.1-3.3,2.517-5.1,2.517l-.042-.3c1.847-.231,4.256-.81,4.256-2.361,0-.721-.47-1.148-1.348-1.148a3.355,3.355,0,0,0-1.979.779,3.4,3.4,0,0,0-.887.864.485.485,0,0,1-.378.318.858.858,0,0,1-.552-.823c0-.154.143-.369.257-.813.15-.618.3-1.321.427-2.119-.337.029-.611.048-.837.048a1.365,1.365,0,0,1-1.305-.717Z" transform="translate(-170.422 -9.322)" fill="#fff"/>
      <path id="パス_34190" data-name="パス 34190" d="M340.56,18.719a1.324,1.324,0,0,0,.825.233,7.631,7.631,0,0,0,1.635-.2,5.964,5.964,0,0,0,.347-.712,1.646,1.646,0,0,0,.142-.467.141.141,0,0,0-.051-.111,1.553,1.553,0,0,0-.428-.244c-.071-.033-.1-.051-.1-.095,0-.078.114-.141.265-.141.624,0,1.255.275,1.255.538,0,.093-.031.132-.122.234a4.488,4.488,0,0,0-.286.378c-.11.15-.2.279-.357.516a8.478,8.478,0,0,0,1.563-.539.883.883,0,0,1,.379-.1c.3,0,.467.171.467.374,0,.224-.216.327-1.032.518-.847.2-1.357.316-1.766.386a13.207,13.207,0,0,1-1.235,1.534,3.421,3.421,0,0,1,1.441-.52,1.241,1.241,0,0,1,1.192,1.279c.7-.3,1.226-.507,1.99-.823.267-.11.356-.183.356-.3,0-.088-.089-.251-.314-.413a.129.129,0,0,1-.07-.113c0-.042.056-.06.15-.06a1.461,1.461,0,0,1,.886.415,1.183,1.183,0,0,1,.429.628c0,.2-.161.284-.375.284a2.977,2.977,0,0,0-.859.183c-.725.243-1.48.518-2.141.779,0,.316.009.71.009,1.056,0,.417-.112.59-.377.59-.235,0-.339-.122-.339-.438,0-.253.011-.688.011-.965-1.082.5-1.552,1.068-1.552,1.5,0,.6.551.8,1.623.8a10.762,10.762,0,0,0,1.48-.132,2.325,2.325,0,0,0,.6-.123.986.986,0,0,1,.276-.05c.389,0,.694.212.694.488,0,.292-.154.388-.663.461-.275.035-1.06.1-1.59.1-1.982,0-2.932-.406-2.932-1.441a1.8,1.8,0,0,1,.48-1.1,6.41,6.41,0,0,1,1.583-1.1c-.011-.824-.205-1.078-.644-1.078a2.745,2.745,0,0,0-1.368.622,8.7,8.7,0,0,0-.845.688c-.254.252-.348.333-.511.333a.344.344,0,0,1-.347-.352.772.772,0,0,1,.3-.587c.185-.146.442-.306.686-.529a10.771,10.771,0,0,0,1.345-1.543,5.292,5.292,0,0,1-1.067.123,1.407,1.407,0,0,1-1.189-.539Z" transform="translate(-186.646 -9.359)" fill="#fff"/>
      <path id="パス_34191" data-name="パス 34191" d="M371.942,26.285c2.947-.6,4.323-1.734,4.323-3.277a1.662,1.662,0,0,0-1.815-1.794,6.34,6.34,0,0,0-2.745.849c-.419.236-.93.488-1.234.7-.244.175-.439.343-.591.343a1.129,1.129,0,0,1-.726-.4.917.917,0,0,1-.38-.721c0-.121.033-.181.093-.181a.238.238,0,0,1,.1.048.971.971,0,0,0,.63.283,4.6,4.6,0,0,0,1.105-.384,8.946,8.946,0,0,1,3.755-1.054,2.438,2.438,0,0,1,2.724,2.41,2.965,2.965,0,0,1-2.1,2.823,10.681,10.681,0,0,1-3.092.659Z" transform="translate(-202.243 -11.404)" fill="#fff"/>
      <path id="パス_34192" data-name="パス 34192" d="M398.791,18.852a1.3,1.3,0,0,0,.838.306,7.6,7.6,0,0,0,1.408-.218,3.888,3.888,0,0,0,.335-1.347c0-.142-.09-.273-.456-.458-.06-.028-.1-.037-.1-.079,0-.121.225-.182.418-.182a2.343,2.343,0,0,1,.868.261c.163.1.246.2.246.3a.341.341,0,0,1-.093.23,2.711,2.711,0,0,0-.328.59c-.079.183-.15.374-.233.556a5.718,5.718,0,0,0,.561-.211,3.572,3.572,0,0,0,.357-.193.64.64,0,0,1,.264-.062c.246,0,.432.144.432.327s-.1.3-.39.417a12.493,12.493,0,0,1-1.45.363c-.5,1.177-1.02,2.385-1.53,3.469-.345.742-.5.871-.745.871a.369.369,0,0,1-.357-.383,1.741,1.741,0,0,1,.366-.781,18,18,0,0,0,1.585-3.034,7.241,7.241,0,0,1-1.155.123,1.2,1.2,0,0,1-1.02-.66Zm5.267.173a4.656,4.656,0,0,1,1.776.414c.592.3.9.683.9.964a.332.332,0,0,1-.327.376.644.644,0,0,1-.327-.114,1.5,1.5,0,0,0-.806-.14c-.878,0-1.163.273-1.163.678a13.432,13.432,0,0,0,.326,2.019,6.661,6.661,0,0,1,1.6.752.672.672,0,0,1,.4.609.335.335,0,0,1-.36.344c-.123,0-.235-.028-.46-.223a5.168,5.168,0,0,0-1.13-.771c0,1.116-.757,1.442-1.706,1.442-.908,0-1.552-.489-1.552-1.106,0-.71.727-1.207,1.623-1.207a7.289,7.289,0,0,1,.89.051c-.042-.4-.123-.985-.123-1.37a2.534,2.534,0,0,1,.081-.68c.2-.569.716-.881,1.664-.985.094-.011.143-.022.143-.081s-.049-.1-.1-.142a3.529,3.529,0,0,0-1.43-.545Zm-1.348,4.555c-.674,0-1.05.294-1.05.611,0,.371.377.6,1.05.6a1.134,1.134,0,0,0,.889-.314.822.822,0,0,0,.183-.558,1.355,1.355,0,0,0-.009-.182,3.669,3.669,0,0,0-1.063-.154" transform="translate(-218.605 -9.298)" fill="#fff"/>
      <path id="パス_34193" data-name="パス 34193" d="M433.848,17.915c0,.13-.052.223-.226.364-.886.69-1.662,1.317-2.5,2.07-.552.489-.592.58-.592.721s.05.254.3.458c1.091.9,1.909,1.633,2.214,1.927.714.7.969,1.115.969,1.613,0,.3-.163.5-.406.5-.2,0-.309-.092-.545-.538a8.995,8.995,0,0,0-1.121-1.522,12.47,12.47,0,0,0-1.419-1.451c-.5-.427-.621-.628-.621-.944,0-.344.1-.456.571-.925.664-.658,1.44-1.426,2.071-2.107a.643.643,0,0,0,.2-.407c0-.1-.1-.2-.3-.336-.132-.08-.183-.132-.183-.184,0-.069.114-.119.275-.119.6,0,1.307.479,1.307.883m.49.5a4.538,4.538,0,0,1,1.563.894.9.9,0,0,1,.284.559c0,.189-.08.475-.316.475-.2,0-.3-.174-.4-.327a4.488,4.488,0,0,0-1.3-1.4Zm.877-.752a5.209,5.209,0,0,1,1.542.691.751.751,0,0,1,.388.6c0,.175-.053.45-.277.45a.388.388,0,0,1-.305-.172,5.21,5.21,0,0,0-1.49-1.332Z" transform="translate(-235.765 -9.385)" fill="#fff"/>
      <path id="パス_34194" data-name="パス 34194" d="M150.71,18.719a1.329,1.329,0,0,0,.827.233,7.637,7.637,0,0,0,1.632-.2,6.115,6.115,0,0,0,.347-.712,1.6,1.6,0,0,0,.145-.467.143.143,0,0,0-.052-.111,1.58,1.58,0,0,0-.43-.244c-.071-.033-.1-.051-.1-.095,0-.078.109-.141.262-.141.624,0,1.254.275,1.254.538,0,.093-.032.132-.121.234a4.508,4.508,0,0,0-.283.378c-.114.15-.208.279-.361.516a8.669,8.669,0,0,0,1.566-.539.855.855,0,0,1,.373-.1c.308,0,.47.171.47.374,0,.224-.214.327-1.031.518-.844.2-1.357.316-1.764.386a13.227,13.227,0,0,1-1.236,1.534,3.417,3.417,0,0,1,1.441-.52,1.241,1.241,0,0,1,1.194,1.279c.693-.3,1.222-.507,1.987-.823.266-.11.36-.183.36-.3,0-.088-.094-.251-.319-.413a.136.136,0,0,1-.071-.113c0-.042.062-.06.153-.06a1.465,1.465,0,0,1,.888.415,1.193,1.193,0,0,1,.429.628c0,.2-.16.284-.376.284a2.964,2.964,0,0,0-.856.183c-.726.243-1.48.518-2.144.779,0,.316.01.71.01,1.056,0,.417-.112.59-.379.59-.233,0-.334-.122-.334-.438,0-.253.009-.688.009-.965-1.084.5-1.553,1.068-1.553,1.5,0,.6.553.8,1.624.8a10.792,10.792,0,0,0,1.478-.132,2.329,2.329,0,0,0,.6-.123,1,1,0,0,1,.276-.05c.388,0,.692.212.692.488,0,.292-.153.388-.663.461-.275.035-1.063.1-1.592.1-1.977,0-2.929-.406-2.929-1.441a1.791,1.791,0,0,1,.481-1.1,6.371,6.371,0,0,1,1.583-1.1c-.009-.824-.208-1.078-.645-1.078a2.741,2.741,0,0,0-1.368.622,8.711,8.711,0,0,0-.845.688c-.258.252-.349.333-.509.333a.343.343,0,0,1-.348-.352.762.762,0,0,1,.3-.587c.184-.146.436-.306.683-.529a10.891,10.891,0,0,0,1.349-1.543,5.315,5.315,0,0,1-1.073.123,1.4,1.4,0,0,1-1.184-.539Z" transform="translate(-82.529 -9.359)" fill="#fff"/>
      <path id="パス_34195" data-name="パス 34195" d="M182.091,26.285c2.952-.6,4.327-1.734,4.327-3.277a1.664,1.664,0,0,0-1.816-1.794,6.354,6.354,0,0,0-2.746.849c-.419.236-.928.488-1.231.7-.248.175-.442.343-.594.343a1.144,1.144,0,0,1-.727-.4.921.921,0,0,1-.376-.721c0-.121.03-.181.092-.181a.24.24,0,0,1,.1.048.976.976,0,0,0,.632.283,4.585,4.585,0,0,0,1.1-.384,8.971,8.971,0,0,1,3.758-1.054,2.439,2.439,0,0,1,2.727,2.41,2.966,2.966,0,0,1-2.1,2.823,10.71,10.71,0,0,1-3.092.659Z" transform="translate(-98.128 -11.404)" fill="#fff"/>
      <path id="パス_34196" data-name="パス 34196" d="M208.937,18.852a1.3,1.3,0,0,0,.839.306,7.587,7.587,0,0,0,1.406-.218,3.933,3.933,0,0,0,.336-1.347c0-.142-.09-.273-.458-.458-.06-.028-.1-.037-.1-.079,0-.121.224-.182.417-.182a2.362,2.362,0,0,1,.87.261c.162.1.245.2.245.3a.332.332,0,0,1-.094.23,2.709,2.709,0,0,0-.325.59c-.083.183-.152.374-.236.556a5.309,5.309,0,0,0,.56-.211,3.566,3.566,0,0,0,.359-.193.63.63,0,0,1,.264-.062c.247,0,.431.144.431.327s-.1.3-.389.417a12.468,12.468,0,0,1-1.448.363c-.5,1.177-1.021,2.385-1.533,3.469-.348.742-.5.871-.744.871a.372.372,0,0,1-.359-.383,1.712,1.712,0,0,1,.37-.781,17.792,17.792,0,0,0,1.581-3.034,7.206,7.206,0,0,1-1.152.123,1.2,1.2,0,0,1-1.023-.66Zm5.267.173a4.651,4.651,0,0,1,1.775.414c.592.3.9.683.9.964a.331.331,0,0,1-.327.376.623.623,0,0,1-.326-.114,1.508,1.508,0,0,0-.805-.14c-.879,0-1.165.273-1.165.678a13.915,13.915,0,0,0,.326,2.019,6.635,6.635,0,0,1,1.6.752.672.672,0,0,1,.4.609.334.334,0,0,1-.357.344c-.123,0-.235-.028-.46-.223a5.1,5.1,0,0,0-1.131-.771c0,1.116-.756,1.442-1.707,1.442-.907,0-1.551-.489-1.551-1.106,0-.71.727-1.207,1.622-1.207a7.308,7.308,0,0,1,.891.051c-.042-.4-.122-.985-.122-1.37a2.552,2.552,0,0,1,.08-.68c.194-.569.714-.881,1.663-.985.094-.011.143-.022.143-.081s-.049-.1-.1-.142a3.527,3.527,0,0,0-1.43-.545Zm-1.347,4.555c-.673,0-1.051.294-1.051.611,0,.371.378.6,1.051.6a1.135,1.135,0,0,0,.888-.314.8.8,0,0,0,.184-.558,1.136,1.136,0,0,0-.011-.182,3.651,3.651,0,0,0-1.061-.154" transform="translate(-114.484 -9.298)" fill="#fff"/>
      <path id="パス_34197" data-name="パス 34197" d="M243.995,17.915c0,.13-.05.223-.224.364-.888.69-1.664,1.317-2.5,2.07-.55.489-.592.58-.592.721s.051.254.3.458c1.09.9,1.905,1.633,2.213,1.927.716.7.969,1.115.969,1.613,0,.3-.164.5-.41.5-.191,0-.306-.092-.539-.538a9.108,9.108,0,0,0-1.124-1.522,12.434,12.434,0,0,0-1.415-1.451c-.5-.427-.625-.628-.625-.944,0-.344.1-.456.573-.925.663-.658,1.437-1.426,2.071-2.107a.641.641,0,0,0,.2-.407c0-.1-.1-.2-.3-.336-.131-.08-.182-.132-.182-.184,0-.069.111-.119.275-.119.6,0,1.305.479,1.305.883m.492.5a4.44,4.44,0,0,1,1.557.894.879.879,0,0,1,.289.559c0,.189-.083.475-.317.475-.2,0-.3-.174-.4-.327a4.428,4.428,0,0,0-1.3-1.4Zm.877-.752a5.3,5.3,0,0,1,1.541.691.757.757,0,0,1,.385.6c0,.175-.05.45-.274.45a.388.388,0,0,1-.306-.172,5.221,5.221,0,0,0-1.49-1.332Z" transform="translate(-131.646 -9.385)" fill="#fff"/>
      <path id="パス_34198" data-name="パス 34198" d="M256.579,73.4c0-.372-.776-.89-1.324-1.378-.154-.136-.308-.116-.415.1-.039.079-.129.317-.215.481s-.236.218-.67.221-4.65,0-4.769,0a1.167,1.167,0,0,1-.534-.1c-.236-.111-.841-.523-1.128-.7-.123-.075-.341-.2-.324.116.023.406.182,3.553.187,4.306s-.076,2.84-.089,3.748c-.008.505.049.83.434.827a1.273,1.273,0,0,0,1.041-.927c.051-.154.123-.176.306-.177.3,0,4.854,0,5.058,0s.4.01.4.224c0,.117.043.859.49.857.54,0,.882-.544.947-1.15s-.063-3.984-.025-5.285c.01-.386.632-.656.628-1.16m-2.36,4.457a.269.269,0,0,1,.305.276c0,.119.006.752.007.919s-.06.316-.3.317-4.986,0-5.234,0-.3-.135-.3-.276-.006-.768-.007-.919a.282.282,0,0,1,.3-.317c.237,0,5,0,5.234,0m-.017-2.348c.247,0,.3.148.3.274s.008,1.062.009,1.216-.082.311-.214.312-5.256,0-5.406,0-.218-.088-.219-.269-.008-1.083-.009-1.216a.286.286,0,0,1,.3-.317c.243,0,4.987,0,5.235,0m-5.238-.524c-.247,0-.3-.122-.3-.275s-.007-.934-.008-1.06a.292.292,0,0,1,.3-.318c.234,0,5.022,0,5.24,0a.269.269,0,0,1,.3.276c0,.135.007.919.008,1.059a.29.29,0,0,1-.3.318c-.23,0-4.988,0-5.234,0" transform="translate(-135.569 -39.64)" fill="#fff"/>
      <path id="パス_34199" data-name="パス 34199" d="M272.429,73.377c4.438-1.145,7.343-4.1,9.186-8.9a.449.449,0,0,1,.5-.246c.128,0,.13,0,.592,0,.271,0,.38.038.382.254.017,2.358-.589,6.334-1.847,6.4a5.892,5.892,0,0,1-1.892-.369c-.123-.035-.2.071-.113.145a2.565,2.565,0,0,1,1.189,2.125c0,.3.032.447.4.445,3.06-.022,3.672-6.866,3.719-8.157,0-.123.015-.159.078-.206.141-.1.439-.283.5-.345a.307.307,0,0,0,.041-.462c-.311-.334-1.42-1.224-1.517-1.293s-.16-.081-.219.039c-.273.559-.318.892-.762.9,0,0-6.6,0-6.752,0s-.265-.035-.17-.219c.159-.308,1.072-2.307,1.18-2.554s.215-.372.408-.377h3.416a.263.263,0,0,1,.3.276c-.044.487.04.946.571.942a1.052,1.052,0,0,0,.959-1.135c-.011-.361-.118-.9-.132-2.916-.007-.949,0-2.075.018-2.606.01-.385.67-.421.667-.924,0-.372-.783-.849-1.318-1.383a.286.286,0,0,0-.485.072c-.056.111-.244.51-.383.751a.561.561,0,0,1-.516.235c-.116,0-4.629,0-4.827,0a1.022,1.022,0,0,1-.531-.127c-.249-.167-1.436-1.108-1.557-1.205s-.247.016-.173.214a15.839,15.839,0,0,1,.434,4.371,27.139,27.139,0,0,1-.134,3.652c-.105.571.094.885.479.883a1.23,1.23,0,0,0,1.131-.912.178.178,0,0,1,.153-.15c.189,0,.247.127.135.437a19.945,19.945,0,0,1-4.434,6.771c-.089.092-.038.168.055.122a13.842,13.842,0,0,0,3.963-3.567.252.252,0,0,1,.217-.119c.075,0,.682,0,.98,0,.187,0,.369.03.3.22a13.753,13.753,0,0,1-5.629,6.5c-.129.071-.065.161.069.134,3.147-.607,5.882-3.629,7.131-6.589a.479.479,0,0,1,.478-.265c.143,0,.6,0,.967,0,.222,0,.408.019.322.254a15.217,15.217,0,0,1-7.606,8.7c-.163.081-.065.234.081.2m8.417-18.947c.148,0,.213.05.214.271s.012,1.733.014,1.958a.3.3,0,0,1-.3.322c-.128,0-5.281,0-5.421,0a.261.261,0,0,1-.3-.279c0-.226-.013-1.786-.015-1.957s.086-.313.21-.315,5.445,0,5.593,0m-5.467,5.524c-.166,0-.3-.052-.3-.278s-.011-1.546-.013-1.77a.287.287,0,0,1,.3-.323h5.421c.134,0,.3.036.3.279s.011,1.518.013,1.768a.3.3,0,0,1-.3.324h-5.417" transform="translate(-148.576 -28.926)" fill="#fff"/>
      <path id="パス_34200" data-name="パス 34200" d="M310.941,64.808c-.008-1.783-.024-3.417-.043-4.064-.038-1.281-.868-1.124-.872-1.719,0-.245.242-.5.646-.5.791-.006,1.921,1.431,1.927,2.225.005.713-.251.632-.4,1.544a14.686,14.686,0,0,0-.167,2.16c.02.372.3.228.408.195s2.789-1.143,3.613-1.453c.635-.239.755-.6,1.143-.6.5,0,.829.418,1.212.9.812,1.036.756,1.655.5,1.913-.271.274-.744.041-1.09.491a35.146,35.146,0,0,1-3.524,3.8c-.61.46-.873.047-.519-.436a37.432,37.432,0,0,0,2.76-4.47c.059-.166.088-.287-.215-.195-.608.187-3.636,1.54-4.019,1.715s-.323.4-.32.821.022,3.955.051,4.512c.042.777.157,1.555,2.015,1.541a21.187,21.187,0,0,0,3.753-.71,1.224,1.224,0,0,1,1.02.956c.049.777-.133,1.046-1.029,1.215a15.719,15.719,0,0,1-3.167.259c-2.7.019-3.786-1.211-3.7-4.748.013-.516.019-2.476.016-2.834,0-.3-.209-.34-.363-.272s-.722.326-.978.439c-1.5.66-1.66,1.355-2.206,1.359a3.852,3.852,0,0,1-1.731-2.152c0-.652.316-.737.676-.226s.874.411,1.464.181,2.655-1.116,2.817-1.2.323-.188.32-.645" transform="translate(-167.632 -32.248)" fill="#fff"/>
      <path id="パス_34201" data-name="パス 34201" d="M338.8,64.084c1.082,1.267,1.292,2.335,1.866,2.331.612,0,.836-.78.831-1.337-.013-1.784-2.282-3.145-4.584-3.367-.374-.036-.431.213-.206.41a13.843,13.843,0,0,1,2.092,1.962" transform="translate(-184.587 -34.004)" fill="#fff"/>
      <path id="パス_34202" data-name="パス 34202" d="M349.582,66.154c-2.34,3.268-8.828,10-10.083,10.008a1.887,1.887,0,0,1-1.024-.447c-.34-.253-.407.022-.4.281,0,.488.439.928.859,1.6.431.7.85,1.377,1.3,1.374.346,0,.309-.572.61-.851a38.291,38.291,0,0,0,9.033-11.79c.176-.368.045-.643-.288-.176" transform="translate(-185.404 -36.318)" fill="#fff"/>
      <path id="パス_34203" data-name="パス 34203" d="M534.93,64.084c1.083,1.267,1.292,2.335,1.866,2.331.612,0,.836-.78.832-1.337-.014-1.784-2.283-3.145-4.584-3.367-.374-.036-.431.213-.206.41a13.847,13.847,0,0,1,2.092,1.962" transform="translate(-292.146 -34.004)" fill="#fff"/>
      <path id="パス_34204" data-name="パス 34204" d="M545.707,66.154c-2.34,3.268-8.828,10-10.083,10.008a1.885,1.885,0,0,1-1.023-.447c-.341-.253-.408.022-.405.281,0,.488.441.928.859,1.6.431.7.851,1.377,1.3,1.374.347,0,.309-.572.61-.851A38.306,38.306,0,0,0,546,66.33c.175-.368.045-.643-.289-.176" transform="translate(-292.963 -36.318)" fill="#fff"/>
      <path id="パス_34205" data-name="パス 34205" d="M373.608,59.371c0-.494-.836-2.085-1.359-2.081s-.475.57-1.627.7c-.407.047-1.67.322-1.429-.144a1.492,1.492,0,0,0,.319-.77c0-.438-1.3-1.927-1.888-1.923a.805.805,0,0,0-.695.572c0,.31.647.489.652,1.256.008.987-2.672,5.261-4.871,7.713-.346.387.042.695.481.381a14.624,14.624,0,0,0,2.164-1.93c.319-.3.563-.174.682-.065a14.087,14.087,0,0,1,2.119,2.757c.179.374-.1.884-.312,1.259a33.118,33.118,0,0,1-5.41,7.023c-.237.216-.24.85.736.185,2.288-1.556,6.458-6.06,9.392-13.52.124-.316,1.049-.924,1.044-1.416m-2.414.635a44.2,44.2,0,0,1-1.809,4.233c-.1.191-.217.27-.386.14a7.33,7.33,0,0,0-2.437-2.087c-.253-.13-.168-.331-.019-.538.458-.592,1.054-1.5,1.335-1.931s.514-.1,1.181-.108,1.5-.163,1.93-.167.27.273.205.458" transform="translate(-198.694 -30.393)" fill="#fff"/>
      <path id="パス_34206" data-name="パス 34206" d="M397.776,73.245a75.515,75.515,0,0,1-10.929.6.992.992,0,0,1-.708-.27c-.15-.131-.742-.778-.837-.865s-.324-.123-.321.277c.009,1.3.188.93.638,2s.721,1.208,1.046,1.206c.608,0,.648-.5,1.53-.542s7.031-.2,10.221-.07c.581.023.869-.433.863-1.065a1.3,1.3,0,0,0-1.5-1.269" transform="translate(-211.132 -40.037)" fill="#fff"/>
      <path id="パス_34207" data-name="パス 34207" d="M427.313,72.565c-.594,0-1.191.969-4.594.994-1.646.011-1.853-.684-1.908-1.729-.04-.749-.055-3.264-.034-4.958a.213.213,0,0,1,.216-.24,24.723,24.723,0,0,0,4.949-.877c1.4-.247,1.577-.707,1.574-1.146a.986.986,0,0,0-.679-.937c-1.159-.531-1.462.092-1.875.383a8.249,8.249,0,0,1-3.914,1.25c-.149.011-.227-.056-.219-.219.06-1.268.16-2.564.179-3.083.038-1.06.519-1.165.516-1.654,0-.527-.42-.857-.891-1.319-.4-.394-.617-.817-1.358-.81s-.985.377-.983.629c0,.365.469.38.9.916A1.551,1.551,0,0,1,419.67,61c0,.521.033,3.382.046,5.161s-.446,7.158.984,8.357,4.787.73,6.959.336a1.368,1.368,0,0,0,1.152-1.477c0-.443-.683-.822-1.5-.815" transform="translate(-229.399 -32.082)" fill="#fff"/>
      <path id="パス_34208" data-name="パス 34208" d="M441.923,61.031c-.008-.893-.981-1.884-2.68-1.872-.284,0-.422.163-.165.391.957.847,1.684,2.312,2.327,2.307.316,0,.52-.465.518-.826" transform="translate(-240.724 -32.599)" fill="#fff"/>
      <path id="パス_34209" data-name="パス 34209" d="M436.929,63.07c-.283,0-.423.163-.165.39.956.846,1.359,2.6,2.147,2.6.316,0,.52-.466.518-.827a2.611,2.611,0,0,0-2.5-2.161" transform="translate(-239.455 -34.754)" fill="#fff"/>
      <path id="パス_34210" data-name="パス 34210" d="M586.943,51.965c-.424,0-.463.247-.276.4,1.018.808,2.024,2.338,2.507,2.335.316,0,.454-.465.452-.827-.007-.893-.983-1.916-2.682-1.9" transform="translate(-321.681 -28.635)" fill="#fff"/>
      <path id="パス_34211" data-name="パス 34211" d="M584.047,55.493c-.283-.024-.267.251-.025.5.938.948,1.763,2.661,2.318,2.656.316,0,.54-.349.538-.709-.009-1.188-1.65-2.345-2.831-2.442" transform="translate(-320.188 -30.578)" fill="#fff"/>
      <path id="パス_34212" data-name="パス 34212" d="M507.093,56.077c1.248.876,1.828,2.3,2.523,2.295.316,0,.52-.465.517-.826-.007-.894-1.176-1.871-2.876-1.859-.283,0-.446.193-.165.39" transform="translate(-278.02 -30.686)" fill="#fff"/>
      <path id="パス_34213" data-name="パス 34213" d="M504.331,59.671c1.159,1,1.366,2.638,2.287,2.63.316,0,.552-.4.548-.92-.006-.935-1.456-1.877-2.723-2.095-.279-.048-.372.162-.112.385" transform="translate(-276.501 -32.666)" fill="#fff"/>
      <path id="パス_34214" data-name="パス 34214" d="M447.809,63.163a.557.557,0,0,0-.578.477c0,.508.754.5.763,1.638.035,4.814-.487,8.087-2.655,11.907-.13.228-.139.466-.037.521.12.064.3.008.69-.488,1.829-2.354,3.082-5.251,3.422-10.761.03-.486.427-.929.424-1.28a2.646,2.646,0,0,0-2.029-2.013" transform="translate(-244.174 -34.806)" fill="#fff"/>
      <path id="パス_34215" data-name="パス 34215" d="M466.311,65.595a33.471,33.471,0,0,1-6.414,6.636c-.266.182-.3.033-.311-.111-.07-1.5.1-7.273.162-8.061s.476-.8.471-1.3-.415-.808-.769-1.267a2.033,2.033,0,0,0-1.179-.842.628.628,0,0,0-.585.528c0,.406.807.388.831,1.915.023,1.418-.107,8.03-.131,9.039a13.73,13.73,0,0,1-.238,1.478,3.925,3.925,0,0,0,.351,1.227c.2.523.436,1.05.859,1.046.568,0,.373-.73.961-1.344a32.831,32.831,0,0,0,6.358-8.562c.261-.571-.241-.6-.366-.378" transform="translate(-251.004 -33.419)" fill="#fff"/>
      <path id="パス_34216" data-name="パス 34216" d="M487.6,57.573a42.355,42.355,0,0,1,5.523-.94.984.984,0,0,0,.978-.814c0-.683-1.249-1.164-1.725-1.16-.423,0-.444.345-1.107.509a36.872,36.872,0,0,1-4.172.9c-.986.008-1.107-.633-1.554-.63a.3.3,0,0,0-.291.336c0,.444,1.02,2.049,2.348,1.8" transform="translate(-266.123 -30.12)" fill="#fff"/>
      <path id="パス_34217" data-name="パス 34217" d="M493.793,67a1.778,1.778,0,0,0-1.643-1.507c-.479,0-.581.568-1.523.621a41.133,41.133,0,0,0-7.643,1.232,1.427,1.427,0,0,1-1.349-.169c-.336-.272-.587-.9-.8-.794-.135.064-.173.339-.168.831,0,.6.268.71.623,1.217.332.472.622,1.022,1.131,1.018.449,0,.789-.454,1.716-.712.639-.176,1.977-.452,2.214-.483a.32.32,0,0,1,.407.223,2.126,2.126,0,0,1,.3,1.152c-.126,2.954-2.415,8.826-4.218,11.129-.189.242-.157.649.389.243,2.824-2.1,5.026-8.461,5.484-10.852.1-.5-.633-1.546-.819-1.795-.147-.2.03-.326.359-.367a23.194,23.194,0,0,1,3.66-.139c.48.026.615.159,1.08.156.449,0,.806-.378.8-1" transform="translate(-263.604 -36.088)" fill="#fff"/>
      <path id="パス_34218" data-name="パス 34218" d="M515.437,61.892c-.249,0-.38.113-.379.3,0,.271.344.365.348.78.008,1.125-4.366,8.839-6.411,10.73-.08.074-.2.231-.139.31.07.1.2.046.341-.041a15.916,15.916,0,0,0,4.435-4.426c.139-.22.306-.108.343.288a34.788,34.788,0,0,1,.134,3.654,21.221,21.221,0,0,1-.165,3.445c-.123.735.164,2.237.791,2.232.293,0,.5-.28.493-.737,0-.642-.028-3.816-.037-5.009s.1-2.076.1-3.047a2.714,2.714,0,0,0-.784-1.741c-.135-.154-.07-.3.048-.51.191-.341,1.11-1.987,1.556-2.89.237-.479.993-.318.988-.944-.005-.667-1.027-2.4-1.661-2.391" transform="translate(-279.058 -34.105)" fill="#fff"/>
      <path id="パス_34219" data-name="パス 34219" d="M571.8,56.223c-.354,0-.386.3-.847.447a9.573,9.573,0,0,1-1.916.463c-.51,0-.647-.1-.522-.43a2.325,2.325,0,0,0,.269-.873c-.006-.831-1.276-2.281-1.927-2.276a.618.618,0,0,0-.687.559c0,.5.71.512.717,1.473s-2.533,5.607-4.57,7.664c-.536.54-.094.8.356.478a22.23,22.23,0,0,0,4.7-5.442c.477-.652.829.256,1.934.248a6.8,6.8,0,0,0,1.248-.1c.162-.05.46-.123.312.293C568.992,64,565.6,69.771,562.169,73c-.746.7-.052.9.317.638,4.608-3.215,7.793-9.117,9.569-13.7.214-.553.245-.432.806-.757s.461-1.232.144-1.689-.856-1.27-1.208-1.267" transform="translate(-308.123 -29.511)" fill="#fff"/>
      <path id="パス_34220" data-name="パス 34220" d="M157.253,70.511c.343,0,.443-.479.441-.755,0-.612-.238-.859-.89-1.274-.4-.253-.57-.277-.444-.531s.572-1.023.79-1.447c.135-.261.219-.166.432-.27s.216-.323.072-.544a4.65,4.65,0,0,0-.712-.725c-.215-.191-.291-.015-.324.078-.018.049-.059.188-.126.349s-.149.229-.273.229-.179-.084-.18-.3a11.855,11.855,0,0,1,0-1.364c.033-.141.215-.245.393-.457s.016-.385-.165-.458-.751-.162-.933-.254c-.134-.067-.419-.132-.415.281a5.342,5.342,0,0,1,.173,1.294c0,.436.016.857.017,1.011s-.065.253-.232.255c-.15,0-.5,0-.8-.02-.25-.017-.284.087-.262.167a1.778,1.778,0,0,0,.218.362c.088.134.208-.087.457-.089.108,0,1.042-.006,1.413-.009.342,0,.3.131.209.367a26.91,26.91,0,0,1-2.6,4.7c-.254.308-.1.471.218.2a14.217,14.217,0,0,0,1.324-1.426c.1-.147.182-.07.183.063,0,.233.038,1.766.03,2.384s-.055,1.909-.146,2.863c-.084.886,1.083.528,1.079-.063,0-.551-.089-2.671-.1-3.634-.006-.838,0-2.483,0-2.592,0-.2.108-.142.219.008.327.44.575,1.6.918,1.6" transform="translate(-84.123 -34.574)" fill="#fff"/>
      <path id="パス_34221" data-name="パス 34221" d="M142.148,67.434a7.385,7.385,0,0,1-4.395-3.9c-.041-.113.042-.152.1-.2.15-.112.157-.325-.063-.458s-.852-.483-1.094-.637c-.292-.186-.3-.016-.354.409-.128,1.1-1.707,4.189-4,6.5-.26.262-.033.241.158.1a19.243,19.243,0,0,0,4.746-5.493c.117-.184.2-.107.329.239a11.114,11.114,0,0,0,3.281,4.613c.1.071.2.03.328-.092a9.547,9.547,0,0,1,.922-.8c.13-.084.232-.224.036-.286" transform="translate(-72.519 -34.257)" fill="#fff"/>
      <path id="パス_34222" data-name="パス 34222" d="M137.744,74.352a5.743,5.743,0,0,1,1.191-.077c.545,0,2.382,0,2.852,0a.248.248,0,0,0,.275-.262c0-.175-.424-.626-.712-.98-.1-.124-.2-.114-.318.053-.165.237-.263.787-.606.79-.185,0-2.475,0-2.777,0s-.732-.31-.637.015.189.549.733.461" transform="translate(-75.132 -40.198)" fill="#fff"/>
      <path id="パス_34223" data-name="パス 34223" d="M140.12,80.375a.167.167,0,0,0-.2.267,3.873,3.873,0,0,1,.832,1.249c.047.105,0,.171-.07.183-.6.1-1.931.194-2.9.242-.116.006-.2-.025-.137-.134a31.694,31.694,0,0,0,1.425-2.837.349.349,0,0,1,.342-.224c1.076-.008,2.135,0,2.368,0,.176,0,.276-.076.275-.235,0-.176-.534-.762-.822-1.114-.1-.125-.2-.115-.319.053-.165.238-.265.931-.609.932-.184,0-4.361,0-4.663,0s-.732-.3-.638.022.181.346.733.342c.592,0,1.5,0,1.781,0a.194.194,0,0,1,.208.226,9.835,9.835,0,0,1-.6,2.781c-.087.232-.227.23-.445.216a8.822,8.822,0,0,1-1.45-.228c-.177-.055-.252.022-.136.33.075.2.467,1.238.536,1.363.086.156.189.219.378-.02a.851.851,0,0,1,.533-.27c.209-.06,3.171-.749,4.29-1.037.1-.027.2-.012.259.146.124.312.337,1.194.767,1.191.369,0,.558-.426.547-.83-.013-.486-.587-1.651-2.289-2.616" transform="translate(-74.031 -42.809)" fill="#fff"/>
      <path id="パス_34224" data-name="パス 34224" d="M127.239,64.393c.224.323.325.692.653.69.185,0,.436-.254.433-.664s-.423-.931-1.287-.97c-.327-.015-.4.132-.258.354.075.123.28.331.459.591" transform="translate(-69.492 -34.963)" fill="#fff"/>
      <path id="パス_34225" data-name="パス 34225" d="M122.088,71.176c0-.2-.14-.132-.178.013a13.108,13.108,0,0,1-.6,1.594c-.2.361-.367.141-.434.03a17.647,17.647,0,0,1-2-6.52c0-.209.084-.205.307-.207.182,0,1.973,0,2.356,0,.359,0,.505-.311.319-.545a5.57,5.57,0,0,1-.652-.788c-.121-.191-.353-.272-.443.068s-.15.822-.556.825c-.11,0-.967,0-1.128,0-.185,0-.224-.124-.24-.292a10.943,10.943,0,0,1-.021-1.666c.089-.4.339-.378.337-.607s-.205-.265-.353-.29-.643-.127-.838-.192c-.227-.074-.388.074-.284.38a17.391,17.391,0,0,1,.23,2.395c.013.287-.111.271-.346.273-1.341.009-2.548,0-2.548,0a11.834,11.834,0,0,1-1.224-.035c-.493-.037-.518.021-.449.211.043.119.141.37.39.369.381,0,.712-.1,1.618-.1.264,0,2.071,0,2.257,0,.228,0,.387-.022.4.266.17,3.311,2.11,8.976,3.791,8.964a.534.534,0,0,0,.478-.567c0-.339-.277-.547-.282-1.19s.1-2.184.094-2.384" transform="translate(-62.142 -34.484)" fill="#fff"/>
      <path id="パス_34226" data-name="パス 34226" d="M242.583,60.825c.112.426.462.254.578-.04a1.25,1.25,0,0,1,.522-.667c.545-.339,2.054-1.037,2.7-1.443.2-.128.541-.2.544.154,0,.646.225,1.018.616,1.015.344,0,.588-.562.585-1.087-.008-1.092-1.282-2.158-1.6-2.362s-.353-.053-.223.168a5.37,5.37,0,0,1,.359.915c.059.2.076.478-.18.59a5.2,5.2,0,0,1-1.376.313c-.336.042-.347-.053-.347-.211,0,0-.011-2.5-.021-2.773-.009-.253.077-.384.31-.429.74-.144,2.583-.217,2.816-.241s.544-.2.28-.5-.705-.856-1.036-1.245-.241-.013-.392.163a5.864,5.864,0,0,1-1.81,1.344c-.416.2-1.024-.3-1.2-.4,0,0-.437-.255-.338.11a12.415,12.415,0,0,1,.224,2.178c0,.689-.024,1.72-.023,1.968a.321.321,0,0,1-.353.325,3.112,3.112,0,0,1-.89-.048c-.443-.14-.44.042-.334.334s.542,1.672.592,1.861" transform="translate(-132.68 -29.104)" fill="#fff"/>
      <path id="パス_34227" data-name="パス 34227" d="M254.092,62.47c-.2.147-.145.348.139.24,2.93-1.1,3.63-2.308,4.213-5.3.047-.244.143-.228.331-.23s1.2,0,1.432,0,.305.1.287.408a7.719,7.719,0,0,1-.711,2.658c-.288.511-.755.357-1.5.126-.2-.062-.492-.049-.264.189a2.955,2.955,0,0,1,.728,1.2c.126.4.112.929.473.927,1.81-.012,2.342-3.67,2.434-4.133s.137-.558.37-.759c.324-.284.371-.683.163-.873a10.908,10.908,0,0,1-.979-1.091c-.152-.193-.228-.149-.319-.02a3.69,3.69,0,0,0-.27.339.445.445,0,0,1-.434.229c-.3,0-2.684,0-3.084,0a2.411,2.411,0,0,1-.887-.111c-.338-.1-.4,0-.336.191a5.005,5.005,0,0,0,.2.547c.1.209.2.174.339.172h.432c.1,0,.253.024.234.38-.113,2.181-1.05,3.483-2.989,4.912" transform="translate(-139.284 -30.694)" fill="#fff"/>
      <path id="パス_34228" data-name="パス 34228" d="M247.069,90.306c-.239-.313-.331-.2-.4.08a4.314,4.314,0,0,1-1.714,2.005c-.925.669-1.351.972-2.117,1.437-.276.167-.336.431.124.364a14.689,14.689,0,0,0,4.442-1.631,1.209,1.209,0,0,1,.652-.159.421.421,0,0,0,.294-.7,12.767,12.767,0,0,1-1.284-1.4" transform="translate(-133.061 -49.659)" fill="#fff"/>
      <path id="パス_34229" data-name="パス 34229" d="M263.134,92.616a19.42,19.42,0,0,0-3.229-1.161c-.333-.129-.424.175-.146.349a14.149,14.149,0,0,1,3.56,3.477c.52.712,1.149.58,1.271-.383s-.957-1.986-1.457-2.282" transform="translate(-142.367 -50.379)" fill="#fff"/>
      <path id="パス_34230" data-name="パス 34230" d="M93.518,68.464c.091,0,.939,0,1.2,0s.347.088.3.308a18.845,18.845,0,0,1-2.3,5c-.241.316.073.225.232.09a12.6,12.6,0,0,0,2.506-3.423c.047-.114.16-.111.166.092,0,.163.025,2.579-.061,3.665-.072.914.019,1.174.433,1.167a.669.669,0,0,0,.62-.77c-.056-.972-.135-4.274-.136-4.439s.088-.211.151-.025a13.461,13.461,0,0,0,1.943,3.353.167.167,0,0,0,.254,0,8.486,8.486,0,0,1,.982-.736c.162-.095.07-.251-.033-.3a7.4,7.4,0,0,1-3.1-3.747c-.067-.2.15-.228.389-.23.3,0,1.7,0,1.932,0s.449-.061.448-.231c0-.257-.632-.768-.8-.936s-.267-.05-.34.1c-.113.23-.27.64-.629.643s-.784,0-.956,0-.247-.1-.254-.3c-.005-.172-.027-1.543-.028-1.677s.073-.231.191-.232,1.513,0,1.677,0c.387,0,.441-.235.3-.418s-.382-.521-.559-.73-.259-.116-.35.04c-.242.417-.311.708-.585.709l-.39,0c-.219,0-.285-.06-.287-.258s-.029-1.642-.031-1.9c0-.4.448-.391.448-.668,0-.261-.577-.356-1.077-.572-.111-.048-.4-.122-.327.209s.169,2.787.171,2.964-.045.231-.3.233-.265.007-.48.009c-.081,0-.118-.044-.075-.155.146-.394.28-.806.329-.889.064-.11.229-.25-.021-.367a5.954,5.954,0,0,0-.75-.306c-.261-.08-.36-.049-.358.286a7.987,7.987,0,0,1-.128,1.47,8.741,8.741,0,0,1-.583,2.4.083.083,0,0,1-.148.027,3.248,3.248,0,0,0-.842-.633.093.093,0,0,1-.064-.1c0-.189.015-.709.014-.822,0-.141.045-.3.282-.3s.292,0,.378,0c.317,0,.732.012.8-.216.058-.194-.344-.607-.65-.906-.125-.122-.247-.18-.335,0-.133.275-.285.694-.413.7-.017,0-.057,0-.057-.076s-.015-1.9-.019-2.3.322-.443.321-.642c0-.261-.576-.291-1.076-.508-.111-.048-.455-.1-.327.209a21.144,21.144,0,0,1,.172,3.043c0,.131-.009.285-.233.287h-.631a.62.62,0,0,1-.278-.049c-.213-.09-.312-.025-.248.195.056.194,0,.352.445.305.141-.015.4-.024.7-.029.159,0,.246.071.247.233a25.282,25.282,0,0,1-1.625,5.99c-.092.21.009.307.17.106.1-.126,1.157-2.066,1.29-2.376.056-.131.193-.194.194.033,0,.3.014,1.939.015,2.141,0,.586-.168,2.084-.164,2.584,0,.362.11.576.4.573a.66.66,0,0,0,.634-.514c.107-.53-.028-2.524-.038-3.869,0-.55.022-2.774.021-2.908s.06-.211.151-.1c.252.309.329,1.491.665,1.489.266,0,.436-.422.434-.783a1.153,1.153,0,0,0-.015-.136c0-.024.008-.069.1-.069m2.072-.727c0,.232-.1.3-.3.3H93.613c-.151,0-.155-.047-.095-.161.2-.373.8-1.5.984-1.928.028-.065.07-.121.126-.121.285,0,.626,0,.779,0s.2.121.2.277-.014,1.441-.015,1.633" transform="translate(-49.153 -34.162)" fill="#fff"/>
      <path id="パス_34231" data-name="パス 34231" d="M117.923,78.756c-.159.043-1.559.451-1.7.494-.187.053-.256-.037-.261-.278s-.02-2.933-.021-3.073.043-.3.245-.3l1.31-.01c.344,0,.473-.184.3-.438a7.006,7.006,0,0,0-.76-.858c-.163-.141-.228-.074-.273.012-.138.259-.309.839-.679.842-.33,0-1.758,0-2,0a1.517,1.517,0,0,1-.738-.1c-.164-.081-.211-.013-.21.1,0,.134.047.193.238.443.122.159.317.034.816.031.117,0,.34-.011.575-.013a.276.276,0,0,1,.306.3c0,.143.012,1.691.012,1.691s.012,1.58.013,1.715a.285.285,0,0,1-.239.308c-.177.048-.685.181-.925.234-.1.022-.437.147-.629.052-.318-.16-.539-.26-.446.217a8.821,8.821,0,0,0,.573,1.38c.11.245.2.2.412-.034a1.365,1.365,0,0,1,.491-.413c.982-.445,3.564-1.923,3.738-2.041.058-.04.147-.11.109-.214-.021-.058-.093-.093-.254-.048" transform="translate(-61.88 -40.895)" fill="#fff"/>
      <path id="パス_34232" data-name="パス 34232" d="M227.2,65.372c-3.7-.359-6.665-2.69-6.678-4.345,0-.11.06-.149.2-.15H222.9c.142,0,.279.011.28.207s0,.309,0,.4c0,.433.02.906.443.9.462,0,1.027-.479,1.02-1.451s-.116-1.4-.123-2.43-.014-1.851-.018-2.4.432-.634.616-.765.328-.291.208-.488a14.335,14.335,0,0,0-1.171-1.239c-.429-.446-.479-.136-.529-.009-.154.393-.363.645-.772.648-.184,0-6.26,0-6.405,0a.7.7,0,0,1-.311-.056c-.367-.211-.9-.51-1.248-.7-.162-.088-.3-.07-.273.207a33.636,33.636,0,0,1,.148,3.825,36.046,36.046,0,0,1-.107,4c-.03.545.278.611.535.609.236,0,.731.038.988-1.037.019-.082.045-.216.208-.217h1.673c.154,0,.312.064.313.223.007.939-3.759,5.448-6.067,6.817-.156.093-.294.312.045.205a15.993,15.993,0,0,0,4.383-2.5.193.193,0,0,1,.347.091,8.1,8.1,0,0,1,.077,1.961c-.151,2.363-.618,4.513-3.212,5.551-.315.125-.426.379.059.332,2.354-.231,4.566-2.1,4.706-6.669a.841.841,0,0,1,.207-.565c.174-.221.311-.626-.1-.789-.329-.13-.984-.389-1.122-.453s-.156-.167-.049-.309a16.976,16.976,0,0,0,2.154-2.761c.089-.141.255-.29.472.182a11.984,11.984,0,0,0,2.241,3.138c.123.111.061.2-.1.149s-1.015-.338-1.3-.454-.371.086-.351.288a9.961,9.961,0,0,1,.233,1.493c0,.584.052,1.9.061,3.035a26.039,26.039,0,0,1-.071,3.423c-.089.694.168.93.6.927a.933.933,0,0,0,.925-.943c.079-1.271-.117-2.728-.127-4.213,0-.494.016-1.559.031-2.175.006-.247.068-.306.345-.512.147-.11.262-.233.214-.425s.106-.11.2.007A8.95,8.95,0,0,0,225.62,67.3c.337.109.377-.075.5-.261a3.1,3.1,0,0,1,1.26-1.276c.393-.213.135-.365-.176-.4M216.134,55.2c0-.207.109-.3.254-.3s2.192-.031,2.315-.032c.183,0,.285.1.286.312,0,.227.01,1.407.012,1.61s-.09.289-.238.289h-2.326a.261.261,0,0,1-.291-.267c0-.169-.01-1.4-.012-1.611m.34,5.009c-.168,0-.3-.053-.3-.276s-.013-1.72-.014-1.941a.309.309,0,0,1,.3-.328h2.323a.23.23,0,0,1,.233.251c0,.174.014,1.907.014,2.054,0,.2-.12.24-.272.241-.121,0-2.112,0-2.281,0m4.022-5.041c0-.221.1-.3.254-.3s2.008,0,2.156,0c.172,0,.285.058.286.281s.01,1.408.012,1.611-.108.318-.247.318c-.1,0-2.092,0-2.179,0-.151,0-.269-.076-.27-.3s-.01-1.39-.012-1.61m.014,2.786c0-.187.094-.29.233-.29h2.165c.153,0,.3.022.3.277s-.016,1.634-.014,1.91-.17.357-.273.358h-2.109a.276.276,0,0,1-.293-.3c0-.2-.013-1.766-.014-1.953" transform="translate(-116.338 -29.414)" fill="#fff"/>
      <path id="パス_34233" data-name="パス 34233" d="M196.683,60.856a12.781,12.781,0,0,0-1.063-1.313c-.214-.215-.34-.229-.491.052-.252.472-.352,1.375-.971,1.38-.054,0-.8,0-.986,0s-.3-.066-.3-.272c0-.239.065-3.468.062-4-.006-.862.636-.865.633-1.231,0-.456-.635-.412-1.215-.646a7.322,7.322,0,0,0-.808-.277c-.379-.094-.508-.007-.406.463a24.6,24.6,0,0,1,.242,3.725c.006.756.009,1.732.01,1.92a.28.28,0,0,1-.3.323c-.213,0-1.272,0-1.483,0s-.3-.078-.3-.258.02-3.777.019-3.851c0-.214-.01-.352.382-.774s.139-.625-.068-.74-1.074-.516-1.371-.621-.625-.188-.555.29c.15,1.026.194,5.528.195,5.657a.283.283,0,0,1-.3.3c-.222,0-1.539,0-1.769,0s-.3-.048-.3-.28.017-3.843.016-3.92a.838.838,0,0,1,.3-.734c.385-.428.139-.626-.068-.74s-.991-.466-1.288-.572-.558-.192-.554.29c0,0,.148,1.385.156,2.454,0,.524.018,3.068.019,3.23s-.056.268-.3.27-.895,0-1.25,0a4.443,4.443,0,0,1-.886-.053c-.129-.041-.482-.248-.41.158a2.036,2.036,0,0,0,.214.62c.124.252.358,0,.749,0,.043,0,1.436,0,1.632,0s.256.167.257.317.012,2.05.012,2.05-.047,9.018-.052,9.426.072.949.656.944a.969.969,0,0,0,1.051-.96c.009-.117.084-.181.228-.182,2.017-.015,9.158,0,9.39,0,.468,0,.89-.332.562-.813a10.847,10.847,0,0,0-1.18-1.364c-.187-.214-.351-.126-.415,0-.1.206-.457.84-.607,1.123s-.224.389-.484.391-5.694-.013-7.312,0c-.286,0-.307-.283-.308-.659,0-.659-.1-4.334-.122-7.956-.006-.756,0-1.827,0-2s.054-.317.253-.319,1.58,0,1.811,0,.3.144.3.241,0,1.92,0,2.128c.012,1.625-.088,4.407-.076,6,.011,1.544,1.67,1.363,1.659-.181,0-.222-.023-.858-.024-.971a.2.2,0,0,1,.2-.228h1.593c.13,0,.186.128.187.244s0,.356,0,.527c0,.559.2.853.567.851.285,0,1.02-.274,1.016-.771,0-.275-.165-7.533-.166-7.644s.056-.2.3-.2,2.215.026,3,0c.512-.018.87-.321.506-.84m-7.244,6.889c0-.117-.115-3.149-.119-3.727,0-.694-.008-1.963-.009-2.076s.08-.244.3-.246,1.371,0,1.539,0,.256.079.256.2.033,5.669.04,5.813-.072.274-.2.275h-1.627c-.149,0-.182-.126-.183-.244" transform="translate(-99.414 -30.038)" fill="#fff"/>
      <path id="パス_34234" data-name="パス 34234" d="M167.042,74.938a7.138,7.138,0,0,0-.764-.831c-.168-.163-.237-.217-.4.055-.389.634-.334.777-.7.781h-.546c-.193,0-.265-.131-.266-.3s-.041-5.491-.042-5.64a.225.225,0,0,1,.215-.254c.128,0,1.18,0,1.451,0,.387,0,.5-.154.348-.426a6.985,6.985,0,0,0-.764-.831c-.167-.163-.264-.277-.375.023-.235.639-.235.765-.592.769-.209,0-.288-.048-.289-.307s-.021-2.582-.024-3.037a.925.925,0,0,1,.368-.75c.243-.241.115-.447-.135-.513-.4-.109-.889-.229-1.05-.293-.278-.112-.32.041-.286.2a4.854,4.854,0,0,1,.129,1.058c.006.894.022,3.186.023,3.338a.26.26,0,0,1-.292.3c-.241,0-.507,0-.581,0a1.1,1.1,0,0,1-.457-.066c-.25-.117-.407,0-.243.357.137.3.372.176.676.174h.686a.239.239,0,0,1,.219.265c0,.181.039,5.489.04,5.636s-.061.3-.262.3H161.6a1.111,1.111,0,0,1-.457-.058c-.25-.119-.408-.045-.243.317.137.3.372.181.676.179s4.442.005,5.118,0c.387,0,.5-.17.348-.443" transform="translate(-88.203 -34.904)" fill="#fff"/>
    </g>
  </g>
</svg>
